<svg width="413" height="112" viewBox="0 0 413 112" fill="none" xmlns="http://www.w3.org/2000/svg">
<g clip-path="url(#clip0_4164_812)">
<path d="M4.36047 83.6004C16.1759 62.133 35.3005 34.449 38.6646 34.1761C40.828 34.0006 41.2658 37.1838 40.5763 37.2397C38.7457 37.3882 33.9296 43.0677 31.0415 47.1429C28.5161 50.6741 19.862 63.6169 14.5204 72.2585C21.4154 65.2139 28.7647 58.7546 32.533 58.4489C34.2448 58.3101 35.2675 60.2971 35.3687 61.5453C35.5307 63.5423 34.1828 66.6909 32.0965 70.031C32.713 69.8135 33.2692 69.5889 33.8905 69.4308C36.3524 68.6567 39.4775 68.9776 37.9213 69.5585C35.247 70.5173 32.6855 71.5388 30.3575 72.637C25.7677 79.0399 19.103 85.3838 15.1684 85.703C13.6824 85.8235 12.3976 84.1449 12.305 83.0037C12.0639 80.0319 19.5958 75.233 27.6427 71.7683C30.6369 67.6726 32.8291 63.4265 31.7569 62.3049C30.0544 60.4927 19.8189 70.1655 16.0299 74.4933C12.0793 78.894 10.0187 81.8132 7.39765 86.9676C6.70728 88.3398 3.37004 85.4037 4.37236 83.5994L4.36047 83.6004ZM24.6087 75.5204C18.9543 78.6832 15.4538 81.5518 15.9653 82.2521C16.6831 83.2828 20.777 79.9114 24.6087 75.5204Z" fill="url(#paint0_linear_4164_812)"/>
<path d="M21.7834 106.477C21.4873 102.827 28.5367 91.3428 36.2782 84.8517C39.6599 81.9928 43.1084 79.8105 46.7671 78.8915C46.8763 78.763 46.9698 78.5879 47.079 78.4594C50.1419 73.7358 52.4816 69.9803 54.4635 66.8282C48.8378 71.8195 40.1366 80.0516 37.1767 80.2917C35.5243 80.4258 34.9171 78.6922 34.8476 77.8363C34.5468 74.1275 42.0652 64.1486 47.0557 58.4071C48.1043 57.1734 51.0698 59.8045 49.6141 60.15C48.4865 60.409 45.0204 65.1772 43.0144 68.0322C41.0046 70.8396 36.9915 76.6812 37.7905 77.2386C38.7023 77.8586 54.6959 63.3513 57.5822 60.5805C60.2368 58.6421 61.0859 56.2759 63.0235 56.1187C64.3905 56.0078 65.7628 58.0263 65.1694 58.5291C64.7884 58.8472 63.9264 59.4317 63.3523 60.1722C59.4384 65.0246 52.9094 74.5164 50.3574 78.4567C53.1242 78.6391 54.5864 80.2913 54.9241 81.6519C55.3483 83.3406 54.7362 82.8757 54.174 82.2871C52.6777 80.8051 50.8278 80.7159 49.1755 80.8499L48.8307 80.8779C43.3735 89.4212 29.6371 109.776 24.7871 110.169C22.5642 110.35 21.8557 107.368 21.7814 106.453L21.7834 106.477ZM44.6712 82.1127C42.0637 83.3054 39.4091 85.2438 36.8505 87.6291C28.9856 94.8122 24.2131 104.568 25.4983 105.661C27.1641 107.021 38.4179 91.4625 44.6702 82.1009L44.6712 82.1127Z" fill="url(#paint1_linear_4164_812)"/>
<path d="M76.4541 92.9122C75.0655 75.7945 110.527 51.2603 123.199 50.2324C128.679 49.7878 131.036 53.3298 129.495 52.7609C128.312 52.3423 126.508 52.0818 125.307 52.1792C111.494 53.2997 78.6186 77.8515 79.7854 92.2351C79.8963 93.6022 80.7343 95.3769 83.4684 95.1551C102.072 93.6459 153.548 39.957 152.765 30.3164C152.65 28.8899 150.791 27.9519 148.116 28.1689C135.73 29.1737 117.117 41.7756 106.668 42.6232C103.078 42.9144 100.265 40.8452 99.4818 38.2644C98.9982 36.5806 100.02 35.7558 101.04 35.4936C101.827 35.3102 102.646 35.5308 103.392 36.9062C104.138 38.2816 105.036 39.477 107.664 39.2639C116.912 38.5137 138.239 26.0385 147.939 25.2517C151.993 24.9228 155.492 27.056 155.737 30.0753C156.663 41.4871 102.966 96.8519 83.162 98.4585C78.7162 98.8191 76.6672 95.5393 76.4541 92.9122Z" fill="url(#paint2_linear_4164_812)"/>
<path d="M149.258 72.1926C149.06 69.7439 150.136 66.7849 152.245 62.9882C148.235 67.3938 143.411 72.3799 141.532 72.5322C140.225 72.6383 138.555 71.2302 138.388 69.1737C137.981 64.1573 150.007 49.565 154.346 49.213C156.629 49.0279 158.86 50.2827 159.644 51.5353C160.526 50.3151 161.609 48.911 162.537 48.2614C163.678 47.427 166.303 50.1336 164.95 50.4228C162.976 50.8701 150.165 69.9414 152.264 71.7813C153.747 73.0969 166.634 58.4946 168.469 56.3355C169.408 55.2303 169.718 58.3043 168.24 59.8599C167.242 60.97 155.74 74.9454 152.257 75.228C150.89 75.3389 149.365 73.5121 149.258 72.1926ZM157.375 53.9569C157.103 53.4046 155.856 52.1896 154.537 52.2966C150.424 52.6303 139.804 67.4555 141.255 69.1087C142.388 70.3928 155.151 57.0689 157.375 53.9569Z" fill="url(#paint3_linear_4164_812)"/>
<path d="M162.069 70.8064C161.847 68.0723 164.102 62.5408 167.558 57.7854C171.374 52.4742 175.873 47.7538 179.218 47.2432C181.206 46.9623 182.947 47.9219 183.104 49.8595C183.284 52.0824 181.248 55.2988 179.536 55.4377C177.824 55.5765 177.12 54.7123 177.875 54.1366C178.685 53.4965 180.243 50.7258 179.405 50.2792C178.199 49.5754 174.257 54.083 170.628 58.9123C167.41 63.1938 165.046 67.9803 165.19 69.7515C165.231 70.2627 165.416 70.475 165.761 70.4471C167.128 70.3362 171.598 67.3291 174.185 65.2886C176.233 63.6866 177.373 62.8522 177.818 62.5769C178.641 62.1033 177.914 63.0238 177.493 63.5844C174.532 67.498 168.082 73.5373 164.884 73.7967C163.457 73.9125 162.149 71.9485 162.057 70.8074L162.069 70.8064Z" fill="url(#paint4_linear_4164_812)"/>
<path d="M195.395 53.2781C193.306 57.9226 183.389 72.4036 179.598 72.424C178.737 72.434 177.007 71.6052 176.908 69.6508C176.759 67.0784 190.733 44.6343 194.323 44.343C195.975 44.209 197.232 46.2847 196.151 46.3725C195.58 46.4188 195.033 46.7504 194.38 47.258C195.458 47.8645 195.927 49.37 195.886 50.9289C196.407 51.0063 196.986 51.067 197.616 51.0159C200.022 50.8805 204.734 49.5171 206.381 48.5818C207.48 47.9781 207.454 49.1289 205.121 50.754C202.783 52.3197 199.701 53.2638 197.176 53.4088C196.546 53.4599 195.966 53.3873 195.382 53.2671L195.395 53.2781ZM192.609 52.128L192.581 51.7833C192.2 51.3595 191.817 50.9239 191.555 50.4905C188.915 54.0908 180.012 66.7666 181.053 67.6514C182.351 68.7546 192.753 54.641 192.609 52.128Z" fill="url(#paint5_linear_4164_812)"/>
<path d="M193.51 68.2566C205.326 46.7893 224.451 19.1052 227.815 18.8323C229.978 18.6568 230.416 21.8401 229.726 21.896C227.896 22.0445 223.08 27.7239 220.192 31.7991C217.666 35.3304 209.012 48.2731 203.682 56.9138C210.577 49.8692 217.927 43.4099 221.695 43.1042C223.407 42.9653 224.429 44.9524 224.531 46.2006C224.693 48.1976 223.345 51.3462 221.258 54.6863C221.875 54.4688 222.431 54.2442 223.052 54.0861C225.514 53.312 228.639 53.6329 227.083 54.2138C224.409 55.1726 221.847 56.194 219.519 57.2923C214.93 63.6952 208.265 70.0391 204.318 70.3593C202.832 70.4798 201.548 68.8012 201.455 67.66C201.214 64.6882 208.746 59.8893 216.793 56.4246C219.787 52.3288 221.979 48.0827 220.907 46.9612C219.204 45.1489 208.969 54.8217 205.18 59.1495C201.229 63.5502 199.169 66.4694 196.548 71.6238C195.857 72.996 192.52 70.06 193.522 68.2556L193.51 68.2566ZM213.759 60.1766C208.104 63.3395 204.604 66.208 205.115 66.9084C205.833 67.939 209.927 64.5677 213.759 60.1766Z" fill="url(#paint6_linear_4164_812)"/>
<path d="M239.313 72.8094C239.207 71.5018 239.84 70.7564 240.256 71.0099C240.863 71.4153 241.295 71.7272 242.032 71.6675C245.907 71.3531 257.925 59.4656 271.944 45.9801C264.259 46.089 258.185 46.2945 258.085 46.53C257.905 47.1189 263.997 47.1392 266.197 47.4154C268.457 47.6868 264.156 48.5024 260.892 48.5398C256.811 48.5239 252.094 47.7578 251.196 47.3161C250.299 46.8744 249.225 44.2573 250.711 44.1368C253.735 43.9513 263.715 43.6563 274.662 43.3426C280.368 37.878 286.335 32.2249 292.185 27.0479C304.715 15.8608 317.057 7.22567 323.214 6.72615C325.152 6.56897 327.443 7.81897 327.638 10.2202C327.916 13.6437 317.801 25.5443 308.329 38.4337C307.294 39.8339 306.319 41.2411 305.284 42.6413C307.41 42.5885 308.84 42.5203 309.237 42.548C310.447 42.5694 312.113 42.6018 309.625 45.2685C308.829 46.075 307.228 46.0972 303.933 45.8978C303.702 45.8567 303.358 45.8847 303.008 45.8532C296.892 54.6773 291.728 63.3045 290.282 69.5123C290.025 70.622 287.669 70.6456 287.443 67.8521C287.202 64.8802 292.544 55.6642 299.266 45.7499C293.685 45.6881 284.619 45.7296 276.47 45.8761C260.956 60.6915 246.693 74.544 242.235 74.9056C240.583 75.0397 239.436 74.331 239.311 72.7856L239.313 72.8094ZM279.19 43.2624C287.381 43.0526 295.585 42.8537 301.379 42.7308C302.716 40.7796 304.102 38.8364 305.499 36.8804C315.05 23.6376 325.058 11.7457 323.461 10.4992C320.703 8.36574 307.777 16.8808 294.025 29.3755C289.209 33.7268 284.141 38.5054 279.191 43.2743L279.19 43.2624Z" fill="url(#paint7_linear_4164_812)"/>
<path d="M307.8 59.7873C307.545 56.649 318.245 39.8669 320.93 36.0953C321.961 34.6357 325.422 37.6216 323.743 38.1646C323.301 38.3201 319.48 43.7393 314.896 50.9435C321.058 44.0062 328.762 36.3215 329.53 35.1704C330.45 33.8274 333.409 36.2317 332.392 37.1159C331.375 38.0001 329.407 41.3187 329.546 43.0304C329.629 44.0527 330.394 44.3377 331.143 44.2769C332.403 44.1747 334.424 43.7236 336.001 42.5068C337.407 41.4115 336.848 43.8141 335.786 44.8814C334.724 45.9487 333.262 47.0964 330.813 47.295C327.675 47.5496 326.712 45.5577 326.541 43.4537C326.485 42.7642 326.453 42.3719 326.534 41.8987C323.797 44.2984 316.305 51.7983 310.195 62.1775C309.437 63.4475 307.953 61.3782 307.824 59.7853L307.8 59.7873Z" fill="url(#paint8_linear_4164_812)"/>
<path d="M340.001 56.72C339.803 54.2712 340.879 51.3122 342.988 47.5156C338.978 51.9211 334.153 56.9072 332.275 57.0596C330.968 57.1656 329.298 55.7575 329.131 53.7011C328.724 48.6846 340.75 34.0923 345.089 33.7404C347.372 33.5552 349.603 34.81 350.387 36.0627C351.269 34.8424 352.352 33.4384 353.28 32.7887C354.421 31.9543 357.046 34.661 355.693 34.9502C353.719 35.3975 340.908 54.4688 343.007 56.3086C344.49 57.6242 357.377 43.0219 359.212 40.8628C360.151 39.7576 360.46 42.8316 358.983 44.3873C357.984 45.4973 346.483 59.4728 343 59.7553C341.633 59.8662 340.108 58.0395 340.001 56.72ZM348.118 38.4842C347.846 37.932 346.599 36.7169 345.279 36.824C341.166 37.1576 330.547 51.9828 331.998 53.636C333.131 54.9201 345.894 41.5962 348.118 38.4842Z" fill="url(#paint9_linear_4164_812)"/>
<path d="M350.815 55.4949C362.63 34.0276 381.755 6.34353 385.119 6.07063C387.282 5.89513 387.72 9.07833 387.03 9.13426C385.2 9.28277 380.384 14.9622 377.496 19.0374C374.97 22.5687 366.316 35.5114 360.986 44.1521C367.881 37.1074 375.231 30.6482 378.999 30.3425C380.711 30.2036 381.733 32.1907 381.835 33.4389C381.997 35.4359 380.649 38.5845 378.563 41.9246C379.179 41.7071 379.735 41.4825 380.357 41.3244C382.818 40.5503 385.944 40.8711 384.387 41.4521C381.713 42.4109 379.152 43.4323 376.824 44.5305C372.234 50.9335 365.569 57.2774 361.622 57.5975C360.137 57.7181 358.852 56.0394 358.759 54.8983C358.518 51.9265 366.05 47.1275 374.097 43.6629C377.091 39.5671 379.283 35.321 378.211 34.1995C376.509 32.3872 366.273 42.06 362.484 46.3878C358.533 50.7885 356.473 53.7077 353.852 58.8621C353.161 60.2343 349.824 57.2983 350.827 55.4939L350.815 55.4949ZM371.075 47.4139C365.42 50.5768 361.92 53.4453 362.431 54.1457C363.149 55.1763 367.243 51.805 371.075 47.4139Z" fill="url(#paint10_linear_4164_812)"/>
<path d="M397.038 36.9207C394.95 41.5651 385.033 56.0462 381.241 56.0666C380.38 56.0766 378.65 55.2477 378.551 53.2934C378.402 50.7209 392.376 28.2768 395.966 27.9856C397.619 27.8516 398.876 29.9273 397.794 30.0151C397.223 30.0614 396.676 30.3929 396.023 30.9006C397.101 31.5071 397.57 33.0126 397.529 34.5714C398.05 34.6488 398.63 34.7095 399.26 34.6584C401.666 34.5231 406.377 33.1597 408.024 32.2244C409.124 31.6207 409.098 32.7715 406.765 34.3966C404.427 35.9623 401.344 36.9063 398.819 37.0513C398.189 37.1024 397.609 37.0299 397.025 36.9097L397.038 36.9207ZM394.252 35.7706L394.224 35.4259C393.843 35.0021 393.461 34.5665 393.198 34.1331C390.559 37.7334 381.656 50.4092 382.697 51.2939C383.995 52.3971 394.396 38.2836 394.252 35.7706Z" fill="url(#paint11_linear_4164_812)"/>
<path d="M211.298 78.556C212.315 78.4939 213.283 78.3564 214.222 78.1653C219.479 77.0987 223.935 74.3329 230.804 73.7091C238.9 72.9946 240.318 74.3702 249.478 72.8649C258.66 71.3693 268.01 71.4437 272.053 70.3871C276.099 69.3315 276.727 71.2102 282.52 70.2263C288.319 69.2501 291.881 69.1922 297.042 69.388C302.205 69.5676 317.928 68.9047 323.579 67.7376C329.231 66.5567 335.833 67.4458 339.768 67.4935C340.993 67.5084 341.961 67.5777 342.707 67.6678C343.023 67.7061 343.176 67.8211 343.184 67.9444C343.184 67.9444 343.184 67.9445 343.184 67.9446C343.195 68.0981 342.982 68.2645 342.582 68.3115C340.645 68.5396 337.758 68.9878 334.365 69.7827C328.042 71.2677 327.261 70.164 318.667 71.3252C310.073 72.4973 304.977 73.9536 294.788 74.125C284.59 74.3293 282.538 77.3855 268.112 77.2455C253.668 77.1867 252.509 80.3707 238.43 82.6411C231.177 83.8326 222.907 84.7051 215.395 85.5371C208.328 86.3163 201.946 87.0438 197.841 87.8268C189.372 89.4384 178.05 91.8649 165.968 93.7991C153.881 95.7266 139.287 99.7103 125.915 101.783C112.55 103.842 93.6859 106.997 84.9093 108.267C83.5804 108.457 82.3203 108.643 81.2747 108.795C75.3124 109.673 72.7255 110.179 65.7713 111.942C61.001 113.115 54.403 114.396 48.5692 114.401C48.3843 114.393 48.213 114.38 48.0595 114.364C46.1364 114.165 46.3225 113.754 47.9957 113.382C48.3205 113.31 48.6693 113.231 49.091 113.135C53.1112 112.152 56.5819 111.658 58.5525 110.584C62.5231 108.395 64.2227 107.51 69.7215 107.168C75.0913 106.824 77.2347 104.657 80.2684 104.095C80.3617 104.078 80.4561 104.063 80.5518 104.049C83.7122 103.584 83.8586 104.637 99.5804 100.419C115.278 96.2108 123.945 94.1914 129.936 92.7463C135.935 91.2971 148.685 89.632 158.474 87.3765C168.249 85.0897 188.363 81.6546 196.386 79.7369C204.407 77.7984 204.63 78.9734 211.298 78.556Z" fill="url(#paint12_linear_4164_812)"/>
</g>
<defs>
<linearGradient id="paint0_linear_4164_812" x1="24.5943" y1="85.8817" x2="20.5193" y2="35.6481" gradientUnits="userSpaceOnUse">
<stop stop-color="#09090A"/>
<stop offset="1" stop-color="#131417"/>
</linearGradient>
<linearGradient id="paint1_linear_4164_812" x1="45.67" y1="108.475" x2="41.564" y2="57.8595" gradientUnits="userSpaceOnUse">
<stop stop-color="#09090A"/>
<stop offset="1" stop-color="#131417"/>
</linearGradient>
<linearGradient id="paint2_linear_4164_812" x1="118.859" y1="95.5626" x2="113.383" y2="28.0549" gradientUnits="userSpaceOnUse">
<stop stop-color="#09090A"/>
<stop offset="1" stop-color="#131417"/>
</linearGradient>
<linearGradient id="paint3_linear_4164_812" x1="154.792" y1="75.0223" x2="152.677" y2="48.9408" gradientUnits="userSpaceOnUse">
<stop stop-color="#09090A"/>
<stop offset="1" stop-color="#131417"/>
</linearGradient>
<linearGradient id="paint4_linear_4164_812" x1="173.615" y1="73.0884" x2="171.568" y2="47.8549" gradientUnits="userSpaceOnUse">
<stop stop-color="#09090A"/>
<stop offset="1" stop-color="#131417"/>
</linearGradient>
<linearGradient id="paint5_linear_4164_812" x1="192.986" y1="71.3424" x2="190.819" y2="44.6273" gradientUnits="userSpaceOnUse">
<stop stop-color="#09090A"/>
<stop offset="1" stop-color="#131417"/>
</linearGradient>
<linearGradient id="paint6_linear_4164_812" x1="213.744" y1="70.5379" x2="209.669" y2="20.3043" gradientUnits="userSpaceOnUse">
<stop stop-color="#09090A"/>
<stop offset="1" stop-color="#131417"/>
</linearGradient>
<linearGradient id="paint7_linear_4164_812" x1="285.897" y1="71.3637" x2="280.932" y2="10.1562" gradientUnits="userSpaceOnUse">
<stop stop-color="#09090A"/>
<stop offset="1" stop-color="#131417"/>
</linearGradient>
<linearGradient id="paint8_linear_4164_812" x1="323.155" y1="61.4754" x2="321.049" y2="35.5196" gradientUnits="userSpaceOnUse">
<stop stop-color="#09090A"/>
<stop offset="1" stop-color="#131417"/>
</linearGradient>
<linearGradient id="paint9_linear_4164_812" x1="345.535" y1="59.5496" x2="343.42" y2="33.4682" gradientUnits="userSpaceOnUse">
<stop stop-color="#09090A"/>
<stop offset="1" stop-color="#131417"/>
</linearGradient>
<linearGradient id="paint10_linear_4164_812" x1="371.048" y1="57.7762" x2="366.973" y2="7.54261" gradientUnits="userSpaceOnUse">
<stop stop-color="#09090A"/>
<stop offset="1" stop-color="#131417"/>
</linearGradient>
<linearGradient id="paint11_linear_4164_812" x1="394.629" y1="54.985" x2="392.462" y2="28.2699" gradientUnits="userSpaceOnUse">
<stop stop-color="#09090A"/>
<stop offset="1" stop-color="#131417"/>
</linearGradient>
<linearGradient id="paint12_linear_4164_812" x1="46.687" y1="90.9996" x2="343.183" y2="90.9996" gradientUnits="userSpaceOnUse">
<stop stop-color="#09090A"/>
<stop offset="1" stop-color="#131417"/>
</linearGradient>
<clipPath id="clip0_4164_812">
<rect width="407.45" height="79.0118" fill="white" transform="translate(0 32.9453) rotate(-4.63777)"/>
</clipPath>
</defs>
</svg>
