<svg width="995" height="196" viewBox="0 0 995 196" fill="none" xmlns="http://www.w3.org/2000/svg">
<path d="M6.10352e-05 194.395L0.399553 102.621L6.10352e-05 32.7361C6.10352e-05 31.5312 0.799045 31.1296 1.59803 31.1296H27.1655C27.1655 31.1296 28.7635 31.5312 28.7635 32.7361L27.9645 47.9984C36.5536 35.9492 49.5371 28.7197 66.116 28.7197C100.073 28.7197 118.25 56.6336 118.25 92.781C118.25 128.928 98.2751 157.646 65.317 157.646C49.3373 157.646 36.7533 151.42 28.364 139.773L28.7635 194.395C28.7635 195.6 27.9645 196.002 27.1655 196.002H1.59803C1.59803 196.002 6.10352e-05 195.6 6.10352e-05 194.395ZM89.0868 94.3876C89.0868 65.6704 79.0995 48.6008 58.3259 48.6008C38.9505 48.6008 27.9645 63.2606 27.565 91.9777C27.3653 121.097 38.1516 137.764 57.7267 137.764C78.5003 137.764 88.8871 121.097 88.8871 94.3876H89.0868Z" fill="#0B26C5"/>
<path d="M124.443 109.044V83.942L124.043 32.7332C124.043 31.5282 124.842 31.1266 125.641 31.1266H151.608C151.608 31.1266 153.206 31.5282 153.206 32.7332L152.806 83.942V108.442C152.806 126.716 162.195 136.356 175.378 136.356C189.759 136.356 203.342 123.503 205.739 98.2002V83.7412L205.34 32.5323C205.34 31.3274 206.139 30.9258 206.938 30.9258H233.304C233.304 30.9258 234.902 31.3274 234.902 32.5323L234.503 88.5609V153.024C234.503 153.024 233.704 154.63 232.905 154.63H208.136C208.136 154.63 206.538 154.229 206.538 153.024L207.337 135.954C199.347 147.802 185.365 157.643 166.789 157.643C141.221 157.643 124.642 140.372 124.642 108.844L124.443 109.044Z" fill="#0B26C5"/>
<path d="M244.489 153.426L245.288 92.1758L244.489 32.7333C244.489 31.5284 245.288 31.1268 246.087 31.1268H271.455C271.455 31.1268 273.053 31.5284 273.053 32.7333L272.054 53.0161C281.242 37.7538 297.422 29.9219 314.999 29.9219C317.396 29.9219 319.993 30.3235 322.19 30.926C323.189 30.926 323.589 31.7292 323.589 32.5325V50.8071C323.589 50.8071 322.79 52.4136 321.991 52.4136C319.993 52.2128 317.996 52.012 315.798 52.012C292.628 52.012 273.852 65.6677 272.853 93.9832V153.426C272.853 153.426 272.454 155.032 271.455 155.032H246.087C246.087 155.032 244.489 154.631 244.489 153.426Z" fill="#0B26C5"/>
<path d="M321.197 93.3814C321.197 54.4225 343.769 28.1152 381.321 28.1152C418.873 28.1152 441.245 53.8201 441.844 96.1929C441.844 97.3978 441.045 97.7994 440.246 97.7994H349.961C351.159 124.91 361.945 138.164 382.519 138.164C398.1 138.164 407.687 130.131 411.083 113.865C411.482 112.66 412.082 112.258 413.08 112.258H437.449C438.648 112.258 439.047 112.66 438.848 113.664C435.652 138.164 415.877 157.844 382.32 157.844C342.57 157.844 321.197 131.135 321.197 93.3814ZM350.959 79.3241H410.883C409.685 62.4553 400.496 47.5947 381.72 47.5947C364.143 47.5947 353.956 58.8406 350.959 79.3241Z" fill="#0B26C5"/>
<path d="M494.772 153.426L495.171 108.443V32.7341C495.171 32.7341 495.571 31.1275 496.769 31.1275H521.138C522.337 31.1275 522.736 31.5292 522.736 32.7341L522.337 49.8037C530.526 36.9513 541.912 28.1152 558.89 28.1152C575.868 28.1152 588.852 36.148 594.245 53.0168C604.033 35.1439 616.217 28.1152 632.397 28.1152C657.165 28.1152 671.547 43.5783 671.547 76.9143V108.242L671.946 153.226C671.946 154.43 671.147 154.832 670.348 154.832H644.381C643.183 154.832 642.783 154.43 642.783 153.226V108.242L642.983 77.3159C642.983 57.8365 635.593 49.4021 623.408 49.4021C612.422 49.4021 601.636 61.0496 598.04 81.9347V153.226C598.24 154.43 597.841 154.832 596.642 154.832H570.675C570.675 154.832 569.077 154.43 569.077 153.226L569.477 108.242V77.3159C569.477 57.8365 562.086 49.4021 549.902 49.4021C537.717 49.4021 526.132 63.0578 523.735 87.5577V108.242L524.134 153.226C524.134 154.43 523.335 154.832 522.536 154.832H496.17C496.17 154.832 494.572 154.43 494.572 153.226L494.772 153.426Z" fill="#0B26C5"/>
<path d="M677.939 93.3821C677.939 57.4355 697.514 28.5176 730.672 28.5176C747.051 28.5176 759.435 34.743 767.825 46.7921L767.425 32.534C767.425 31.329 768.224 30.9274 769.023 30.9274H794.591C794.591 30.9274 796.189 31.329 796.189 32.534L795.789 92.1772L796.189 153.025C796.189 154.23 795.39 154.632 794.591 154.632H769.223C769.223 154.632 767.625 154.23 767.625 153.025L768.024 137.562C759.635 149.812 746.652 157.042 729.873 157.042C695.916 157.042 677.939 129.128 677.939 92.9805V93.3821ZM768.624 94.1854C768.823 64.8658 757.837 48.3987 738.262 48.1979C717.489 47.997 707.102 64.8658 707.102 91.7756C707.102 120.694 717.489 137.964 737.863 137.763C757.238 137.763 768.624 123.103 768.823 94.1854H768.624Z" fill="#0B26C5"/>
<path d="M817.561 119.889V51.8113H803.379C802.38 51.8113 801.781 51.008 801.781 50.2048V32.9343C801.781 32.9343 802.58 31.3278 803.379 31.3278H817.76V1.60655C817.561 0.401638 818.16 0 819.159 0H844.726C844.726 0 846.324 0.401638 846.324 1.60655V30.9261H874.688C875.687 30.9261 876.286 31.7294 876.286 32.5327V49.8031C876.286 49.8031 875.487 51.4097 874.688 51.4097H846.124V118.885C846.124 131.938 851.318 135.955 860.506 135.955C866.099 135.955 870.493 134.95 874.089 134.348C875.287 133.946 876.086 134.549 876.086 135.553V151.418C876.086 151.418 875.687 153.024 874.888 153.426C868.696 155.434 861.505 157.041 854.514 157.041C835.138 157.041 817.361 147.401 817.361 119.688L817.561 119.889Z" fill="#0B26C5"/>
<path d="M874.292 93.3814C874.292 54.4225 896.863 28.1152 934.416 28.1152C971.968 28.1152 994.339 53.8201 994.939 96.1929C994.939 97.3978 994.14 97.7994 993.341 97.7994H903.055C904.254 124.91 915.04 138.164 935.614 138.164C951.194 138.164 960.782 130.131 964.178 113.865C964.577 112.66 965.176 112.258 966.175 112.258H990.544C991.743 112.258 992.142 112.66 991.942 113.664C988.746 138.164 968.972 157.844 935.414 157.844C895.665 157.844 874.292 131.135 874.292 93.3814ZM904.054 79.3241H963.978C962.78 62.4553 953.591 47.5947 934.815 47.5947C917.237 47.5947 907.05 58.8406 904.054 79.3241Z" fill="#0B26C5"/>
</svg>
