<svg width="40" height="56" viewBox="0 0 40 56" fill="none" xmlns="http://www.w3.org/2000/svg">
<path d="M1.90735e-06 48.5278H31.1662V55.6359H1.90735e-06V48.5278Z" fill="#FFB700"/>
<path d="M24.8846 30.1958L29.0841 45.3194H2.3398C2.3398 45.3194 1.40428 32.1557 0.233818 18.8522C-0.531711 10.1431 7.01853 1.4184 17.64 2.65575C18.3142 2.7341 18.9537 2.86841 19.5766 3.02825L27.8953 0.062598C28.2969 -0.080621 28.7476 0.0268476 29.0372 0.334475C29.327 0.642211 29.4013 1.08958 29.2244 1.4711L26.6324 7.0523C29.7931 10.0403 31.7966 13.8114 33.0782 16.0746C34.8329 19.171 39.134 27.6518 39.134 27.6518C39.6759 28.6877 39.3051 29.9575 38.2874 30.5572L33.2505 33.5205C32.08 34.2096 30.6048 34.156 29.4879 33.383L24.8846 30.1958ZM24.4077 15.259C23.1585 15.259 22.1454 16.2514 22.1454 17.4762C22.1454 18.7001 23.1585 19.6935 24.4077 19.6935C25.6559 19.6935 26.669 18.7001 26.669 17.4762C26.669 16.2514 25.6559 15.259 24.4077 15.259Z" fill="#FFB700"/>
</svg>
