<svg viewBox="0 0 26 26" xmlns="http://www.w3.org/2000/svg"><path d="M10.062 9.484H7.217v2.268h2.66c.474 0 .886-.124.886-1.217s-.7-1.051-.7-1.051"/><path d="M10.062 13.401H7.217v2.887h2.68c.413 0 1.196-.165 1.196-1.402.02-1.464-1.03-1.485-1.03-1.485"/><path d="M19.464 0H6.515C2.928 0 0 2.928 0 6.515v12.97c0 3.567 2.928 6.494 6.515 6.494h12.97c3.587 0 6.515-2.927 6.515-6.515V6.515C25.98 2.928 23.052 0 19.464 0m-4.206 8.247h4.33v1.031h-4.33zm-2.02 6.784c0 3.216-3.176 3.32-3.176 3.32H4.948V7.629h5.093c1.588 0 2.846.907 2.846 2.804s-1.526 2-1.526 2c2.02-.02 1.876 2.598 1.876 2.598m7.772-.186h-5.216c0 2.062 1.773 1.897 1.773 1.897 1.67 0 1.608-1.072 1.608-1.072h1.773c0 2.887-3.443 2.763-3.443 2.763-4.124 0-3.855-4.062-3.855-4.062s0-4.082 3.855-4.082c4.062-.021 3.505 4.556 3.505 4.556"/><path d="M17.546 11.773c-1.546 0-1.773 1.628-1.773 1.628h3.3s.02-1.628-1.527-1.628"/></svg>