<svg viewBox="0 0 24 24" xmlns="http://www.w3.org/2000/svg"><path d="M12 0C5.383 0 0 5.383 0 12s5.383 12 12 12 12-5.383 12-12S18.617 0 12 0m7.82 5.66a10.02 10.02 0 0 1 2.245 6.032c-2.495-.516-4.755-.456-6.75-.065a47 47 0 0 0-1.112-2.41c2.172-.935 4.064-2.13 5.617-3.558m-1.352-1.374c-1.542 1.407-3.328 2.449-5.158 3.218A46 46 0 0 0 9.9 2.15a10.03 10.03 0 0 1 8.568 2.137M7.954 2.778c.591.766 1.999 2.683 3.51 5.411-3.8 1.238-7.487 1.447-9.259 1.466a10.11 10.11 0 0 1 5.749-6.877m-6.017 8.809h.057c1.224 0 3.468-.082 6.108-.564A30 30 0 0 0 12.38 9.92c.348.696.696 1.43 1.032 2.199a18.2 18.2 0 0 0-4.714 2.337 21.2 21.2 0 0 0-4.38 4.048 10.03 10.03 0 0 1-2.38-6.917m3.768 8.269a19.4 19.4 0 0 1 4.14-3.852q2.08-1.42 4.296-2.11c.856 2.219 1.587 4.67 2.023 7.275a10 10 0 0 1-4.164.904c-2.38 0-4.569-.832-6.295-2.217m12.231.275a40 40 0 0 0-1.893-6.695c1.905-.321 3.874-.255 5.896.2a10.08 10.08 0 0 1-4.003 6.495"/></svg>