<svg viewBox="0 0 26 26" xmlns="http://www.w3.org/2000/svg"><path d="M13 2.342c3.471 0 3.883.013 5.253.076 1.417.065 2.876.388 3.909 1.42 1.042 1.042 1.355 2.488 1.42 3.909.063 1.37.076 1.782.076 5.253s-.013 3.883-.076 5.253c-.064 1.41-.394 2.883-1.42 3.909-1.042 1.042-2.486 1.355-3.909 1.42-1.37.063-1.782.076-5.253.076s-3.883-.013-5.253-.076c-1.399-.064-2.891-.402-3.909-1.42-1.037-1.037-1.355-2.496-1.42-3.909-.063-1.37-.076-1.782-.076-5.253s.013-3.883.076-5.253c.064-1.404.398-2.886 1.42-3.909 1.04-1.04 2.49-1.355 3.909-1.42 1.37-.063 1.782-.076 5.253-.076M13 0C9.47 0 9.026.015 7.64.078 5.63.17 3.635.729 2.182 2.182.724 3.64.17 5.632.078 7.64.015 9.026 0 9.47 0 13s.015 3.974.078 5.36c.092 2.008.653 4.009 2.104 5.458 1.457 1.457 3.451 2.012 5.458 2.104C9.026 25.985 9.47 26 13 26s3.974-.015 5.36-.078c2.009-.092 4.006-.652 5.458-2.104 1.46-1.46 2.012-3.45 2.104-5.458.063-1.386.078-1.83.078-5.36s-.015-3.974-.078-5.36c-.092-2.01-.652-4.006-2.104-5.458C22.363.727 20.363.169 18.36.078 16.974.015 16.53 0 13 0"/><path d="M13 6.324a6.676 6.676 0 1 0 0 13.352 6.676 6.676 0 0 0 0-13.352m0 11.01a4.334 4.334 0 1 1 0-8.668 4.334 4.334 0 0 1 0 8.667"/><path d="M19.94 7.62a1.56 1.56 0 1 0 0-3.12 1.56 1.56 0 0 0 0 3.12"/></svg>