<svg viewBox="0 0 26 23" xmlns="http://www.w3.org/2000/svg"><path d="M24.919 21.452h.245l-.47-.713c.287 0 .44-.183.442-.408v-.027c0-.305-.185-.451-.563-.451h-.611v1.598h.23v-.696h.282zm-.46-.878h-.267v-.54h.338c.174 0 .373.028.373.256 0 .262-.2.284-.445.284"/><path d="M18.732 18.732h-3.258v-5.101c0-1.217-.021-2.782-1.694-2.782-1.696 0-1.957 1.325-1.957 2.694v5.19H8.567V8.24h3.128v1.433h.043a3.43 3.43 0 0 1 3.085-1.694c3.302 0 3.91 2.172 3.91 4.996zM4.892 6.807a1.89 1.89 0 1 1-.001-3.78 1.89 1.89 0 0 1 0 3.78m1.627 11.925H3.26V8.242h3.26zM20.357.002H1.622A1.603 1.603 0 0 0 0 1.585v18.811c.01.886.737 1.596 1.622 1.586h18.734a1.61 1.61 0 0 0 1.628-1.586V1.585A1.61 1.61 0 0 0 20.356 0"/><path d="M24.486 19.142a1.498 1.498 0 1 0 .03 0zm.035 2.825c-.726.012-1.359-.566-1.37-1.291a1.314 1.314 0 1 1 2.628-.044v.022a1.286 1.286 0 0 1-1.258 1.313h-.034z"/></svg>