<svg width="1360" height="268" viewBox="0 0 1360 268" fill="none" xmlns="http://www.w3.org/2000/svg">
<path d="M0 265.723L0.546073 140.275L0 44.7479C0 43.1009 1.09215 42.5519 2.18429 42.5519H37.133C37.133 42.5519 39.3173 43.1009 39.3173 44.7479L38.2251 65.6101C49.9657 49.1399 67.7131 39.2578 90.3751 39.2578C136.791 39.2578 161.638 77.4138 161.638 126.824C161.638 176.235 134.334 215.489 89.283 215.489C67.44 215.489 50.2387 206.979 38.7712 191.058L39.3173 265.723C39.3173 267.37 38.2251 267.919 37.133 267.919H2.18429C2.18429 267.919 0 267.37 0 265.723ZM121.774 129.02C121.774 89.7664 108.122 66.4336 79.7267 66.4336C53.2421 66.4336 38.2251 86.4724 37.6791 125.726C37.406 165.529 52.15 188.313 78.9076 188.313C107.303 188.313 121.501 165.529 121.501 129.02H121.774Z" fill="url(#paint0_linear_2116_3021)"/>
<path d="M170.103 149.054V114.741L169.557 44.743C169.557 43.096 170.649 42.547 171.741 42.547H207.236C207.236 42.547 209.42 43.096 209.42 44.743L208.874 114.741V148.231C208.874 173.211 221.707 186.387 239.727 186.387C259.386 186.387 277.952 168.818 281.229 134.231V114.467L280.683 44.4685C280.683 42.8215 281.775 42.2725 282.867 42.2725H318.908C318.908 42.2725 321.092 42.8215 321.092 44.4685L320.546 121.055V209.17C320.546 209.17 319.454 211.367 318.362 211.367H284.505C284.505 211.367 282.321 210.818 282.321 209.17L283.413 185.838C272.491 202.033 253.379 215.484 227.986 215.484C193.038 215.484 170.376 191.877 170.376 148.78L170.103 149.054Z" fill="url(#paint1_linear_2116_3021)"/>
<path d="M334.197 209.721L335.289 125.997L334.197 44.7444C334.197 43.0974 335.289 42.5484 336.381 42.5484H371.056C371.056 42.5484 373.241 43.0974 373.241 44.7444L371.876 72.4693C384.435 51.607 406.551 40.9014 430.578 40.9014C433.855 40.9014 437.404 41.4504 440.408 42.2739C441.773 42.2739 442.319 43.3719 442.319 44.4699V69.4497C442.319 69.4497 441.227 71.6457 440.135 71.6457C437.404 71.3712 434.674 71.0967 431.671 71.0967C399.998 71.0967 374.333 89.763 372.968 128.468V209.721C372.968 209.721 372.422 211.917 371.056 211.917H336.381C336.381 211.917 334.197 211.368 334.197 209.721Z" fill="url(#paint2_linear_2116_3021)"/>
<path d="M439.05 127.647C439.05 74.3935 469.904 38.4336 521.234 38.4336C572.565 38.4336 603.145 73.57 603.965 131.49C603.965 133.137 602.872 133.686 601.78 133.686H478.368C480.006 170.744 494.75 188.861 522.873 188.861C544.17 188.861 557.275 177.881 561.917 155.647C562.463 153.999 563.282 153.45 564.647 153.45H597.958C599.596 153.45 600.142 153.999 599.869 155.372C595.5 188.861 568.47 215.763 522.6 215.763C468.265 215.763 439.05 179.254 439.05 127.647ZM479.733 108.432H561.644C560.006 85.3737 547.446 65.0604 521.781 65.0604C497.753 65.0604 483.828 80.4326 479.733 108.432Z" fill="url(#paint3_linear_2116_3021)"/>
<path d="M676.312 209.72L676.858 148.231V44.7433C676.858 44.7433 677.405 42.5472 679.043 42.5472H712.353C713.991 42.5472 714.538 43.0962 714.538 44.7433L713.991 68.076C725.186 50.5078 740.749 38.4297 763.957 38.4297C787.165 38.4297 804.913 49.4098 812.285 72.4681C825.663 48.0373 842.319 38.4297 864.435 38.4297C898.291 38.4297 917.95 59.5664 917.95 105.134V147.957L918.496 209.445C918.496 211.092 917.404 211.641 916.312 211.641H880.817C879.179 211.641 878.633 211.092 878.633 209.445V147.957L878.906 105.683C878.906 79.0562 868.803 67.527 852.148 67.527C837.131 67.527 822.387 83.4482 817.472 111.997V209.445C817.745 211.092 817.199 211.641 815.561 211.641H780.066C780.066 211.641 777.882 211.092 777.882 209.445L778.428 147.957V105.683C778.428 79.0562 768.326 67.527 751.671 67.527C735.015 67.527 719.179 86.1933 715.903 119.683V147.957L716.449 209.445C716.449 211.092 715.357 211.641 714.264 211.641H678.224C678.224 211.641 676.039 211.092 676.039 209.445L676.312 209.72Z" fill="url(#paint4_linear_2116_3021)"/>
<path d="M926.687 127.641C926.687 78.505 953.445 38.9766 998.769 38.9766C1021.16 38.9766 1038.09 47.4862 1049.55 63.9564L1049.01 44.4666C1049.01 42.8196 1050.1 42.2706 1051.19 42.2706H1086.14C1086.14 42.2706 1088.32 42.8196 1088.32 44.4666L1087.78 125.994L1088.32 209.169C1088.32 210.816 1087.23 211.365 1086.14 211.365H1051.46C1051.46 211.365 1049.28 210.816 1049.28 209.169L1049.83 188.032C1038.36 204.777 1020.61 214.659 997.677 214.659C951.26 214.659 926.687 176.503 926.687 127.092V127.641ZM1050.65 128.739C1050.92 88.6617 1035.9 66.1524 1009.14 65.8779C980.748 65.6034 966.551 88.6617 966.551 125.445C966.551 164.974 980.748 188.581 1008.6 188.306C1035.08 188.306 1050.65 168.268 1050.92 128.739H1050.65Z" fill="url(#paint5_linear_2116_3021)"/>
<path d="M1117.54 163.878V70.8219H1098.15C1096.79 70.8219 1095.97 69.7238 1095.97 68.6258V45.0185C1095.97 45.0185 1097.06 42.8225 1098.15 42.8225H1117.81V2.19603C1117.54 0.549007 1118.36 0 1119.72 0H1154.67C1154.67 0 1156.86 0.549007 1156.86 2.19603V42.2735H1195.63C1196.99 42.2735 1197.81 43.3715 1197.81 44.4695V68.0768C1197.81 68.0768 1196.72 70.2729 1195.63 70.2729H1156.58V162.506C1156.58 180.349 1163.68 185.839 1176.24 185.839C1183.89 185.839 1189.89 184.466 1194.81 183.643C1196.45 183.094 1197.54 183.917 1197.54 185.29V206.976C1197.54 206.976 1196.99 209.172 1195.9 209.721C1187.44 212.466 1177.61 214.662 1168.05 214.662C1141.57 214.662 1117.27 201.485 1117.27 163.604L1117.54 163.878Z" fill="url(#paint6_linear_2116_3021)"/>
<path d="M1195.09 127.647C1195.09 74.3935 1225.94 38.4336 1277.27 38.4336C1328.6 38.4336 1359.18 73.57 1360 131.49C1360 133.137 1358.91 133.686 1357.82 133.686H1234.4C1236.04 170.744 1250.79 188.861 1278.91 188.861C1300.21 188.861 1313.31 177.881 1317.95 155.647C1318.5 153.999 1319.32 153.45 1320.68 153.45H1353.99C1355.63 153.45 1356.18 153.999 1355.9 155.372C1351.54 188.861 1324.51 215.763 1278.64 215.763C1224.3 215.763 1195.09 179.254 1195.09 127.647ZM1235.77 108.432H1317.68C1316.04 85.3737 1303.48 65.0604 1277.82 65.0604C1253.79 65.0604 1239.86 80.4326 1235.77 108.432Z" fill="url(#paint7_linear_2116_3021)"/>
<defs>
<linearGradient id="paint0_linear_2116_3021" x1="80.8188" y1="267.919" x2="80.8188" y2="39.2578" gradientUnits="userSpaceOnUse">
<stop stop-color="#09090A"/>
<stop offset="1" stop-color="#131417"/>
</linearGradient>
<linearGradient id="paint1_linear_2116_3021" x1="245.324" y1="215.484" x2="245.324" y2="42.2725" gradientUnits="userSpaceOnUse">
<stop stop-color="#09090A"/>
<stop offset="1" stop-color="#131417"/>
</linearGradient>
<linearGradient id="paint2_linear_2116_3021" x1="388.258" y1="211.917" x2="388.258" y2="40.9014" gradientUnits="userSpaceOnUse">
<stop stop-color="#09090A"/>
<stop offset="1" stop-color="#131417"/>
</linearGradient>
<linearGradient id="paint3_linear_2116_3021" x1="521.507" y1="215.763" x2="521.507" y2="38.4336" gradientUnits="userSpaceOnUse">
<stop stop-color="#09090A"/>
<stop offset="1" stop-color="#131417"/>
</linearGradient>
<linearGradient id="paint4_linear_2116_3021" x1="797.268" y1="211.641" x2="797.268" y2="38.4297" gradientUnits="userSpaceOnUse">
<stop stop-color="#09090A"/>
<stop offset="1" stop-color="#131417"/>
</linearGradient>
<linearGradient id="paint5_linear_2116_3021" x1="1007.51" y1="214.659" x2="1007.51" y2="38.9766" gradientUnits="userSpaceOnUse">
<stop stop-color="#09090A"/>
<stop offset="1" stop-color="#131417"/>
</linearGradient>
<linearGradient id="paint6_linear_2116_3021" x1="1146.89" y1="214.662" x2="1146.89" y2="0" gradientUnits="userSpaceOnUse">
<stop stop-color="#09090A"/>
<stop offset="1" stop-color="#131417"/>
</linearGradient>
<linearGradient id="paint7_linear_2116_3021" x1="1277.54" y1="215.763" x2="1277.54" y2="38.4336" gradientUnits="userSpaceOnUse">
<stop stop-color="#09090A"/>
<stop offset="1" stop-color="#131417"/>
</linearGradient>
</defs>
</svg>
