<svg width="123" height="143" viewBox="0 0 123 143" fill="none" xmlns="http://www.w3.org/2000/svg">
<g filter="url(#filter0_d_4019_2770)">
<path d="M43.1484 4.49747C44.4893 4.56329 45.7089 5.08441 46.6836 5.90665L46.8887 6.08731L46.9932 6.1879L47.0264 6.2211L55.9111 15.2338C59.7129 15.498 68.5306 16.7132 77.7217 22.2719L78.4541 22.7231C85.9789 27.4521 92.0687 34.0886 96.5801 42.3842C96.5823 42.3883 96.5847 42.3928 96.5869 42.3969L96.6094 42.4379L96.7051 42.6313L96.7246 42.6723L96.7744 42.7856C96.7785 42.7952 96.8032 42.8539 96.834 42.9281C96.8717 43.0189 96.9238 43.1466 96.9893 43.309C97.1204 43.6341 97.3045 44.0987 97.5273 44.6889C97.9729 45.8688 98.5771 47.5525 99.2344 49.6254C100.546 53.7619 102.084 59.4945 102.991 65.891C104.06 73.4327 104.071 80.5028 102.951 86.8725C101.536 94.927 98.3098 101.874 93.2607 107.386C93.2158 107.436 93.1698 107.485 93.1221 107.532L91.2334 109.396C90.5785 110.042 89.6953 110.405 88.7754 110.405H31.9365C30.1197 110.534 28.5063 109.247 28.2295 107.445L28.0996 106.603V106.602C28.0074 106.002 27.5243 102.025 29.459 96.2738V96.2729C30.5849 92.9272 32.3041 89.6571 34.5293 86.5385L34.5303 86.5375C37.2975 82.6641 40.8699 79.0014 45.1133 75.6313C45.2003 75.5603 45.2904 75.4933 45.3838 75.4311L45.4219 75.4066L45.4424 75.393C45.407 75.4162 47.7471 73.8674 50.2471 71.4877C52.8728 68.9882 55.0777 66.1262 55.6172 63.5785L55.6182 63.5727C55.7253 63.0707 55.7552 62.6138 55.7275 62.2006C55.5042 62.4297 55.2756 62.6628 55.0391 62.8959C50.6675 67.2036 46.0591 70.1335 41.3184 71.0902L41.3174 71.0893C41.194 71.1146 41.024 71.1495 40.8174 71.184H40.8164L40.7412 71.1967C40.5513 71.2283 40.3586 71.2445 40.166 71.2445H40.0869C40.0505 71.2457 38.1658 71.2783 37.1348 71.3354C37.0743 71.3396 37.0138 71.3421 36.9531 71.3432C37.2599 71.3244 34.8039 71.293 32.626 75.1137C32.423 75.4846 31.6265 76.8999 30.5469 78.2318L30.5479 78.2328L30.251 78.599C30.1522 78.7209 30.0443 78.8336 29.9316 78.9398C29.4819 79.426 28.9999 79.8796 28.4834 80.267C28.4734 80.2745 28.4632 80.2821 28.4531 80.2895L28.1699 80.4984C27.5266 80.9701 26.7412 81.2078 25.9443 81.1723L25.5908 81.1566L25.5781 81.1557C25.1949 81.1372 21.2921 80.9385 17.0664 79.7768C14.9534 79.1958 12.6038 78.333 10.5332 77.0258C8.5038 75.7446 6.53097 73.8959 5.50098 71.269C5.00948 70.1847 2.97416 65.035 6.60547 60.0932L6.61133 60.0844C8.18442 57.9567 11.0712 54.0043 13.6904 50.3031C15.0013 48.4508 16.2333 46.6786 17.1963 45.2367C17.6785 44.5148 18.0817 43.8932 18.3887 43.3959C18.5419 43.1476 18.6635 42.9434 18.7549 42.7816C18.8002 42.7015 18.8341 42.6377 18.8594 42.5893C18.8718 42.5654 18.8813 42.5467 18.8877 42.5336C18.8941 42.5206 18.8969 42.515 18.8965 42.516L18.9102 42.4848C18.9429 42.4083 21.1117 37.5355 23.1523 31.1283C23.5627 29.4964 25.2988 24.7378 31.8877 19.9145C31.9615 19.8531 32.5852 19.3341 33.2383 18.4887C33.9867 17.5197 34.5932 16.3568 34.7109 15.1283L34.7207 15.0473L34.7842 14.5434C34.8736 13.8958 35.0446 12.8531 35.335 11.7387C35.5287 10.9952 35.7937 10.1468 36.1592 9.3295C36.4864 8.59788 36.9789 7.70409 37.7207 6.93594C37.9382 6.69785 38.4746 6.14061 39.2588 5.62442C40.0217 5.12234 41.2747 4.49063 42.8594 4.49063L43.1484 4.49747Z" fill="url(#paint0_linear_4019_2770)" stroke="white" stroke-width="7" stroke-linejoin="round"/>
<path d="M42.8574 3.5C44.63 3.5 46.2641 4.17361 47.542 5.34863L47.543 5.34766L47.5781 5.37891L47.6982 5.49414C47.715 5.51092 47.7306 5.52878 47.7471 5.5459L56.3477 14.2744C57.8516 14.3917 59.9524 14.6424 62.4609 15.1807H62.4619C67.7003 16.3063 72.6907 18.2243 77.3086 20.8867L78.2275 21.4297L78.9746 21.8896C86.6318 26.7016 92.8323 33.448 97.4248 41.8799L97.4697 41.959L97.5693 42.1504C97.6005 42.215 97.6292 42.2812 97.6562 42.3477L97.6914 42.4326H97.6904C97.9044 42.9354 98.9356 45.4211 100.154 49.252H100.153C101.364 53.0547 103.011 59.0088 103.968 65.7578L104.158 67.1855C105.049 74.299 104.989 80.9829 103.925 87.0498L103.924 87.0508C102.477 95.2939 99.1683 102.411 93.9912 108.063L93.9902 108.064L93.8496 108.213L93.8145 108.247C93.8098 108.252 93.8055 108.257 93.8008 108.262L92.2207 109.822L92.2148 109.828L91.6348 110.398C90.9801 111.042 90.098 111.403 89.1797 111.403H30.8291C29.1012 111.403 27.6314 110.142 27.3691 108.435L27.1113 106.751C27.11 106.742 27.1087 106.733 27.1074 106.725C27.0302 106.195 26.482 101.978 28.5117 95.9531C29.6686 92.518 31.4313 89.1593 33.7188 85.959C36.5361 82.0137 40.1749 78.2826 44.4912 74.8555L44.5098 74.8398L44.583 74.7832L44.7988 74.627L44.874 74.5771L44.9609 74.5215C44.8261 74.6058 47.0986 73.1217 49.5547 70.7822L49.5557 70.7812C51.7387 68.7035 53.1409 66.8326 53.9297 65.2852C53.4745 65.6873 53.003 66.0888 52.5146 66.4824C49.5512 68.8712 45.7753 71.2025 41.5146 72.0615L41.5137 72.0605C41.3584 72.0923 41.198 72.1241 41.0156 72.1562C41.0047 72.1582 40.9933 72.1593 40.9824 72.1611L40.8311 72.1865C40.6644 72.2143 40.496 72.2299 40.3271 72.2334L40.209 72.2354C40.1918 72.2359 40.1764 72.2371 40.167 72.2373C40.1428 72.2379 40.1128 72.2386 40.083 72.2393C40.0225 72.2406 39.9348 72.242 39.834 72.2441C39.6281 72.2485 39.3466 72.2548 39.0332 72.2627C38.3927 72.2788 37.6662 72.3011 37.1758 72.3291C37.1623 72.3299 37.1483 72.3314 37.1348 72.332L37.0654 72.335C37.0641 72.335 37.0628 72.3349 37.0615 72.335C36.9803 72.349 36.6712 72.4126 36.2373 72.6445C35.6091 72.9804 34.5458 73.7583 33.4932 75.6016C33.3163 75.9223 32.6633 77.088 31.751 78.3057L31.3174 78.8613L30.7217 79.5957C30.5376 79.8227 30.3262 80.0219 30.0967 80.1934C29.7623 80.514 29.4177 80.8103 29.0635 81.0742L29.0518 81.083L28.4844 81.5029C27.8391 81.9796 27.0495 82.2194 26.248 82.1836L25.5439 82.1523C25.5221 82.1514 25.5003 82.1498 25.4785 82.1484C25.4786 82.1485 25.1701 82.1326 24.7207 82.0967C24.2646 82.0602 23.6357 82.0013 22.8838 81.9092C21.3889 81.726 19.3665 81.4054 17.2236 80.8477C14.7957 80.2171 12.586 79.3761 10.7031 78.2998L10.3311 78.0811C7.70084 76.4975 5.64204 74.3603 4.57227 71.6221C4.02256 70.3763 1.93644 64.9019 5.72363 59.6279C5.75491 59.5815 5.78674 59.5353 5.82031 59.4902C7.99268 56.5529 10.8833 52.5734 13.3389 49.0869C14.5687 47.3408 15.6781 45.7347 16.5303 44.4521C16.9571 43.8098 17.3077 43.2653 17.5723 42.835C17.7044 42.6201 17.8075 42.4458 17.8838 42.3105C17.9634 42.1694 17.9921 42.1084 17.9922 42.1084C17.9967 42.0982 18.0031 42.0846 18.0107 42.0674C18.029 42.026 18.0554 41.9665 18.0889 41.8896C18.1559 41.7356 18.2514 41.5121 18.3721 41.2266C18.6135 40.6554 18.9536 39.8349 19.3555 38.8174C20.1534 36.7971 21.1904 34.0117 22.1963 30.8594C22.4046 30.0419 22.8874 28.6139 23.9648 26.8252L23.9658 26.8232C25.6889 23.9677 28.1898 21.4012 31.2695 19.1396C31.3729 19.0525 31.9101 18.5899 32.4658 17.8662C33.1276 17.0042 33.6268 16.0196 33.7217 15.0342C33.727 14.9789 33.7352 14.9241 33.7432 14.8691L33.8662 13.9951C33.9489 13.4717 34.0772 12.7551 34.2607 11.9785C34.7729 9.81223 35.5483 7.74983 37.0127 6.24121C37.4902 5.72016 39.6216 3.50006 42.8574 3.5ZM43.1094 13.6367C43.0746 13.7667 43.0415 13.902 43.0088 14.041C42.8885 14.552 42.8004 15.0435 42.7422 15.4111C42.7135 15.5925 42.6926 15.7385 42.6797 15.835C42.6733 15.8829 42.6686 15.9185 42.666 15.9395C42.6647 15.9498 42.6644 15.957 42.6641 15.96L42.6631 15.9609C42.3318 19.2447 40.7946 21.8267 39.4805 23.498C38.8065 24.3552 38.1505 25.0246 37.6553 25.4873C37.4062 25.72 37.1935 25.9044 37.0342 26.0371C36.9545 26.1034 36.8877 26.1573 36.8359 26.1982C36.8101 26.2187 36.7877 26.2359 36.7695 26.25C36.7605 26.257 36.7522 26.2631 36.7451 26.2686C36.7416 26.2713 36.7384 26.2741 36.7354 26.2764C36.7339 26.2775 36.7328 26.2792 36.7314 26.2803L36.7295 26.2812C36.7287 26.2819 36.7283 26.2822 35.5283 24.6953L35.5273 24.6963L36.7275 26.2832C36.7106 26.296 36.693 26.3088 36.6758 26.3213C33.8634 28.3679 32.4029 30.2384 31.6631 31.4639C31.2904 32.0812 31.0914 32.5513 30.9932 32.8193C30.9441 32.9533 30.9199 33.0385 30.9121 33.0674C30.9083 33.0817 30.9079 33.082 30.9111 33.0674C30.9128 33.0601 30.915 33.0489 30.918 33.0342C30.9195 33.0268 30.922 33.0181 30.9238 33.0088C30.9247 33.0043 30.9249 32.9991 30.9258 32.9941L30.9287 32.9824L30.9277 32.9814C30.9013 33.1257 30.8666 33.2684 30.8223 33.4082C29.7008 36.9412 28.5476 40.0282 27.6748 42.2324C27.2379 43.3358 26.8701 44.2217 26.6094 44.8359C26.479 45.1431 26.3749 45.3828 26.3027 45.5479C26.2668 45.6301 26.2384 45.6938 26.2188 45.7383C26.2089 45.7605 26.2009 45.7786 26.1953 45.791C26.1927 45.797 26.1911 45.802 26.1895 45.8057C26.1886 45.8075 26.1871 45.8093 26.1865 45.8105V45.8115L26.1855 45.8125L24.3682 44.9971V44.998L24.0068 44.8359L26.1855 45.8135C26.1828 45.8197 26.1796 45.8258 26.1768 45.832C25.6975 46.884 24.5416 48.663 23.3379 50.4414C22.0551 52.3367 20.4818 54.5707 18.9629 56.6953C17.4414 58.8236 15.9624 60.8587 14.8652 62.3604C14.3164 63.1115 13.8621 63.7299 13.5449 64.1611C13.3864 64.3767 13.2626 64.546 13.1777 64.6611C13.1353 64.7187 13.1022 64.7631 13.0801 64.793C13.0692 64.8077 13.0603 64.8185 13.0547 64.8262C13.0535 64.8278 13.0517 64.8288 13.0508 64.8301L13.0518 64.8311C12.521 65.5531 12.4411 66.2809 12.5176 66.9404C12.5569 67.2796 12.6367 67.5703 12.7041 67.7666C12.7368 67.8618 12.7642 67.927 12.7764 67.9551C12.7785 67.9599 12.7802 67.9635 12.7812 67.9658C12.7797 67.9624 12.7768 67.9562 12.7725 67.9473C12.7703 67.9428 12.7676 67.9375 12.7646 67.9316C12.7632 67.9288 12.7614 67.926 12.7598 67.9229L12.7559 67.915H12.7549C12.819 68.0412 12.8764 68.1707 12.9248 68.3037C13.1458 68.911 13.7275 69.6346 14.9707 70.3828C16.2011 71.1233 17.7933 71.7108 19.4922 72.1533C21.1671 72.5895 22.8011 72.8482 24.0293 72.9971C24.1823 73.0156 24.3286 73.0298 24.4668 73.0449C24.7686 72.6549 25.0506 72.2338 25.2715 71.876C25.3935 71.6783 25.4903 71.513 25.5537 71.4014C25.5852 71.3458 25.6075 71.304 25.6211 71.2793L25.6338 71.2578L25.6328 71.2588C25.648 71.2302 25.6637 71.2019 25.6797 71.1738C29.7575 64.0019 35.4842 63.3926 36.7412 63.3574C37.3663 63.3246 38.1781 63.2993 38.8154 63.2832C39.151 63.2747 39.4495 63.268 39.6641 63.2637C39.6858 63.2632 39.7066 63.2621 39.7266 63.2617C39.7314 63.2607 39.7364 63.2607 39.7412 63.2598C43.095 62.5847 46.5702 60.0288 49.4326 57.208C50.809 55.8516 51.9391 54.5389 52.7236 53.5664C53.1141 53.0823 53.415 52.6871 53.6143 52.4189C53.7136 52.2853 53.7874 52.1831 53.834 52.1182C53.8573 52.0857 53.8744 52.0622 53.8838 52.0488C53.8877 52.0432 53.8901 52.0392 53.8916 52.0371C54.4896 51.1767 55.4418 50.6295 56.4863 50.5459C57.5316 50.4622 58.5597 50.8521 59.2871 51.6074C61.0456 53.4336 62.0865 55.6961 62.6768 57.3096C62.9833 58.1475 63.1959 58.8874 63.333 59.4238C63.4018 59.6931 63.4523 59.9151 63.4873 60.0771C63.5048 60.1583 63.5183 60.2252 63.5283 60.2754C63.5333 60.3003 63.5378 60.3211 63.541 60.3379C63.5426 60.3463 63.5437 60.3541 63.5449 60.3604C63.5455 60.3635 63.5464 60.3666 63.5469 60.3691C63.5471 60.3702 63.5477 60.3711 63.5479 60.3721V60.374C63.548 60.3747 63.5477 60.374 61.5908 60.7334V60.7344L63.5479 60.376C63.5497 60.3863 63.5519 60.3969 63.5537 60.4072C63.8443 62.0749 63.7639 63.7034 63.4375 65.2383C62.3819 70.2276 58.6791 74.5101 55.7568 77.293C54.2298 78.7471 52.7666 79.9306 51.6855 80.751C51.143 81.1627 50.6908 81.4868 50.3691 81.7119C50.2082 81.8246 50.0792 81.9134 49.9873 81.9756C49.9859 81.9766 49.9838 81.9766 49.9824 81.9775C41.8789 88.4426 38.4752 94.5501 37.0361 98.8252C36.5689 100.213 36.302 101.429 36.1523 102.427H86.9277L87.4219 101.938C95.9485 92.5652 96.7732 79.0058 95.0742 67.0215C94.2359 61.1085 92.8129 55.8066 91.5947 51.9766C90.9871 50.0661 90.4338 48.5325 90.0361 47.4854C89.8375 46.9622 89.6781 46.5612 89.5703 46.2959C89.5324 46.2026 89.5001 46.1264 89.4756 46.0674C84.9075 37.7311 79.1217 32.4671 73.5811 29.1162H73.5801C63.9969 23.3191 54.9836 23.1563 54.082 23.1562H53.9561C53.019 23.1562 52.1207 22.7797 51.4629 22.1123L43.1094 13.6367ZM42.6621 15.96L42.6641 15.959V15.958C42.6641 15.958 42.6639 15.9573 42.6621 15.957V15.96ZM43.8818 12.0068C43.884 12.0038 43.8865 12.0011 43.8887 11.998C43.8979 11.9848 43.9234 11.948 43.958 11.8945L43.8818 12.0068Z" fill="url(#paint1_linear_4019_2770)" stroke="white" stroke-width="7" stroke-linejoin="round"/>
<path d="M60.96 41.3934C62.8405 41.2072 64.5296 42.548 64.7754 44.4217C64.8204 44.7647 64.8406 45.1042 64.8418 45.4383C64.8639 45.8532 64.8927 46.4163 64.9189 47.0916C64.9764 48.5716 65.0291 50.6058 65.0088 52.8123C64.9885 55.0098 64.8958 57.4313 64.6514 59.6697C64.4161 61.8245 64.0095 64.1378 63.2139 65.9295C62.4864 67.5674 60.6392 68.3909 58.9346 67.8377C57.283 67.3015 56.2816 65.6403 56.5605 63.9432L56.6465 63.492C56.7581 62.8331 56.7625 62.2108 56.6611 61.618C56.6578 61.6018 56.6528 61.5788 56.6465 61.5496C56.6281 61.4646 56.5971 61.3277 56.5518 61.1502C56.4603 60.7922 56.3138 60.2836 56.1035 59.7088C55.6601 58.4967 55.0313 57.2732 54.2451 56.4568C52.9341 55.0954 52.9414 52.9389 54.2607 51.5858L54.2598 51.5867H54.2588L54.2832 51.5613C54.308 51.5351 54.3499 51.4917 54.4053 51.4315C54.5163 51.3106 54.6819 51.1257 54.8828 50.8895C55.2888 50.4121 55.817 49.7488 56.3223 48.994C56.8353 48.2275 57.2715 47.4448 57.5479 46.7254C57.7562 46.183 57.8259 45.7978 57.8389 45.5516C57.8319 45.4275 57.8267 45.3277 57.8223 45.2547C57.8192 45.2045 57.816 45.1666 57.8145 45.1424C57.8137 45.1308 57.8138 45.1223 57.8135 45.117C57.8133 45.1143 57.8126 45.1121 57.8125 45.1111L57.8057 44.9354C57.774 43.1243 59.138 41.5738 60.96 41.3934Z" fill="url(#paint2_linear_4019_2770)" stroke="white" stroke-width="7" stroke-linejoin="round"/>
<path d="M72.7412 23.8368C73.8557 22.541 75.7435 22.2396 77.2061 23.1239C83.7627 27.0892 90.4928 33.2768 95.708 42.8641L95.4951 42.9794C95.7135 43.0652 95.8378 43.1292 95.8389 43.1317C95.841 43.1365 95.8443 43.1441 95.8457 43.1473C95.8481 43.1529 95.8508 43.1579 95.8525 43.162C95.8564 43.1709 95.861 43.1819 95.8662 43.1942C95.8768 43.219 95.8913 43.2532 95.9092 43.2958C95.9449 43.381 95.9953 43.5023 96.0586 43.6581C96.1854 43.97 96.3642 44.421 96.583 44.9969C97.0205 46.1486 97.6173 47.8039 98.2686 49.8514C99.5683 53.9378 101.1 59.6322 102.008 66.035C103.797 78.6555 103.285 94.9744 92.5283 106.724C92.4889 106.767 92.4478 106.808 92.4062 106.849L90.8262 108.411C90.1711 109.058 89.2871 109.421 88.3662 109.421H64.3789C63.1783 109.421 62.0613 108.806 61.4199 107.791C60.7786 106.776 60.7022 105.502 61.2178 104.418C64.4923 97.5312 70.7401 89.2713 75.9795 82.9042C78.6323 79.6804 81.0882 76.8689 82.8809 74.8632C83.7776 73.8598 84.5104 73.0565 85.0205 72.5018C85.2755 72.2246 85.4755 72.0092 85.6123 71.8622C85.6807 71.7887 85.7334 71.7319 85.7695 71.6932C85.7876 71.6739 85.8018 71.6586 85.8115 71.6483C85.8161 71.6434 85.8196 71.6394 85.8223 71.6366C85.8236 71.6352 85.8254 71.6345 85.8262 71.6337L85.8271 71.6327C85.8337 71.6383 85.9354 71.7333 87.584 73.285L85.8271 71.6317C85.8528 71.6045 85.8788 71.5771 85.9053 71.5507C88.6 68.8657 89.5269 65.2283 89.0674 60.7206C88.6012 56.148 86.7249 51.0543 84.2686 46.1503C81.8322 41.2863 78.9361 36.8263 76.6318 33.5653C75.4837 31.9405 74.492 30.6257 73.791 29.7225C73.4409 29.2714 73.1633 28.9241 72.9766 28.6923C72.8832 28.5763 72.8127 28.4887 72.7666 28.4325C72.7436 28.4044 72.7262 28.3845 72.7158 28.3719C72.7106 28.3657 72.707 28.3606 72.7051 28.3583C72.7043 28.3574 72.7042 28.3565 72.7041 28.3563C71.6118 27.0426 71.6271 25.1323 72.7412 23.8368Z" fill="url(#paint3_linear_4019_2770)" stroke="white" stroke-width="7" stroke-linejoin="round"/>
<path d="M34.3594 60.0643C37.9385 59.3765 40.9526 61.4663 43.2598 64.6219C43.961 65.5811 44.1284 66.8308 43.7031 67.9403C43.2778 69.0498 42.318 69.8674 41.1553 70.1122C40.9885 70.1473 40.8075 70.182 40.6074 70.2128C40.4509 70.2369 40.2922 70.2501 40.1338 70.2528H40.1299C40.1264 70.2529 40.1205 70.2537 40.1133 70.2538C40.0988 70.254 40.077 70.2542 40.0488 70.2548C39.9925 70.2558 39.9102 70.2576 39.8076 70.2596C39.6018 70.2638 39.3152 70.2701 38.9941 70.2782C38.3398 70.2947 37.583 70.3181 37.0615 70.3466C36.9871 70.3506 36.9125 70.3512 36.8379 70.3505V70.3514H36.8926C36.9084 70.3513 36.9204 70.3507 36.9287 70.3505C36.9313 70.3504 36.9337 70.3505 36.9355 70.3505C36.9119 70.3523 36.8364 70.3591 36.7188 70.3807C36.4818 70.4243 36.0791 70.5258 35.5811 70.7587C34.6318 71.2026 33.1506 72.2083 31.7812 74.5995C31.7744 74.6121 31.7668 74.6271 31.7578 74.6434C31.729 74.6959 31.6891 74.7672 31.6396 74.8544C31.5408 75.0284 31.4011 75.2685 31.2275 75.5497C30.8874 76.1006 30.3853 76.8614 29.7822 77.6063C28.7371 78.8972 26.9292 79.2759 25.4541 78.5126C23.9791 77.7492 23.2434 76.0546 23.6934 74.4559L27.0625 75.4042C23.851 74.4997 23.7011 74.4569 23.6943 74.454V74.451C23.6948 74.4494 23.6956 74.4475 23.6963 74.4452C23.6976 74.4406 23.6992 74.4346 23.7012 74.4276C23.7052 74.4136 23.7111 74.395 23.7178 74.3719C23.7312 74.3256 23.7502 74.2611 23.7744 74.1805C23.8229 74.0193 23.8926 73.7914 23.9834 73.5106C24.1645 72.9503 24.4306 72.1698 24.7764 71.2704C25.4539 69.5079 26.4963 67.1338 27.8838 65.0585C29.1565 63.1548 31.2692 60.6583 34.3594 60.0643Z" fill="url(#paint4_linear_4019_2770)" stroke="white" stroke-width="7" stroke-linejoin="round"/>
<path d="M95.8525 101.428C96.9554 101.428 100.298 101.616 103.861 103.777L103.86 103.778C108.349 106.497 111.173 111.017 112.555 116.682L112.684 117.234L112.685 117.236C112.766 117.601 113.877 122.774 113.982 129.948L113.998 130.954C114.013 131.892 113.651 132.797 112.993 133.465C112.335 134.133 111.437 134.509 110.499 134.509H16.2578C16.1986 134.512 16.139 134.512 16.0791 134.512C14.157 134.497 12.6067 132.935 12.6064 131.013V131.009L12.6084 130.957H12.6064L12.623 129.951C12.7288 122.782 13.839 117.604 13.9238 117.231C15.2572 111.308 18.1115 106.584 22.7441 103.778V103.777C26.3076 101.616 29.65 101.428 30.7529 101.428C30.7836 101.428 30.8453 101.428 30.9033 101.429C30.9114 101.429 30.9236 101.431 30.9395 101.431H95.6543C95.6959 101.43 95.7666 101.428 95.8525 101.428Z" fill="url(#paint5_linear_4019_2770)" stroke="white" stroke-width="7" stroke-linejoin="round"/>
<path d="M30.6797 109.419H30.6895C30.6932 109.419 30.6968 109.42 30.7002 109.42C30.7073 109.42 30.714 109.42 30.7197 109.421C30.7308 109.421 30.7392 109.422 30.7451 109.422C30.7469 109.422 30.7487 109.422 30.75 109.422C30.4946 109.422 28.7614 109.476 26.8838 110.613C25.1282 111.677 22.8616 113.914 21.7207 118.973V118.973C21.7197 118.978 21.7178 118.988 21.7148 119.002C21.709 119.03 21.6994 119.076 21.6865 119.139C21.6607 119.267 21.6219 119.466 21.5742 119.728C21.4788 120.254 21.3478 121.036 21.2129 122.027C21.0472 123.245 20.8775 124.771 20.7598 126.519H105.844C105.726 124.771 105.557 123.245 105.392 122.027C105.257 121.036 105.126 120.254 105.03 119.728C104.983 119.466 104.944 119.267 104.918 119.139C104.905 119.076 104.896 119.03 104.89 119.002C104.889 118.997 104.887 118.993 104.887 118.989L104.776 118.521C103.605 113.778 101.423 111.643 99.7207 110.612C97.8473 109.477 96.1173 109.422 95.8555 109.422C95.8486 109.422 95.8367 109.422 95.8223 109.423C95.8135 109.423 95.7994 109.423 95.7832 109.424C95.7685 109.424 95.742 109.425 95.709 109.425H30.8955C30.8232 109.425 30.7509 109.422 30.6787 109.418L30.6797 109.419ZM95.8809 109.421C95.8786 109.421 95.8692 109.421 95.8584 109.422C95.8593 109.422 95.8603 109.422 95.8613 109.422C95.868 109.422 95.8753 109.421 95.8818 109.421H95.8809ZM95.6592 100.444C95.7672 100.442 95.8482 100.441 95.8535 100.441C96.9794 100.441 100.365 100.625 104.023 102.721L104.379 102.93L104.383 102.932C106.551 104.248 108.407 106.014 109.9 108.146L110.226 108.625C111.822 111.047 112.956 113.888 113.659 117.02C113.664 117.044 113.668 117.067 113.673 117.091C113.825 117.792 114.747 122.322 114.949 128.598L114.98 129.937V129.938L115.009 131.951C115.022 132.888 114.659 133.791 114.001 134.458C113.343 135.125 112.445 135.5 111.509 135.5H15.1045C14.1677 135.5 13.27 135.124 12.6123 134.457C11.9548 133.79 11.5914 132.888 11.6045 131.951L11.6328 129.938V129.937C11.733 123.025 12.764 117.919 12.9355 117.118C12.9422 117.084 12.9474 117.049 12.9551 117.015C13.7068 113.684 14.9434 110.673 16.7129 108.146L16.9971 107.751C18.4395 105.795 20.1977 104.165 22.2305 102.932L22.2314 102.931C26.02 100.636 29.596 100.441 30.7539 100.441C30.839 100.441 30.9099 100.443 30.9473 100.444H95.6592Z" fill="url(#paint6_linear_4019_2770)" stroke="white" stroke-width="7" stroke-linejoin="round"/>
<path d="M96.2803 102.43C96.6718 102.447 97.1995 102.489 97.8271 102.589C99.0782 102.79 100.764 103.228 102.563 104.18C106.179 106.093 109.829 109.858 111.556 116.773L111.717 117.452L111.721 117.467L108.302 118.219C111.72 117.467 111.721 117.468 111.721 117.468V117.469L111.722 117.471C111.722 117.473 111.722 117.476 111.723 117.478C111.724 117.483 111.725 117.489 111.727 117.496C111.73 117.51 111.734 117.53 111.739 117.554C111.749 117.602 111.763 117.669 111.78 117.754C111.815 117.923 111.862 118.166 111.918 118.475C112.03 119.093 112.178 119.978 112.328 121.081C112.628 123.284 112.941 126.377 112.994 129.966C113.008 130.903 112.645 131.807 111.987 132.474C111.33 133.142 110.431 133.517 109.494 133.517H99.1904C97.5818 133.517 96.1807 132.421 95.7939 130.859C93.8347 122.948 87.0863 117.586 79.9922 114.089C72.9976 110.642 66.4432 109.403 66.2422 109.366C64.461 109.04 63.2224 107.41 63.3857 105.607C63.5492 103.804 65.0606 102.423 66.8711 102.423H95.6338C95.6778 102.422 95.732 102.421 95.7949 102.421C95.9208 102.42 96.0843 102.422 96.2803 102.43Z" fill="url(#paint7_linear_4019_2770)" stroke="white" stroke-width="7" stroke-linejoin="round"/>
</g>
<path d="M31.6885 106.914L31.5592 106.072C31.5371 105.93 31.0483 102.527 32.7766 97.3895C33.7795 94.4092 35.328 91.4447 37.3779 88.5716C39.9262 85.0048 43.2597 81.5735 47.2902 78.3725L47.3249 78.3441L47.3628 78.3189C47.4637 78.2526 57.4958 71.6014 59.0412 64.3037C59.2714 63.2251 59.2998 62.1749 59.1263 61.1783C59.1011 61.0459 58.4956 57.9741 56.8083 55.6341C55.9757 56.7127 54.5061 58.5071 52.5823 60.4025C48.4792 64.4456 44.455 66.8866 40.6263 67.6592C40.5191 67.6813 40.3929 67.7066 40.2416 67.7318L40.1659 67.7444H40.087C40.0681 67.7444 38.0434 67.7791 36.9206 67.8422L36.8891 67.8453H36.8544C36.6936 67.8453 32.6914 67.9305 29.585 73.3801C29.4998 73.5378 28.7871 74.8466 27.8283 76.0293L27.5319 76.3951H27.5192C27.1313 76.8335 26.7497 77.193 26.3839 77.4674L26.1 77.6755L25.7468 77.6597C25.1571 77.6314 11.3404 76.9249 8.71647 69.8858C8.46102 69.3496 6.86521 65.6503 9.42607 62.1654C12.5925 57.8827 21.0319 46.2738 22.0822 43.9653C22.1042 43.918 24.3876 38.8058 26.5195 32.0915C26.6583 31.4607 27.8031 27.2189 34.016 22.6933C34.1642 22.5798 37.7879 19.7099 38.1947 15.4618L38.1979 15.4429C38.2862 14.6671 38.8034 10.7438 40.3046 9.29626C40.538 9.04081 41.563 7.99063 42.8592 7.99063C43.4679 7.99063 44.0419 8.22401 44.5181 8.66238L44.5338 8.67814L54.3768 18.6629C56.3952 18.7039 65.9195 19.2242 75.9107 25.2668C83.2022 29.6757 89.1218 35.9958 93.5056 44.0567L93.5276 44.0977L93.5466 44.1387C93.5876 44.2365 97.7821 54.0793 99.5261 66.382C100.554 73.6356 100.548 80.3278 99.504 86.2663C98.1889 93.7532 95.2212 100.064 90.6798 105.022L90.664 105.04L88.7749 106.904H31.6885V106.914Z" fill="url(#paint8_linear_4019_2770)"/>
<path d="M42.8576 8.98369C43.1824 8.98369 43.5198 9.09407 43.8415 9.39367L53.9557 19.6559C53.9557 19.6559 53.9998 19.6559 54.0818 19.6559C55.296 19.6559 65.038 19.8578 75.3918 26.1211C81.4565 29.7889 87.7325 35.535 92.6303 44.5389C92.6303 44.5389 109.282 83.2415 89.9465 104.365L88.3664 105.926H32.5416C32.5416 105.926 30.5579 92.9361 47.9099 79.1543C47.9099 79.1543 58.3646 72.3107 60.0141 64.5146C60.2601 63.3604 60.3105 62.184 60.1055 61.0077C60.1055 61.0077 59.3108 56.6776 56.7657 54.0348C56.7657 54.0348 49.2061 64.9246 40.4323 66.6907C40.3125 66.716 40.1958 66.738 40.0728 66.7569C40.0728 66.7569 38.0228 66.7916 36.8685 66.8547C36.8685 66.8547 36.8685 66.8547 36.8654 66.8547C36.7203 66.8547 32.1347 66.902 28.7224 72.9036C28.7224 72.9036 28.0159 74.2313 27.0635 75.4076C26.6724 75.8901 26.2403 76.3443 25.7988 76.6723C25.7988 76.6723 12.0168 76.0447 9.63574 69.5007C9.63574 69.5007 7.85071 65.9969 10.2318 62.758C10.2318 62.758 21.6674 47.2889 22.992 44.3812C22.992 44.3812 25.3037 39.2249 27.4861 32.3497C27.4861 32.3497 28.2588 28.1174 34.6168 23.4909C34.6168 23.4909 38.7261 20.3845 39.1866 15.5592C39.1866 15.5592 39.6817 11.2292 41.0221 9.98973C41.0189 9.98658 41.883 8.98369 42.8576 8.98369ZM42.8576 7C41.2018 7 39.9656 8.19841 39.5903 8.6084C38.7577 9.42521 38.1458 10.7561 37.6664 12.7839C37.3511 14.118 37.2186 15.2849 37.2123 15.3322L37.2092 15.3511L37.206 15.37C36.8433 19.1356 33.5949 21.7658 33.4183 21.9045C30.5799 23.9766 28.407 26.2378 26.9625 28.6314C25.9975 30.2335 25.6601 31.4004 25.5591 31.8388C23.4713 38.3986 21.2448 43.4099 21.1754 43.5644C20.2639 45.5575 13.0008 55.6684 8.62968 61.5785L8.62655 61.5817V61.5848C5.81338 65.4135 7.43758 69.4755 7.80026 70.2702C8.51617 72.1624 9.97321 73.7803 12.1367 75.0828C13.7388 76.0478 15.7478 76.8489 18.1036 77.4607C22.0048 78.4762 25.5528 78.6465 25.701 78.656L26.4043 78.6875L26.972 78.2681C27.2937 78.0284 27.6248 77.7351 27.9528 77.3913H28.0033L28.5994 76.6565C29.5896 75.436 30.3308 74.0894 30.4538 73.8655C33.1912 69.0718 36.6005 68.8479 36.8654 68.8384H36.9064L36.9758 68.8353C38.0796 68.7722 40.0822 68.7406 40.1012 68.7375L40.2557 68.7343L40.4071 68.7091C40.5679 68.6807 40.7004 68.6555 40.8234 68.6303C47.7995 67.2237 53.8737 60.8027 56.7057 57.3525C57.715 59.2416 58.1218 61.2316 58.147 61.3546C58.2953 62.225 58.27 63.1459 58.0682 64.0983C57.4753 66.8926 55.3686 70.081 51.9688 73.3167C49.3102 75.8491 46.8408 77.4733 46.8155 77.4891L46.7398 77.5396L46.6673 77.5963C42.5643 80.8541 39.1645 84.3548 36.5658 87.9942C34.4559 90.9461 32.8633 93.9989 31.8288 97.0706C30.0217 102.435 30.5484 106.068 30.5705 106.22L30.8291 107.904H32.5321H88.3664H89.1801L89.7604 107.333L91.3404 105.772L91.3752 105.737L91.4098 105.699C96.0806 100.6 99.1303 94.1187 100.477 86.4457C101.537 80.4031 101.546 73.6069 100.502 66.2492C99.5813 59.7525 97.9917 53.9969 96.8185 50.3134C95.5444 46.3081 94.4942 43.8545 94.4501 43.7536L94.4154 43.6685L94.3712 43.5896C89.9023 35.371 83.8597 28.9248 76.4168 24.4244C71.8785 21.6806 66.9366 19.7222 61.7266 18.6026C58.5223 17.9151 56.0561 17.7353 54.7977 17.688L45.2544 8.00288L45.2229 7.9682L45.1882 7.93665C44.5259 7.32167 43.7217 7 42.8576 7Z" fill="url(#paint9_linear_4019_2770)"/>
<path d="M60.015 64.5088C60.261 63.3545 60.3114 62.1782 60.1065 61.0018C60.1065 61.0018 59.3117 56.6717 56.7666 54.0289C56.7666 54.0289 61.8253 48.8442 61.3049 44.8768C61.3049 44.8768 62.2794 59.4092 60.015 64.5088Z" fill="url(#paint10_linear_4019_2770)"/>
<path d="M89.9465 104.36L88.3665 105.921H64.3789C70.5256 92.9939 88.3759 74.0305 88.3759 74.0305C103.076 59.3846 75.395 26.119 75.395 26.119C81.4597 29.7868 87.7357 35.5329 92.6335 44.5368C92.6335 44.5337 109.285 83.2363 89.9465 104.36Z" fill="url(#paint11_linear_4019_2770)"/>
<path d="M40.4345 66.6874C40.3146 66.7126 40.198 66.7347 40.075 66.7536C40.075 66.7536 38.025 66.7883 36.8707 66.8514C36.8707 66.8514 32.1937 66.8009 28.7214 72.9003C28.7214 72.9003 28.0149 74.228 27.0625 75.4043C27.0625 75.4043 32.5532 55.9079 40.4345 66.6874Z" fill="url(#paint12_linear_4019_2770)"/>
<path d="M16.1064 131.012L16.1222 130.006C16.2231 123.144 17.2891 118.215 17.3364 118.007C18.5222 112.733 20.9506 108.955 24.5585 106.77C27.378 105.06 30.0114 104.928 30.7526 104.928C30.8314 104.928 30.885 104.928 30.9166 104.931H95.6887C95.7202 104.931 95.777 104.928 95.8527 104.928C96.5938 104.928 99.2272 105.06 102.047 106.77C105.655 108.955 108.086 112.733 109.269 118C109.316 118.212 110.382 123.138 110.483 130.003L110.499 131.009H16.1064V131.012Z" fill="url(#paint13_linear_4019_2770)"/>
<path d="M95.8536 105.922C97.071 105.922 105.633 106.348 108.302 118.221C108.302 118.221 109.393 123.179 109.491 130.019H17.1134C17.2112 123.179 18.3024 118.221 18.3024 118.221C20.9705 106.351 29.533 105.922 30.7503 105.922C30.845 105.922 30.8954 105.925 30.8954 105.925H95.7085C95.7117 105.925 95.759 105.922 95.8536 105.922ZM95.8536 103.941C95.7779 103.941 95.7148 103.941 95.6738 103.944H30.9333C30.8891 103.944 30.8292 103.941 30.7535 103.941C29.9493 103.941 27.0857 104.083 24.0454 105.925C22.314 106.975 20.8097 108.397 19.5797 110.154C18.1195 112.239 17.0409 114.809 16.3692 117.786V117.789V117.792C16.3219 118.004 15.2338 123.028 15.1329 129.988L15.1045 132H17.1166H109.497H111.509L111.481 129.988C111.38 123.024 110.292 118.001 110.244 117.792V117.789V117.786C109.576 114.806 108.494 112.239 107.034 110.154C105.804 108.397 104.299 106.975 102.568 105.925C99.5215 104.083 96.661 103.941 95.8536 103.941Z" fill="url(#paint14_linear_4019_2770)"/>
<path d="M109.494 130.018H99.1909C94.5233 111.171 67.5618 106.049 66.8711 105.923H95.7092C95.7092 105.923 105.426 105.428 108.302 118.219C108.302 118.219 109.393 123.177 109.494 130.018Z" fill="url(#paint15_linear_4019_2770)"/>
<defs>
<filter id="filter0_d_4019_2770" x="0" y="0" width="122.509" height="143" filterUnits="userSpaceOnUse" color-interpolation-filters="sRGB">
<feFlood flood-opacity="0" result="BackgroundImageFix"/>
<feColorMatrix in="SourceAlpha" type="matrix" values="0 0 0 0 0 0 0 0 0 0 0 0 0 0 0 0 0 0 127 0" result="hardAlpha"/>
<feOffset dx="2" dy="2"/>
<feGaussianBlur stdDeviation="1"/>
<feComposite in2="hardAlpha" operator="out"/>
<feColorMatrix type="matrix" values="0 0 0 0 0 0 0 0 0 0 0 0 0 0 0 0 0 0 0.25 0"/>
<feBlend mode="normal" in2="BackgroundImageFix" result="effect1_dropShadow_4019_2770"/>
<feBlend mode="normal" in="SourceGraphic" in2="effect1_dropShadow_4019_2770" result="shape"/>
</filter>
<linearGradient id="paint0_linear_4019_2770" x1="54.1417" y1="7.99063" x2="54.1417" y2="106.914" gradientUnits="userSpaceOnUse">
<stop stop-color="white"/>
<stop offset="1" stop-color="#D7D7D7"/>
</linearGradient>
<linearGradient id="paint1_linear_4019_2770" x1="54.1417" y1="7" x2="54.1417" y2="107.904" gradientUnits="userSpaceOnUse">
<stop stop-color="#45464E"/>
<stop offset="1" stop-color="#353535"/>
</linearGradient>
<linearGradient id="paint2_linear_4019_2770" x1="59.14" y1="44.8768" x2="59.14" y2="64.5088" gradientUnits="userSpaceOnUse">
<stop stop-color="#C8C8C8"/>
<stop offset="1" stop-color="#919191"/>
</linearGradient>
<linearGradient id="paint3_linear_4019_2770" x1="81.8385" y1="26.119" x2="81.8385" y2="105.921" gradientUnits="userSpaceOnUse">
<stop stop-color="#C8C8C8"/>
<stop offset="1" stop-color="#919191"/>
</linearGradient>
<linearGradient id="paint4_linear_4019_2770" x1="33.7485" y1="63.4384" x2="33.7485" y2="75.4043" gradientUnits="userSpaceOnUse">
<stop stop-color="#C8C8C8"/>
<stop offset="1" stop-color="#919191"/>
</linearGradient>
<linearGradient id="paint5_linear_4019_2770" x1="63.3026" y1="104.928" x2="63.3026" y2="131.012" gradientUnits="userSpaceOnUse">
<stop stop-color="white"/>
<stop offset="1" stop-color="#D7D7D7"/>
</linearGradient>
<linearGradient id="paint6_linear_4019_2770" x1="63.3067" y1="103.941" x2="63.3067" y2="132" gradientUnits="userSpaceOnUse">
<stop stop-color="#45464E"/>
<stop offset="1" stop-color="#353535"/>
</linearGradient>
<linearGradient id="paint7_linear_4019_2770" x1="88.1827" y1="105.921" x2="88.1827" y2="130.018" gradientUnits="userSpaceOnUse">
<stop stop-color="#C8C8C8"/>
<stop offset="1" stop-color="#919191"/>
</linearGradient>
<linearGradient id="paint8_linear_4019_2770" x1="54.1417" y1="7.99063" x2="54.1417" y2="106.914" gradientUnits="userSpaceOnUse">
<stop stop-color="white"/>
<stop offset="1" stop-color="#D7D7D7"/>
</linearGradient>
<linearGradient id="paint9_linear_4019_2770" x1="54.1417" y1="7" x2="54.1417" y2="107.904" gradientUnits="userSpaceOnUse">
<stop stop-color="#45464E"/>
<stop offset="1" stop-color="#353535"/>
</linearGradient>
<linearGradient id="paint10_linear_4019_2770" x1="59.14" y1="44.8768" x2="59.14" y2="64.5088" gradientUnits="userSpaceOnUse">
<stop stop-color="#C8C8C8"/>
<stop offset="1" stop-color="#919191"/>
</linearGradient>
<linearGradient id="paint11_linear_4019_2770" x1="81.8385" y1="26.119" x2="81.8385" y2="105.921" gradientUnits="userSpaceOnUse">
<stop stop-color="#C8C8C8"/>
<stop offset="1" stop-color="#919191"/>
</linearGradient>
<linearGradient id="paint12_linear_4019_2770" x1="33.7485" y1="63.4384" x2="33.7485" y2="75.4043" gradientUnits="userSpaceOnUse">
<stop stop-color="#C8C8C8"/>
<stop offset="1" stop-color="#919191"/>
</linearGradient>
<linearGradient id="paint13_linear_4019_2770" x1="63.3026" y1="104.928" x2="63.3026" y2="131.012" gradientUnits="userSpaceOnUse">
<stop stop-color="white"/>
<stop offset="1" stop-color="#D7D7D7"/>
</linearGradient>
<linearGradient id="paint14_linear_4019_2770" x1="63.3067" y1="103.941" x2="63.3067" y2="132" gradientUnits="userSpaceOnUse">
<stop stop-color="#45464E"/>
<stop offset="1" stop-color="#353535"/>
</linearGradient>
<linearGradient id="paint15_linear_4019_2770" x1="88.1827" y1="105.921" x2="88.1827" y2="130.018" gradientUnits="userSpaceOnUse">
<stop stop-color="#C8C8C8"/>
<stop offset="1" stop-color="#919191"/>
</linearGradient>
</defs>
</svg>
