<svg width="142" height="143" viewBox="0 0 142 143" fill="none" xmlns="http://www.w3.org/2000/svg">
<g filter="url(#filter0_d_4019_2648)">
<path d="M86.937 4.50229C91.1344 4.50238 95.1347 6.02282 98.2603 8.79526C98.3522 8.86782 98.441 8.94553 98.5259 9.02768L98.8169 9.30893L99.1265 9.61655C102.282 12.8225 104.019 17.0679 104.019 21.5814C104.019 27.4265 101.049 32.7803 96.2593 35.8958L97.2007 55.3822L100.998 51.2494C100.512 49.6696 100.261 48.018 100.261 46.3568C100.261 37.1825 107.72 29.7289 116.892 29.7289C121.783 29.7289 126.374 31.8548 129.54 35.5609L129.841 35.9251L129.87 35.9603L130.041 36.1781L130.253 36.4486C130.332 36.5486 130.403 36.6539 130.47 36.7611C132.466 39.5761 133.523 42.8922 133.523 46.3607C133.523 47.1225 133.471 47.8892 133.367 48.6468C132.723 53.303 130.119 57.4842 126.218 60.1263C126.208 60.1337 126.198 60.1425 126.187 60.1497C124.938 60.9936 123.597 61.6559 122.182 62.1292L102.81 108.107C102.263 109.404 100.993 110.247 99.5854 110.247H38.4419C36.9278 110.247 35.6386 109.286 35.1509 107.94L15.8413 62.1126C13.2224 61.2312 10.8476 59.7063 8.94971 57.6654L8.4917 57.1527C5.9178 54.1438 4.50737 50.3062 4.50732 46.3509C4.50732 37.177 11.9656 29.723 21.1353 29.723C23.6086 29.723 26.0095 30.2571 28.2417 31.3158C30.8755 32.561 33.1257 34.4714 34.7856 36.8548L35.1099 37.3382L35.1118 37.3402C36.8462 40.0285 37.7632 43.1455 37.7632 46.3539C37.7632 48.0308 37.515 49.6716 37.0278 51.2494L40.8218 55.3802L41.7632 35.8929C39.9008 34.6801 38.2876 33.1124 37.0112 31.2581C35.0446 28.4041 34.0054 25.0499 34.0054 21.5814C34.0054 12.1603 41.6634 4.50229 51.0845 4.50229C52.4546 4.50231 53.8195 4.66573 55.147 4.98959C58.5811 5.82755 61.6922 7.74231 64.0034 10.4105L64.4546 10.9544L64.4556 10.9554C66.8767 13.999 68.1626 17.6892 68.1626 21.5814C68.1625 25.425 66.862 29.1256 64.5278 32.1078L69.0103 45.2464L73.4917 32.1078C71.1578 29.1257 69.858 25.4247 69.8579 21.5814C69.8579 12.1603 77.516 4.50229 86.937 4.50229Z" fill="#888888" stroke="white" stroke-width="7" stroke-linejoin="round"/>
<path d="M86.9326 3.5C91.1614 3.5 95.2028 4.95648 98.4297 7.63379C98.6016 7.74896 98.7643 7.87962 98.915 8.02539L99.4941 8.58496C101.219 10.2507 102.572 12.2129 103.52 14.3984L103.699 14.8271C104.566 16.9779 105.002 19.251 105.002 21.5762C105.002 27.5647 102.056 33.0649 97.2705 36.4023L98.0703 52.9434L99.8701 50.9844C99.4611 49.4809 99.25 47.9221 99.25 46.3555C99.25 41.6548 101.089 37.2137 104.413 33.8896C107.737 30.5656 112.178 28.7266 116.879 28.7266C122.065 28.7266 126.927 30.9778 130.283 34.9092L130.604 35.2949L130.679 35.3936L130.743 35.4756C130.752 35.4868 130.762 35.4974 130.771 35.5088L130.797 35.541L130.826 35.5781L131.248 36.1211C131.375 36.2839 131.485 36.4573 131.58 36.6377C133.496 39.5263 134.504 42.8698 134.504 46.3584C134.504 47.1635 134.448 47.9771 134.337 48.7793C133.654 53.729 130.883 58.1632 126.744 60.9648C126.738 60.9693 126.731 60.9741 126.725 60.9785L126.721 60.9795L126.722 60.9805C125.525 61.7882 124.25 62.4373 122.912 62.9248L103.969 107.88L103.455 109.104C102.909 110.401 101.638 111.246 100.229 111.246H37.7715C36.3632 111.246 35.0923 110.401 34.5459 109.104L34.0312 107.882L15.084 62.915C12.2536 61.8795 9.70937 60.1274 7.72559 57.8076L7.72461 57.8066C5.00158 54.6199 3.50003 50.5551 3.5 46.3584C3.5 41.6577 5.33907 37.2166 8.66309 33.8926L8.66406 33.8916C11.9897 30.5699 16.4262 28.7305 21.1279 28.7305C23.7516 28.7305 26.2971 29.2964 28.6641 30.4199C31.6375 31.8294 34.1516 34.0357 35.9395 36.7998L36.2754 37.3389C37.9037 40.0645 38.7568 43.1732 38.7568 46.3584C38.7568 47.9393 38.5498 49.49 38.1406 50.9922L39.9355 52.9463L40.7354 36.4043C38.9664 35.1684 37.4263 33.6221 36.1855 31.8232L36.1846 31.8203C34.1046 28.7988 33.0049 25.2514 33.0049 21.5791C33.0049 16.7567 34.8918 12.2049 38.3008 8.7959L38.3018 8.79492C41.7103 5.39029 46.2618 3.50293 51.084 3.50293C52.3515 3.50296 53.6182 3.63535 54.8564 3.89844L55.3857 4.01953C59.2596 4.96726 62.749 7.20934 65.2354 10.333C66.4763 11.8921 67.451 13.6392 68.1191 15.5244L68.2451 15.8896C68.6057 16.9785 68.8602 18.0955 69.0078 19.2305C69.516 15.2936 71.2992 11.6442 74.1504 8.79297L74.1514 8.79199C77.5599 5.38742 82.1105 3.50005 86.9326 3.5ZM86.9326 12.4971C81.9213 12.4972 77.8545 16.5634 77.8545 21.5791C77.8545 24.2927 79.0393 26.7232 80.9316 28.3926C81.9915 29.3278 82.3848 30.8087 81.9287 32.1465L72.3223 60.3086C71.8387 61.7257 70.5071 62.6777 69.0098 62.6777C67.5124 62.6777 66.1809 61.7257 65.6973 60.3086L56.0908 32.1465C55.6347 30.8087 56.0281 29.3278 57.0879 28.3926C58.9803 26.7232 60.165 24.2927 60.165 21.5791C60.165 17.3166 57.2205 13.7293 53.251 12.7598C52.5594 12.5909 51.8348 12.501 51.084 12.501C46.0677 12.501 42.002 16.5651 42.002 21.5791C42.002 25.393 44.3528 28.6649 47.6973 30.0078C49.0813 30.5635 49.9607 31.9352 49.8887 33.4248L48.2891 66.5273C48.2208 67.9374 47.3118 69.1688 45.9844 69.6494C44.6568 70.13 43.1699 69.7654 42.2148 68.7256L29.1953 54.5498C28.1754 53.4394 27.9807 51.8004 28.7129 50.4824C28.7675 50.3842 28.8253 50.2721 28.8896 50.1387L28.8965 50.126C29.4507 48.9882 29.7617 47.7135 29.7617 46.3555C29.7617 42.9168 27.7465 39.9367 24.8164 38.5498L24.8105 38.5469C23.705 38.021 22.4587 37.7247 21.1318 37.7246C16.3643 37.7246 12.501 41.588 12.501 46.3555C12.5012 50.6277 15.6121 54.1832 19.6943 54.8652C20.8775 55.0629 21.8779 55.8526 22.3438 56.958L41.4248 102.242H96.5879L115.67 56.958L115.764 56.7549C116.262 55.7569 117.209 55.0508 118.317 54.8652C119.558 54.6577 120.707 54.1868 121.705 53.5107C121.707 53.5094 121.709 53.5082 121.711 53.5068C123.7 52.1617 125.091 50.0177 125.431 47.5488L125.432 47.542C125.485 47.1606 125.513 46.7665 125.513 46.3555C125.513 44.3806 124.852 42.5677 123.737 41.1123L123.717 41.0859L123.611 40.9531V40.9521L123.604 40.9434C122.017 38.975 119.595 37.7246 116.882 37.7246C112.114 37.7246 108.251 41.588 108.251 46.3555C108.251 47.8594 108.634 49.2673 109.309 50.4961C110.03 51.812 109.834 53.4415 108.818 54.5469L95.7979 68.7227C94.8428 69.7623 93.3567 70.1269 92.0293 69.6465C90.7018 69.166 89.7929 67.9345 89.7246 66.5244L88.124 33.4219C88.0515 31.9227 88.943 30.5441 90.3398 29.9951C90.3891 29.9758 90.4469 29.9518 90.5078 29.9258L90.8086 29.79C93.8922 28.3293 96.0116 25.1962 96.0117 21.5762C96.0117 19.0149 94.9565 16.7073 93.248 15.0537C91.6095 13.468 89.3882 12.4971 86.9326 12.4971ZM69.0078 23.9004C68.6133 26.9429 67.4515 29.8287 65.6436 32.2881L69.0078 42.1504L72.3721 32.2842C70.565 29.8257 69.4027 26.9414 69.0078 23.9004Z" fill="#46474E" stroke="white" stroke-width="7" stroke-linejoin="round"/>
<path d="M116.28 55.9948C117.417 54.7136 119.315 54.4437 120.765 55.3571C122.214 56.2706 122.788 58.0989 122.123 59.6774L102.14 107.101C101.593 108.399 100.322 109.242 98.9141 109.242H76.8057C75.4279 109.242 74.1782 108.434 73.6133 107.177C73.0484 105.921 73.2739 104.449 74.1885 103.419L116.28 55.9948Z" fill="#4F5055" stroke="white" stroke-width="7" stroke-linejoin="round"/>
<path d="M101.785 101.241C102.893 101.241 106.254 101.43 109.837 103.603L109.836 103.604C114.349 106.338 117.189 110.883 118.579 116.582L118.709 117.138L118.71 117.14C118.792 117.508 119.91 122.718 120.017 129.936L120.032 130.948C120.047 131.886 119.685 132.791 119.027 133.459C118.37 134.127 117.471 134.503 116.533 134.503H21.4873C20.5496 134.503 19.651 134.127 18.9932 133.459C18.3353 132.791 17.9726 131.886 17.9873 130.948L18.0039 129.936C18.1103 122.722 19.2269 117.507 19.3154 117.123C20.658 111.174 23.5284 106.424 28.1836 103.604V103.603C31.7661 101.431 35.1259 101.241 36.2344 101.241C36.2651 101.241 36.3274 101.241 36.3857 101.242C36.3937 101.242 36.4061 101.244 36.4219 101.244H101.586C101.628 101.243 101.699 101.241 101.785 101.241Z" fill="#888888" stroke="white" stroke-width="7" stroke-linejoin="round"/>
<path d="M101.784 100.247C102.918 100.247 106.322 100.435 109.996 102.539L110.353 102.749L110.355 102.751C112.542 104.075 114.406 105.852 115.906 107.995H115.905C117.683 110.533 118.932 113.56 119.687 116.922C119.693 116.95 119.697 116.979 119.703 117.008C119.865 117.759 120.782 122.3 120.984 128.575L121.017 129.924V129.924L121.045 131.951C121.058 132.888 120.695 133.791 120.037 134.458C119.379 135.125 118.482 135.5 117.545 135.5H20.4736C19.5369 135.5 18.6392 135.125 17.9814 134.458C17.3238 133.791 16.9605 132.888 16.9736 131.951L17.0029 129.924V129.924C17.1038 122.969 18.1391 117.831 18.3125 117.021C18.3192 116.987 18.3253 116.952 18.333 116.918C19.0896 113.561 20.3332 110.535 22.1123 107.995C23.6143 105.85 25.4809 104.074 27.6611 102.752L27.6631 102.751C31.4721 100.443 35.0665 100.247 36.2305 100.247C36.3161 100.247 36.3882 100.249 36.4258 100.25H101.59C101.696 100.247 101.776 100.247 101.784 100.247ZM36.1787 109.242C36.1856 109.242 36.1917 109.243 36.1973 109.243C36.2086 109.243 36.2177 109.244 36.2236 109.244C36.2251 109.244 36.2264 109.244 36.2275 109.244C35.9684 109.244 34.2184 109.299 32.3223 110.448C30.5488 111.522 28.2626 113.779 27.1123 118.878C27.1123 118.878 27.1128 118.879 27.1123 118.882C27.1113 118.886 27.1084 118.896 27.1055 118.91C27.0995 118.938 27.0901 118.985 27.0771 119.049C27.0512 119.177 27.0119 119.378 26.9639 119.642C26.8677 120.172 26.7354 120.96 26.5996 121.958C26.4319 123.19 26.2603 124.737 26.1416 126.508H111.87C111.751 124.737 111.58 123.19 111.412 121.958C111.276 120.96 111.144 120.172 111.048 119.642C111 119.378 110.962 119.177 110.936 119.049C110.923 118.984 110.912 118.938 110.906 118.91C110.903 118.896 110.901 118.886 110.9 118.882C110.9 118.879 110.899 118.878 110.899 118.878C109.749 113.777 107.463 111.521 105.69 110.447C103.807 109.306 102.068 109.245 101.79 109.244C101.786 109.244 101.781 109.245 101.774 109.245C101.769 109.245 101.757 109.245 101.742 109.246C101.734 109.246 101.722 109.246 101.707 109.247C101.694 109.247 101.668 109.248 101.636 109.248H36.374C36.3073 109.248 36.2404 109.245 36.1738 109.241C36.1755 109.241 36.1771 109.242 36.1787 109.242Z" fill="#46474E" stroke="white" stroke-width="7" stroke-linejoin="round"/>
<path d="M102.213 102.253C102.606 102.27 103.137 102.312 103.768 102.413C105.025 102.615 106.72 103.056 108.529 104.013C112.274 105.994 116.056 109.951 117.724 117.316L117.732 117.351C117.735 117.361 117.737 117.369 117.737 117.372C117.739 117.381 117.74 117.39 117.742 117.398C117.746 117.414 117.751 117.435 117.756 117.459C117.766 117.508 117.781 117.576 117.798 117.662C117.832 117.833 117.88 118.077 117.937 118.388C118.049 119.01 118.198 119.9 118.35 121.011C118.652 123.229 118.966 126.344 119.02 129.956C119.033 130.893 118.67 131.797 118.013 132.464C117.355 133.132 116.457 133.507 115.52 133.507H105.146C103.537 133.507 102.135 132.411 101.748 130.849C99.7727 122.873 92.9696 117.469 85.8242 113.948C78.7782 110.475 72.1761 109.226 71.9727 109.189C70.1915 108.864 68.9529 107.233 69.1162 105.43C69.2797 103.627 70.791 102.246 72.6016 102.246H101.563C101.608 102.245 101.662 102.244 101.726 102.244C101.852 102.243 102.016 102.245 102.213 102.253Z" fill="#4F5055" stroke="white" stroke-width="7" stroke-linejoin="round"/>
<path d="M125.664 46.6991C126.332 45.0685 128.109 44.1895 129.811 44.6474C131.513 45.1055 132.609 46.7578 132.369 48.5038C131.749 53.0085 129.216 56.8865 125.635 59.3075L125.634 59.3065C125.552 59.3621 125.469 59.4153 125.382 59.4638C121.167 61.8256 116.767 60.8797 113.927 59.7655C112.455 59.1878 111.219 58.4973 110.356 57.9579C109.921 57.6858 109.569 57.4462 109.319 57.2675C109.193 57.178 109.092 57.1027 109.018 57.0468C108.981 57.019 108.951 56.9957 108.927 56.9774C108.915 56.9683 108.904 56.9606 108.896 56.954C108.892 56.9509 108.888 56.9478 108.885 56.9452C108.884 56.9439 108.882 56.9424 108.88 56.9413L108.878 56.9394C108.877 56.9386 108.876 56.938 111.045 54.1913L108.876 56.9384C107.642 55.9634 107.209 54.284 107.819 52.8339C108.429 51.3839 109.931 50.5191 111.492 50.7196C117.037 51.4329 120.421 50.7712 122.431 49.8446C124.37 48.9509 125.247 47.7158 125.664 46.6991Z" fill="#4F5055" stroke="white" stroke-width="7" stroke-linejoin="round"/>
<path d="M92.3149 13.4967C92.3184 13.5098 92.3247 13.5341 92.3335 13.569C92.353 13.6466 92.3842 13.7761 92.4214 13.9508C92.496 14.3016 92.5937 14.8291 92.6724 15.4831C92.8316 16.807 92.9018 18.5636 92.5962 20.3952C92.2922 22.2164 91.6323 24.0253 90.397 25.5866C89.1831 27.1207 87.2681 28.6021 84.1362 29.5836C82.573 30.0736 81.5584 31.5829 81.6948 33.2155C81.8313 34.848 83.0827 36.1676 84.7056 36.3913L85.1831 32.9235C84.7053 36.3907 84.7062 36.3912 84.7065 36.3913H84.7085C84.7098 36.3914 84.7117 36.392 84.7134 36.3922C84.7168 36.3927 84.7211 36.3935 84.7261 36.3942C84.7362 36.3956 84.7499 36.397 84.7661 36.3991C84.7988 36.4033 84.8438 36.4097 84.8999 36.4167C85.0124 36.4305 85.1712 36.4492 85.3696 36.4704C85.7659 36.5127 86.3248 36.565 86.9985 36.61C88.3349 36.6993 90.1757 36.7612 92.1196 36.6354C92.5179 36.6096 92.9092 36.5157 93.2759 36.3581C98.9975 33.8982 103.014 28.2122 103.014 21.5778C103.014 17.0484 101.135 12.9432 98.1138 10.0231C96.9751 8.92266 95.2394 8.72335 93.8813 9.53775C92.5243 10.3516 91.8823 11.975 92.3149 13.4967ZM92.3149 13.4967C92.3146 13.4954 92.3143 13.4939 92.314 13.4928L92.313 13.4899C92.3133 13.4911 92.3135 13.4931 92.314 13.4948L92.3149 13.4967Z" fill="#4F5055" stroke="white" stroke-width="7" stroke-linejoin="round"/>
<path d="M51.1929 7.38443C52.0152 6.1785 53.4998 5.60944 54.9175 5.9567C61.9419 7.67745 67.1655 14.0116 67.1655 21.5758C67.1655 26.3819 65.0538 30.6967 61.7192 33.6383C61.2821 34.024 60.7551 34.294 60.187 34.4245L53.6196 35.9333C51.7464 36.3633 49.8764 35.2024 49.4312 33.3327C48.9861 31.463 50.1325 29.5839 51.9985 29.1237C54.8138 28.4294 55.6857 27.2201 56.0454 26.1901C56.5094 24.8613 56.4174 22.9299 55.7173 20.5378C55.04 18.2238 53.9279 15.9299 52.9409 14.1647C52.4545 13.2948 52.0136 12.5805 51.6987 12.0895C51.5417 11.8446 51.4172 11.6564 51.3345 11.5338C51.2933 11.4729 51.2625 11.4283 51.2437 11.401C51.2342 11.3874 51.2274 11.3774 51.2241 11.3727C50.3831 10.1798 50.3706 8.59035 51.1929 7.38443Z" fill="#4F5055" stroke="white" stroke-width="7" stroke-linejoin="round"/>
<path d="M24.0493 32.7201C25.0968 31.8293 26.5688 31.6346 27.812 32.2221C33.0967 34.7193 36.7651 40.1058 36.7651 46.3549C36.7651 48.8009 36.2 51.1214 35.1919 53.1908C35.1805 53.2142 35.1687 53.238 35.1567 53.2612L34.8872 53.7846C34.5787 54.3834 34.104 54.8805 33.52 55.2162L26.8511 59.0492C25.1845 60.0071 23.0574 59.4416 22.0864 57.7826C21.1156 56.1235 21.6645 53.992 23.3159 53.0082C23.7025 52.778 24.129 52.315 24.4565 51.2729C24.7948 50.1965 24.9445 48.7357 24.8813 46.9555C24.7552 43.3976 23.818 39.3584 22.9536 36.3539C22.5735 35.0325 23.0019 33.611 24.0493 32.7201Z" fill="#4F5055" stroke="white" stroke-width="7" stroke-linejoin="round"/>
</g>
<path d="M38.4422 106.738L18.4106 59.196C15.597 58.599 13.0375 57.0811 11.1512 54.8772C9.12196 52.505 8.00732 49.4755 8.00732 46.3507C8.00732 39.1104 13.898 33.2228 21.1352 33.2228C23.0977 33.2228 24.9872 33.6452 26.7465 34.4804C28.9631 35.5283 30.8366 37.1733 32.1704 39.2374C33.5391 41.3587 34.2631 43.8166 34.2631 46.3539C34.2631 48.3355 33.8312 50.2408 32.9802 52.016L43.9137 63.9213L45.365 33.8992C43.1611 32.8767 41.2812 31.2889 39.8935 29.2724C38.3311 27.005 37.5054 24.3439 37.5054 21.5811C37.5054 14.0931 43.5962 8.00229 51.0842 8.00229C52.1766 8.00229 53.2627 8.13248 54.317 8.3897C57.2195 9.09786 59.8457 10.7841 61.7161 13.134C63.6437 15.557 64.6631 18.4786 64.6631 21.5811C64.6631 25.2489 63.1737 28.7579 60.557 31.3079L69.0104 56.0871L77.4639 31.3079C74.8472 28.7579 73.3578 25.2489 73.3578 21.5811C73.3578 14.0931 79.4486 8.00229 86.9366 8.00229C90.344 8.00229 93.5768 9.25664 96.0824 11.5431H96.0919L96.384 11.8257C99.0515 14.4043 100.519 17.8688 100.519 21.5811C100.519 26.8843 97.4479 31.6763 92.6591 33.8992L94.1103 63.9213L105.044 52.0192C104.202 50.2599 103.761 48.3164 103.761 46.3571C103.761 39.1167 109.652 33.2292 116.892 33.2292C120.881 33.2292 124.609 35.0139 127.117 38.1228L127.292 38.3451L127.505 38.615V38.6277C129.153 40.8824 130.023 43.5499 130.023 46.3603C130.023 46.9636 129.982 47.5702 129.899 48.1672C129.391 51.8445 127.33 55.1535 124.24 57.2398L124.228 57.2494C122.818 58.202 121.271 58.8594 119.617 59.2055L99.585 106.747H38.4422V106.738Z" fill="url(#paint0_linear_4019_2648)"/>
<path d="M86.9328 8.99744C90.3339 8.99744 93.4174 10.3471 95.6816 12.5382C98.0442 14.8247 99.5114 18.0288 99.5114 21.576C99.5114 26.7617 96.3739 31.2139 91.8899 33.1415C91.801 33.1796 91.7089 33.2177 91.62 33.2526L93.2205 66.355L106.24 52.1792C105.291 50.4485 104.751 48.4637 104.751 46.3551C104.751 39.6546 110.181 34.2243 116.882 34.2243C120.699 34.2243 124.106 35.99 126.329 38.7464L126.364 38.7908L126.469 38.9242L126.494 38.956C128.073 41.0042 129.013 43.5701 129.013 46.3551C129.013 46.9235 128.974 47.4793 128.898 48.0255C128.419 51.5123 126.456 54.5227 123.671 56.4059L123.668 56.409C122.261 57.3617 120.642 58.0254 118.895 58.3176L98.9112 105.742H39.102L19.1181 58.3176C13.3766 57.3586 9.00064 52.3665 9.00064 46.3551C9.00064 39.6546 14.4309 34.2243 21.1314 34.2243C22.9859 34.2243 24.7452 34.6404 26.314 35.3866C30.42 37.3301 33.2622 41.5123 33.2622 46.3551C33.2622 48.2573 32.8239 50.0547 32.0427 51.6584C31.957 51.8362 31.8681 52.0109 31.7728 52.1823L44.7927 66.3582L46.3932 33.2558C41.7664 31.3981 38.5019 26.8697 38.5019 21.5792C38.5019 14.631 44.1354 9.00062 51.0836 9.00062C52.1157 9.00062 53.1191 9.12447 54.0813 9.35946C59.5815 10.7027 63.6653 15.6662 63.6653 21.5792C63.6653 25.3391 62.0171 28.7115 59.4036 31.017L69.0098 59.1782L78.616 31.017C76.0024 28.7115 74.3543 25.3391 74.3543 21.5792C74.3543 14.631 79.9878 8.99744 86.9328 8.99744ZM86.9328 7C83.0395 7 79.3781 8.51793 76.6249 11.268C73.8716 14.0212 72.3569 17.6827 72.3569 21.576C72.3569 25.3009 73.7859 28.8703 76.3168 31.5632L69.0098 52.9921L61.6996 31.5664C64.2305 28.8735 65.6595 25.3041 65.6595 21.5792C65.6595 19.9024 65.3769 18.2607 64.8212 16.6951C64.2845 15.1803 63.5001 13.7735 62.4966 12.5128C60.4897 9.9914 57.6697 8.18132 54.5545 7.41918C53.424 7.1429 52.2554 7.00318 51.0836 7.00318C47.1903 7.00318 43.5288 8.52111 40.7756 11.2712C38.0224 14.0244 36.5044 17.6859 36.5044 21.5792C36.5044 24.5452 37.3904 27.4 39.0671 29.8357C40.4294 31.8109 42.23 33.405 44.3323 34.5038L43.0271 61.4868L34.1577 51.8298C34.8881 50.0991 35.2564 48.2636 35.2564 46.3583C35.2564 43.6305 34.4784 40.982 33.0017 38.7019C31.5664 36.4822 29.5499 34.7134 27.165 33.5829C25.2724 32.6842 23.24 32.2301 21.1282 32.2301C17.3556 32.2301 13.8085 33.7004 11.1378 36.3679C8.47031 39.0354 7 42.5857 7 46.3583C7 49.7212 8.20356 52.9794 10.3852 55.5326C12.2969 57.7682 14.8564 59.3496 17.6795 60.061L37.257 106.523L37.7715 107.746H39.0957H98.9048H100.229L100.743 106.523L120.321 60.0642C121.906 59.6672 123.395 59.0035 124.764 58.0794L124.783 58.0667C128.104 55.8184 130.324 52.2617 130.87 48.3018C130.959 47.6603 131.004 47.0061 131.004 46.3583C131.004 43.4463 130.137 40.6772 128.485 38.305V38.2701L128.063 37.727L128.038 37.6953L128.035 37.6921L128.031 37.6889L127.927 37.5556L127.923 37.5524L127.92 37.5492L127.885 37.5047L127.882 37.4984L127.879 37.492C125.18 34.145 121.172 32.2269 116.879 32.2269C113.106 32.2269 109.556 33.6972 106.888 36.3647C104.221 39.0322 102.75 42.5825 102.75 46.3551C102.75 48.2351 103.128 50.1023 103.852 51.8235L94.9798 61.4836L93.6746 34.5006C98.4634 32.0014 101.502 27.0412 101.502 21.576C101.502 19.569 101.102 17.6224 100.308 15.79C99.5431 14.0244 98.4539 12.4461 97.063 11.1029L96.4818 10.5408H96.4469C93.8112 8.25119 90.4609 7 86.9328 7Z" fill="url(#paint1_linear_4019_2648)"/>
<path d="M118.898 58.3181L98.9141 105.742H76.8057L118.898 58.3181Z" fill="url(#paint2_linear_4019_2648)"/>
<path d="M21.4873 131.003L21.5032 129.99C21.6048 123.08 22.6782 118.117 22.7258 117.91C23.9198 112.604 26.365 108.797 29.9979 106.596C32.8369 104.875 35.4885 104.741 36.2348 104.741C36.3142 104.741 36.3682 104.741 36.3999 104.744H101.62C101.652 104.744 101.709 104.741 101.785 104.741C102.532 104.741 105.183 104.875 108.022 106.596C111.655 108.797 114.103 112.601 115.294 117.904C115.342 118.117 116.415 123.08 116.517 129.99L116.533 131.003H21.4873Z" fill="url(#paint3_linear_4019_2648)"/>
<path d="M101.785 105.744C103.01 105.744 111.632 106.173 114.319 118.129C114.319 118.129 115.417 123.121 115.516 130.009H22.4965C22.5949 123.121 23.6937 118.129 23.6937 118.129C26.3802 106.176 35.002 105.744 36.2277 105.744C36.323 105.744 36.3738 105.747 36.3738 105.747H101.635C101.639 105.747 101.693 105.744 101.785 105.744ZM101.785 103.747C101.708 103.747 101.645 103.747 101.604 103.75H36.4119C36.3674 103.75 36.3071 103.747 36.2309 103.747C35.4211 103.747 32.5377 103.89 29.4764 105.744C27.733 106.802 26.2183 108.234 24.9798 110.003C23.5095 112.102 22.4234 114.687 21.747 117.688V117.691V117.694C21.6994 117.907 20.6038 122.965 20.5022 129.974L20.4736 132H22.4997H115.519H117.545L117.517 129.974C117.415 122.962 116.319 117.904 116.272 117.694V117.691V117.688C115.598 114.687 114.509 112.102 113.039 110.003C111.8 108.234 110.289 106.802 108.542 105.744C105.478 103.893 102.598 103.747 101.785 103.747Z" fill="url(#paint4_linear_4019_2648)"/>
<path d="M115.52 130.008H105.145C100.445 111.03 73.297 105.873 72.6016 105.746H101.639C101.639 105.746 111.423 105.248 114.319 118.128C114.319 118.125 115.418 123.12 115.52 130.008Z" fill="url(#paint5_linear_4019_2648)"/>
<path d="M128.902 48.0273C128.422 51.5141 126.46 54.5245 123.675 56.4076L123.672 56.4108C117.93 59.6277 111.045 54.1911 111.045 54.1911C122.97 55.7249 127.438 51.5966 128.902 48.0273Z" fill="url(#paint6_linear_4019_2648)"/>
<path d="M99.5146 21.5774C99.5146 26.7632 96.3771 31.2154 91.8931 33.1429C88.4095 33.3684 85.1831 32.9238 85.1831 32.9238C100.159 28.2303 95.6816 12.5397 95.6816 12.5397C98.0474 14.8261 99.5146 18.0335 99.5146 21.5774Z" fill="url(#paint7_linear_4019_2648)"/>
<path d="M63.6652 21.5758C63.6652 25.3357 62.0171 28.7082 59.4036 31.0136L52.8364 32.5221C67.8125 28.8288 54.0845 9.35611 54.0845 9.35611C59.5814 10.7026 63.6652 15.6628 63.6652 21.5758Z" fill="url(#paint8_linear_4019_2648)"/>
<path d="M33.265 46.3546C33.265 48.2568 32.8268 50.0542 32.0456 51.6579L31.7757 52.1819L25.1069 56.0148C30.4388 52.8392 28.0984 41.5786 26.3169 35.3862C30.4229 37.3264 33.265 41.5087 33.265 46.3546Z" fill="url(#paint9_linear_4019_2648)"/>
<defs>
<filter id="filter0_d_4019_2648" x="0" y="0" width="142.004" height="143" filterUnits="userSpaceOnUse" color-interpolation-filters="sRGB">
<feFlood flood-opacity="0" result="BackgroundImageFix"/>
<feColorMatrix in="SourceAlpha" type="matrix" values="0 0 0 0 0 0 0 0 0 0 0 0 0 0 0 0 0 0 127 0" result="hardAlpha"/>
<feOffset dx="2" dy="2"/>
<feGaussianBlur stdDeviation="1"/>
<feComposite in2="hardAlpha" operator="out"/>
<feColorMatrix type="matrix" values="0 0 0 0 0 0 0 0 0 0 0 0 0 0 0 0 0 0 0.25 0"/>
<feBlend mode="normal" in2="BackgroundImageFix" result="effect1_dropShadow_4019_2648"/>
<feBlend mode="normal" in="SourceGraphic" in2="effect1_dropShadow_4019_2648" result="shape"/>
</filter>
<linearGradient id="paint0_linear_4019_2648" x1="69.0152" y1="8.00229" x2="69.0152" y2="106.747" gradientUnits="userSpaceOnUse">
<stop stop-color="#888888"/>
<stop offset="1" stop-color="#4D4D4D"/>
</linearGradient>
<linearGradient id="paint1_linear_4019_2648" x1="69.0018" y1="7" x2="69.0018" y2="107.746" gradientUnits="userSpaceOnUse">
<stop stop-color="#46474E"/>
<stop offset="1" stop-color="#202127"/>
</linearGradient>
<linearGradient id="paint2_linear_4019_2648" x1="97.8519" y1="58.3181" x2="97.8519" y2="105.742" gradientUnits="userSpaceOnUse">
<stop stop-color="#4F5055"/>
<stop offset="1" stop-color="#212331"/>
</linearGradient>
<linearGradient id="paint3_linear_4019_2648" x1="69.01" y1="104.741" x2="69.01" y2="131.003" gradientUnits="userSpaceOnUse">
<stop stop-color="#888888"/>
<stop offset="1" stop-color="#4D4D4D"/>
</linearGradient>
<linearGradient id="paint4_linear_4019_2648" x1="69.0094" y1="103.747" x2="69.0094" y2="132" gradientUnits="userSpaceOnUse">
<stop stop-color="#46474E"/>
<stop offset="1" stop-color="#202127"/>
</linearGradient>
<linearGradient id="paint5_linear_4019_2648" x1="94.0606" y1="105.744" x2="94.0606" y2="130.008" gradientUnits="userSpaceOnUse">
<stop stop-color="#4F5055"/>
<stop offset="1" stop-color="#212331"/>
</linearGradient>
<linearGradient id="paint6_linear_4019_2648" x1="119.974" y1="48.0273" x2="119.974" y2="57.4286" gradientUnits="userSpaceOnUse">
<stop stop-color="#4F5055"/>
<stop offset="1" stop-color="#212331"/>
</linearGradient>
<linearGradient id="paint7_linear_4019_2648" x1="92.3488" y1="12.5397" x2="92.3488" y2="33.2067" gradientUnits="userSpaceOnUse">
<stop stop-color="#4F5055"/>
<stop offset="1" stop-color="#212331"/>
</linearGradient>
<linearGradient id="paint8_linear_4019_2648" x1="58.2508" y1="9.35611" x2="58.2508" y2="32.5221" gradientUnits="userSpaceOnUse">
<stop stop-color="#4F5055"/>
<stop offset="1" stop-color="#212331"/>
</linearGradient>
<linearGradient id="paint9_linear_4019_2648" x1="29.186" y1="35.3862" x2="29.186" y2="56.0148" gradientUnits="userSpaceOnUse">
<stop stop-color="#4F5055"/>
<stop offset="1" stop-color="#212331"/>
</linearGradient>
</defs>
</svg>
