<svg width="116" height="143" viewBox="0 0 116 143" fill="none" xmlns="http://www.w3.org/2000/svg">
<g filter="url(#filter0_d_4019_2792)">
<path d="M82.4678 44.3719L82.6328 44.3759C84.3316 44.4551 85.7391 45.7515 85.9434 47.4559L91.8818 97.0223L92.9893 106.26C93.1085 107.253 92.7969 108.25 92.1328 108.999C91.4686 109.748 90.5155 110.177 89.5146 110.177H21.8164C20.8157 110.177 19.8625 109.748 19.1982 109C18.5341 108.251 18.2219 107.254 18.3408 106.261L19 100.752L19.001 100.749L19.4492 97.0204L25.3877 47.4559C25.5985 45.6966 27.0913 44.372 28.8633 44.3719H82.4678Z" fill="url(#paint0_linear_4019_2792)" stroke="white" stroke-width="7" stroke-linejoin="round"/>
<path d="M83.3555 43.3716L83.5205 43.3755C85.2152 43.4547 86.6201 44.7452 86.8291 46.4449L87.0459 48.2056L87.0469 48.2163L92.8809 96.8999L93.8545 105.017L93.8555 105.019L94.123 107.261C94.2415 108.255 93.9288 109.251 93.2646 110C92.6005 110.748 91.6479 111.176 90.6475 111.176H20.6914C19.691 111.176 18.7384 110.748 18.0742 110C17.41 109.251 17.0973 108.255 17.2158 107.261L17.4834 105.019L17.4844 105.016L17.9922 100.793L18.0039 100.675L18.0098 100.63L18.458 96.9019L24.291 48.2212L24.502 46.4576L24.5254 46.2935C24.8055 44.6155 26.2602 43.3716 27.9775 43.3716H83.3555ZM27.3955 97.9761V97.9781L26.9463 101.707L26.8896 102.173H84.4404L83.9365 97.9771V97.9761L78.4727 52.3745H32.8604L27.3955 97.9761Z" fill="url(#paint1_linear_4019_2792)" stroke="white" stroke-width="7" stroke-linejoin="round"/>
<path d="M81.5791 45.3703L81.7441 45.3742C83.4427 45.4535 84.8492 46.7492 85.0537 48.4533L91.8623 105.255C92.0769 107.046 90.8957 108.706 89.1338 109.091C87.3718 109.476 85.606 108.459 85.0547 106.741C77.4515 83.0595 67.9572 69.7005 59.4561 62.1682C50.9845 54.6623 43.3128 52.7759 39.0049 52.3537C37.1472 52.1717 35.7585 50.5638 35.8496 48.6994C35.9407 46.8351 37.4791 45.3703 39.3457 45.3703H81.5791Z" fill="url(#paint2_linear_4019_2792)" stroke="white" stroke-width="7" stroke-linejoin="round"/>
<path d="M79.667 7.65561C79.6721 7.65548 79.6792 7.65577 79.6875 7.65561C79.6971 7.65542 79.7216 7.65463 79.7529 7.65463C79.6882 7.65463 79.6232 7.6569 79.5586 7.66049L78.8711 7.69858C77.5142 7.77396 76.3327 8.626 75.8252 9.86948L75.7324 10.1234L71.998 21.7552L69.8867 8.87827C69.6895 7.6761 68.8833 6.66925 67.7676 6.20932L67.54 6.12436L66.9668 5.93295L66.9658 5.93393C64.9221 5.2517 62.5875 4.83226 60.0703 4.63803L60.0713 4.63705C58.9045 4.5465 57.6735 4.5023 56.4062 4.50229C56.1508 4.50229 55.9009 4.50615 55.6719 4.50912C55.4395 4.50615 55.1851 4.50229 54.9248 4.50229C50.9203 4.5023 47.334 4.94309 44.3643 5.93295L43.791 6.12436C42.558 6.53537 41.6537 7.59573 41.4434 8.87827L39.332 21.7552L35.5977 10.1234C35.1823 8.82942 34.0598 7.9012 32.7285 7.72397L32.46 7.69858L31.7715 7.66049L31.5781 7.65463L31.6582 7.65561C31.6349 7.65485 31.5997 7.65377 31.5557 7.65268C31.4658 7.65045 31.3449 7.64877 31.1953 7.64877C29.9731 7.6488 27.0315 7.78713 22.6006 8.86069L21.6641 9.09604C19.4702 9.66586 17.2078 10.3888 14.9209 11.2464L14.208 11.514C12.7364 12.0659 11.8129 13.5313 11.9502 15.097L13.9912 38.3802C14.0046 38.533 14.0282 38.6856 14.0615 38.8353L14.0742 38.8919L14.0752 38.8988C14.0762 38.9032 14.0802 38.9195 14.083 38.932C14.0877 38.9527 14.0935 38.9782 14.1006 39.0081C14.1147 39.068 14.1333 39.1426 14.1562 39.2308C14.2021 39.407 14.2659 39.6355 14.3516 39.9076C14.5226 40.4507 14.7822 41.1725 15.1631 42.0052C15.9228 43.666 17.1835 45.8089 19.2197 47.849L19.7061 48.3197C22.163 50.62 25.1433 52.2482 28.5098 53.1956C28.8577 53.3115 29.2294 53.3763 29.6162 53.3763H81.7148C82.0398 53.3763 82.3633 53.3308 82.6758 53.2415L82.791 53.2074L82.792 53.2083C88.9879 51.4742 92.5951 47.7704 94.5244 44.9232C96.5086 41.9946 97.1438 39.4059 97.2559 38.891L97.2568 38.8919L97.2695 38.8353C97.3028 38.6856 97.3264 38.533 97.3398 38.3802L99.3809 15.097C99.5181 13.5313 98.5947 12.0659 97.123 11.514L96.4102 11.2464H96.4092C93.4582 10.1407 90.5596 9.25954 87.79 8.64291H87.7891C83.8546 7.76358 81.2299 7.64877 80.1348 7.64877C79.9841 7.64878 79.8628 7.65043 79.7725 7.65268C79.7273 7.6538 79.6915 7.65479 79.667 7.65561ZM79.667 7.65561C79.6612 7.6558 79.6558 7.65647 79.6523 7.65659H79.6504C79.6522 7.65653 79.6562 7.65575 79.6611 7.65561H79.667Z" fill="url(#paint3_linear_4019_2792)" stroke="white" stroke-width="7" stroke-linejoin="round"/>
<path d="M56.4072 3.5C57.6951 3.5 58.9544 3.54478 60.1465 3.63867L60.1475 3.6377C62.7515 3.83854 65.1663 4.2749 67.2852 4.98242L67.2842 4.9834L68.4297 5.36426C69.6611 5.77471 70.5645 6.83274 70.7764 8.11328L70.9736 9.30762L70.9746 9.3125L72.3164 17.4971L74.5723 10.4707L74.9922 9.16113L75.084 8.90723C75.591 7.66277 76.7732 6.80979 78.1309 6.73438L79.5068 6.6582V6.66016C79.6854 6.64946 79.9097 6.64258 80.1367 6.64258C81.261 6.64258 83.9753 6.76081 88.0088 7.66016H88.0117C90.4707 8.21025 93.0327 8.96309 95.6406 9.89453L96.7617 10.3047L96.7646 10.3057L98.1875 10.8408C99.6585 11.3937 100.58 12.8594 100.442 14.4248L100.309 15.9375L98.3418 38.4062L98.3408 38.4053L98.334 38.502C98.3215 38.6556 98.2982 38.8083 98.2656 38.959L98.2402 39.0723L98.2412 39.0732C98.1318 39.5818 97.4892 42.3319 95.3555 45.4834L95.3535 45.4854C94.0775 47.367 92.5157 49.025 90.7109 50.4053C88.4637 52.1241 85.8809 53.3815 83.0605 54.1709L83.0518 54.1729L82.7881 54.2461C82.4839 54.3304 82.1692 54.373 81.8535 54.373H29.4814C29.1657 54.373 28.8511 54.3304 28.5469 54.2461L28.2822 54.1729L28.2754 54.1709C24.4963 53.1156 21.1883 51.2351 18.5146 48.5576V48.5566C14.3282 44.3626 13.2256 39.6894 13.0947 39.0762L13.0684 38.959C13.0358 38.8083 13.0134 38.6556 13.001 38.502L12.9932 38.4062L11.0254 15.9404L10.8916 14.4248C10.7535 12.8594 11.6755 11.3937 13.1465 10.8408L14.5703 10.3057L14.5742 10.3037C17.2251 9.31129 19.8475 8.49386 22.3691 7.88379H22.3701C26.9092 6.78721 29.9465 6.64649 31.1973 6.64648C31.4246 6.64648 31.6487 6.65338 31.8271 6.66406L31.8281 6.66113L33.2031 6.7373L33.4727 6.7627C34.8045 6.94014 35.928 7.86933 36.3428 9.16406L36.7617 10.4746L39.0146 17.4941L40.3564 9.3125L40.5498 8.12305L40.5977 7.88477C40.8736 6.70819 41.7402 5.75015 42.8975 5.36426L44.0439 4.98242L44.0469 4.98145C47.1127 3.96204 50.804 3.5 54.9238 3.5C55.1409 3.5 55.4019 3.50225 55.6729 3.50781C55.9394 3.50219 56.1959 3.5 56.4072 3.5ZM55.7178 12.5059C55.6875 12.5063 55.6572 12.5062 55.627 12.5059C55.3751 12.5026 55.1491 12.5 54.9238 12.5C52.7654 12.5 50.6846 12.6512 48.8691 13.0068L46.6689 26.4365V26.4395L46.2354 29.082C45.9582 30.7739 44.4966 32.0164 42.7822 32.0166H36.7734C35.2526 32.0166 33.9053 31.034 33.4404 29.5859L29.0127 15.7949C28.0284 15.9109 26.743 16.1135 25.1748 16.4678L24.4805 16.6299C23.224 16.9341 21.8029 17.3334 20.2246 17.8535L21.9297 37.3242C21.9423 37.3686 21.9573 37.4226 21.9766 37.4844C22.0585 37.7469 22.2008 38.1532 22.4258 38.6484C22.8504 39.5833 23.5495 40.7941 24.6533 41.9619L24.8799 42.1943L24.8818 42.1973C26.0963 43.4163 27.8081 44.6089 30.2549 45.3701H81.0654C84.6364 44.26 86.6945 42.2048 87.8926 40.4355C88.5275 39.4978 88.9264 38.6291 89.1611 38.0137C89.2758 37.7129 89.3481 37.4779 89.3896 37.333L91.0957 17.8574C89.1725 17.2236 87.4822 16.7694 86.0391 16.4473C84.5186 16.108 83.2686 15.9132 82.3066 15.7998L77.8809 29.5889C77.4161 31.0368 76.0695 32.0194 74.5488 32.0195H68.543C66.8286 32.0195 65.3663 30.7777 65.0889 29.0859L62.4531 13.0088C61.5245 12.8256 60.5165 12.693 59.4492 12.6104H59.4463C58.4556 12.5328 57.4337 12.5 56.4043 12.5C56.1858 12.5 55.963 12.5026 55.7178 12.5059Z" fill="url(#paint4_linear_4019_2792)" stroke="white" stroke-width="7" stroke-linejoin="round"/>
<path d="M84.6631 10.2723C85.4879 9.62942 86.5575 9.38911 87.5781 9.61707C89.9285 10.1424 92.773 10.947 96.0615 12.1835C97.5314 12.7362 98.4533 14.2002 98.3164 15.7645L96.3486 38.2333C96.3365 38.372 96.3167 38.5101 96.2881 38.6464L92.8623 37.9276L96.2871 38.6503C96.287 38.651 96.2864 38.6522 96.2861 38.6532C96.2856 38.6558 96.2848 38.6591 96.2842 38.662C96.283 38.6676 96.2817 38.6739 96.2803 38.6805C96.2773 38.694 96.2735 38.7099 96.2695 38.7274C96.2616 38.7624 96.2517 38.8058 96.2393 38.8563C96.2143 38.9579 96.1803 39.0904 96.1348 39.2499C96.0438 39.5686 95.907 39.9982 95.7119 40.5096C95.323 41.5293 94.691 42.8975 93.6992 44.3622C91.6915 47.3271 88.2278 50.6486 82.5254 52.243C82.2187 52.3288 81.9015 52.3719 81.583 52.3719H48.0049C46.0719 52.3719 44.5049 50.8049 44.5049 48.8719C44.5051 46.9392 46.072 45.3719 48.0049 45.3719C65.5347 45.3719 74.1272 37.2155 78.5439 29.2548C80.8082 25.1737 82.011 21.0571 82.6436 17.9374C82.9583 16.3851 83.1276 15.1 83.2178 14.2177C83.2628 13.7773 83.2882 13.4387 83.3018 13.2196C83.3085 13.1105 83.3124 13.0307 83.3145 12.9833C83.3155 12.9598 83.3161 12.9438 83.3164 12.9364C83.3165 12.9337 83.3164 12.932 83.3164 12.9315C83.3467 11.889 83.8403 10.9137 84.6631 10.2723Z" fill="url(#paint5_linear_4019_2792)" stroke="white" stroke-width="7" stroke-linejoin="round"/>
<path d="M88.5303 101.17C89.6407 101.17 93.0067 101.361 96.5967 103.537L96.5977 103.536C101.268 106.365 104.146 111.129 105.49 117.103L105.491 117.107C105.573 117.474 106.695 122.695 106.802 129.936L106.817 130.953C106.832 131.89 106.469 132.794 105.812 133.463C105.154 134.131 104.255 134.507 103.317 134.507H8.01172C6.07872 134.507 4.51172 132.939 4.51172 131.007V130.949L4.52832 129.933C4.635 122.7 5.75407 117.472 5.84277 117.088H5.84375C7.18988 111.119 10.0671 106.362 14.7324 103.536V103.537C18.3229 101.36 21.6898 101.17 22.7998 101.17L23.002 101.173H88.3301C88.3719 101.171 88.4437 101.17 88.5303 101.17Z" fill="url(#paint6_linear_4019_2792)" stroke="white" stroke-width="7" stroke-linejoin="round"/>
<path d="M88.5312 100.169C89.6652 100.169 93.0768 100.354 96.7637 102.466L97.1211 102.677L97.125 102.68C99.3098 104.005 101.18 105.784 102.686 107.934C104.468 110.478 105.72 113.512 106.476 116.882C106.482 116.912 106.487 116.942 106.493 116.972C106.669 117.79 107.707 122.943 107.809 129.917V129.919L107.837 131.951C107.85 132.887 107.488 133.79 106.83 134.457C106.172 135.124 105.275 135.5 104.338 135.5H7C6.0632 135.5 5.16555 135.124 4.50781 134.457C3.85007 133.79 3.48677 132.887 3.5 131.951L3.5293 129.919V129.917C3.63064 122.93 4.67234 117.772 4.84277 116.977C4.8492 116.944 4.85493 116.911 4.8623 116.878C5.62052 113.518 6.86864 110.48 8.65234 107.934C10.1575 105.785 12.0273 104.005 14.2119 102.68L14.2139 102.679C18.0318 100.366 21.6351 100.169 22.8008 100.169C22.8862 100.169 22.9574 100.171 22.9951 100.172H88.3359C88.4446 100.17 88.5264 100.169 88.5312 100.169ZM22.7344 109.166C22.7381 109.167 22.7417 109.166 22.7451 109.166C22.7522 109.167 22.759 109.167 22.7646 109.167C22.7758 109.168 22.7842 109.169 22.79 109.169C22.8017 109.17 22.8028 109.169 22.7939 109.169C22.5331 109.169 20.7763 109.224 18.873 110.377C17.0902 111.457 14.7932 113.728 13.6406 118.856C13.6398 118.859 13.6387 118.864 13.6377 118.868C13.6317 118.897 13.6224 118.944 13.6094 119.008C13.5833 119.137 13.5443 119.338 13.4961 119.603C13.3996 120.134 13.2671 120.925 13.1309 121.926C12.9623 123.165 12.789 124.719 12.6699 126.5H98.6553C98.5362 124.719 98.3629 123.165 98.1943 121.926C98.0581 120.925 97.9256 120.134 97.8291 119.603C97.7809 119.338 97.7419 119.137 97.7158 119.008C97.7028 118.944 97.6935 118.897 97.6875 118.868C97.6845 118.854 97.6817 118.845 97.6807 118.84C97.6802 118.838 97.6807 118.836 97.6807 118.836C96.5266 113.72 94.2324 111.455 92.4521 110.376C90.7868 109.368 89.2336 109.199 88.6963 109.173L88.5312 109.169C88.5295 109.169 88.5275 109.169 88.5254 109.169C88.5208 109.169 88.5079 109.17 88.4922 109.17C88.4841 109.17 88.4715 109.171 88.4561 109.171C88.4419 109.172 88.4144 109.172 88.3809 109.172H22.9404C22.8701 109.172 22.7997 109.17 22.7295 109.165C22.7311 109.165 22.7328 109.166 22.7344 109.166Z" fill="url(#paint7_linear_4019_2792)" stroke="white" stroke-width="7" stroke-linejoin="round"/>
<path d="M84.8838 105.645C84.8983 103.794 86.3537 102.271 88.2061 102.177L88.3838 105.673C88.2057 102.177 88.2086 102.177 88.2109 102.177C88.2119 102.177 88.2143 102.177 88.2158 102.177C88.2191 102.177 88.223 102.176 88.2266 102.176C88.2337 102.175 88.2416 102.175 88.25 102.175C88.2671 102.174 88.2866 102.174 88.3086 102.173C88.3528 102.172 88.4074 102.17 88.4707 102.17C88.5973 102.169 88.7616 102.171 88.959 102.18C89.3532 102.196 89.8851 102.239 90.5176 102.341C91.7779 102.543 93.4761 102.984 95.2891 103.943C99.0299 105.922 102.808 109.87 104.487 117.211L104.488 117.213C104.497 117.248 104.504 117.276 104.506 117.284C104.511 117.306 104.515 117.326 104.518 117.336C104.523 117.359 104.529 117.385 104.534 117.41C104.546 117.463 104.56 117.534 104.577 117.62C104.612 117.794 104.661 118.04 104.718 118.352C104.831 118.976 104.98 119.869 105.132 120.982C105.434 123.206 105.749 126.327 105.803 129.949C105.816 130.886 105.454 131.79 104.796 132.457C104.138 133.125 103.24 133.501 102.303 133.501H39.3428C37.4483 133.501 35.8974 131.993 35.8438 130.1C35.7902 128.206 37.254 126.613 39.1455 126.506C63.2359 125.143 74.5733 119.205 79.876 114.24C82.5221 111.763 83.7567 109.449 84.3408 107.869C84.6359 107.071 84.7719 106.442 84.834 106.053C84.865 105.858 84.877 105.723 84.8818 105.657C84.8839 105.63 84.8847 105.615 84.8848 105.612C84.8847 105.614 84.8849 105.62 84.8848 105.631C84.8847 105.635 84.8838 105.639 84.8838 105.645Z" fill="url(#paint8_linear_4019_2792)" stroke="white" stroke-width="7" stroke-linejoin="round"/>
</g>
<path d="M21.8164 106.676L22.4756 101.168L22.9245 97.4388L28.8633 47.8719H82.4677L88.4065 97.4388L89.5146 106.676H21.8164Z" fill="url(#paint9_linear_4019_2792)"/>
<path d="M81.5784 48.8745L87.412 97.5593L88.3864 105.673H22.9459L23.4713 101.288L23.9203 97.5593L29.7539 48.8745H81.5784ZM83.3552 46.8716H81.5784H29.7539H27.9771L27.7669 48.6357L21.9333 97.3205L21.4843 101.049L21.4716 101.167L20.9589 105.434L20.6914 107.676H22.9491H88.3896H90.6473L90.3798 105.434L89.4054 97.3173L83.5717 48.6325L83.3552 46.8716Z" fill="url(#paint10_linear_4019_2792)"/>
<path d="M88.3871 105.672C72.9018 57.4393 49.2584 49.8415 39.3457 48.8703H81.579L88.3871 105.672Z" fill="url(#paint11_linear_4019_2792)"/>
<path d="M29.6162 49.8727L29.4825 49.8345C26.4128 48.9747 23.7922 47.4749 21.6969 45.3764C18.3343 42.0075 17.5255 38.2882 17.4905 38.1322L17.4777 38.0748L15.4365 14.7912L16.1498 14.5237C18.6463 13.5875 21.0919 12.8265 23.4228 12.2629C27.5751 11.2566 30.2403 11.1484 31.1956 11.1484C31.4313 11.1484 31.5619 11.1548 31.5778 11.1548L32.2656 11.193L37.5069 27.5221H41.9331L42.2165 25.7994V25.6401L42.2547 25.5637L44.8977 9.44479L45.4709 9.25372C47.9642 8.42261 51.1453 8.00229 54.925 8.00229C55.1766 8.00229 55.425 8.00548 55.6734 8.00866C55.9185 8.00548 56.1606 8.00229 56.4058 8.00229C57.5935 8.00229 58.7335 8.04369 59.8002 8.12648C62.112 8.3048 64.1531 8.68373 65.8599 9.25372L66.4331 9.44479L69.3977 27.5221H73.8239L79.0652 11.193L79.753 11.1548C79.7657 11.1548 79.8963 11.1484 80.1352 11.1484C80.9854 11.1484 83.3545 11.2375 87.0291 12.0591C89.618 12.6354 92.3597 13.4665 95.181 14.5237L95.8943 14.7912L93.8531 38.0748L93.8403 38.1322C93.8212 38.2245 93.3468 40.4217 91.6272 42.9596C90.0478 45.2905 87.0705 48.3761 81.8483 49.8377L81.7146 49.8759H29.6162V49.8727Z" fill="url(#paint12_linear_4019_2792)"/>
<path d="M54.9235 8.99975C55.1751 8.99975 55.4235 9.00294 55.6719 9.00613C55.9139 9.00294 56.1591 8.99975 56.4043 8.99975C57.5061 8.99975 58.6205 9.03478 59.7191 9.12076C61.7762 9.27997 63.7791 9.61114 65.54 10.2002L68.5428 28.5195H74.5484L79.8025 12.1522C79.8025 12.1522 79.9108 12.1458 80.1273 12.1458C80.9329 12.1458 83.2193 12.2318 86.8016 13.0311C88.9988 13.5215 91.6863 14.2825 94.8196 15.4575L92.8518 37.926C92.8518 37.926 91.1163 46.202 81.573 48.8704H29.7485C26.4496 47.947 24.0868 46.358 22.4023 44.6671C19.2117 41.4701 18.4697 37.9228 18.4697 37.9228L16.5018 15.4543C19.2371 14.429 21.6317 13.7189 23.6569 13.2285C27.736 12.2414 30.3248 12.1427 31.1941 12.1427C31.4107 12.1427 31.519 12.149 31.519 12.149L36.773 28.5163H42.7819L43.2149 25.8734V25.8702L45.7846 10.1939C48.4913 9.29908 51.7647 8.99975 54.9235 8.99975ZM54.9235 7C51.0355 7 47.7462 7.43944 45.151 8.30239L44.0046 8.68451L43.8104 9.87862L41.2916 25.2461L41.2152 25.3989V25.7205L41.0846 26.523H38.2379L33.4295 11.544L33.0093 10.2321L31.6336 10.1557C31.5954 10.1525 31.4489 10.1461 31.1973 10.1461C30.2102 10.1461 27.4495 10.2575 23.192 11.2861C20.8229 11.8593 18.336 12.633 15.8013 13.582L14.3779 14.1169L14.5116 15.6327L16.4795 38.1011L16.4891 38.2189L16.5146 38.3367C16.5496 38.5055 17.4189 42.505 20.9917 46.0841C23.2112 48.3068 25.9783 49.8957 29.2167 50.8001L29.481 50.8733H29.7548H81.5793H81.8532L82.1175 50.8001C84.5408 50.1218 86.7156 49.0551 88.5848 47.6253C90.0877 46.4758 91.3902 45.0938 92.4569 43.5208C94.2529 40.8682 94.7655 38.5883 94.8196 38.3367L94.8451 38.2189L94.8547 38.1011L96.8226 15.6327L96.9563 14.1169L95.5329 13.582C92.6702 12.5089 89.8808 11.665 87.2474 11.0759C83.4772 10.2353 81.0189 10.1429 80.1369 10.1429C79.8853 10.1429 79.7388 10.1493 79.7006 10.1525L78.325 10.2289L77.9047 11.5408L73.0964 26.5198H70.2496L67.5206 9.87862L67.3233 8.68451L66.1769 8.30239C64.3937 7.70692 62.2729 7.31207 59.8783 7.12738C58.7893 7.0414 57.6207 7 56.4075 7C56.1655 7 55.9203 7.00001 55.6751 7.00637C55.4235 7.00001 55.1719 7 54.9235 7Z" fill="url(#paint13_linear_4019_2792)"/>
<path d="M94.83 15.4595L92.8621 37.928C92.8621 37.928 91.1266 46.204 81.5833 48.8724H48.0049C85.8566 48.8724 86.8152 13.0331 86.8152 13.0331C89.0091 13.5235 91.6967 14.2813 94.83 15.4595Z" fill="url(#paint14_linear_4019_2792)"/>
<path d="M8.01172 131.004L8.02758 129.988C8.12948 123.059 9.2058 118.082 9.25356 117.875C10.4509 112.551 12.9027 108.736 16.5456 106.529C19.3923 104.803 22.0513 104.67 22.7996 104.67C22.8792 104.67 22.9333 104.673 22.9652 104.673H88.3643C88.3961 104.673 88.4534 104.67 88.5298 104.67C89.2782 104.67 91.9371 104.803 94.7839 106.529C98.4267 108.736 100.879 112.551 102.076 117.872C102.124 118.085 103.2 123.059 103.302 129.991L103.318 131.007H8.01172V131.004Z" fill="url(#paint15_linear_4019_2792)"/>
<path d="M88.5308 105.669C89.7599 105.669 98.4053 106.099 101.099 118.088C101.099 118.088 102.201 123.093 102.3 130H9.02525C9.12396 123.093 10.2257 118.088 10.2257 118.088C12.9197 106.102 21.565 105.669 22.7942 105.669C22.8897 105.669 22.9406 105.672 22.9406 105.672H88.3811C88.3875 105.672 88.4385 105.669 88.5308 105.669ZM88.5308 103.669C88.4544 103.669 88.3907 103.669 88.3493 103.672H22.9821C22.9375 103.672 22.877 103.669 22.8005 103.669C21.9885 103.669 19.0972 103.813 16.0275 105.672C14.2793 106.733 12.7605 108.169 11.5186 109.942C10.0442 112.047 8.95516 114.642 8.27691 117.648V117.652V117.655C8.22914 117.868 7.13058 122.941 7.02869 129.968L7 132H9.03162H102.306H104.338L104.309 129.968C104.207 122.937 103.109 117.865 103.061 117.655V117.652V117.648C102.386 114.639 101.293 112.047 99.8191 109.942C98.5772 108.169 97.0584 106.733 95.3102 105.672C92.2342 103.813 89.346 103.669 88.5308 103.669Z" fill="url(#paint16_linear_4019_2792)"/>
<path d="M102.303 130.001H39.3428C88.4224 127.224 88.3842 105.673 88.3842 105.673C88.3842 105.673 98.195 105.173 101.099 118.088C101.102 118.088 102.201 123.094 102.303 130.001Z" fill="url(#paint17_linear_4019_2792)"/>
<defs>
<filter id="filter0_d_4019_2792" x="0" y="0" width="115.338" height="143" filterUnits="userSpaceOnUse" color-interpolation-filters="sRGB">
<feFlood flood-opacity="0" result="BackgroundImageFix"/>
<feColorMatrix in="SourceAlpha" type="matrix" values="0 0 0 0 0 0 0 0 0 0 0 0 0 0 0 0 0 0 127 0" result="hardAlpha"/>
<feOffset dx="2" dy="2"/>
<feGaussianBlur stdDeviation="1"/>
<feComposite in2="hardAlpha" operator="out"/>
<feColorMatrix type="matrix" values="0 0 0 0 0 0 0 0 0 0 0 0 0 0 0 0 0 0 0.25 0"/>
<feBlend mode="normal" in2="BackgroundImageFix" result="effect1_dropShadow_4019_2792"/>
<feBlend mode="normal" in="SourceGraphic" in2="effect1_dropShadow_4019_2792" result="shape"/>
</filter>
<linearGradient id="paint0_linear_4019_2792" x1="55.6655" y1="47.8719" x2="55.6655" y2="106.676" gradientUnits="userSpaceOnUse">
<stop stop-color="white"/>
<stop offset="1" stop-color="#D7D7D7"/>
</linearGradient>
<linearGradient id="paint1_linear_4019_2792" x1="55.6694" y1="46.8716" x2="55.6694" y2="107.676" gradientUnits="userSpaceOnUse">
<stop stop-color="#45464E"/>
<stop offset="1" stop-color="#353535"/>
</linearGradient>
<linearGradient id="paint2_linear_4019_2792" x1="63.8664" y1="48.8703" x2="63.8664" y2="105.672" gradientUnits="userSpaceOnUse">
<stop stop-color="#C8C8C8"/>
<stop offset="1" stop-color="#919191"/>
</linearGradient>
<linearGradient id="paint3_linear_4019_2792" x1="55.6654" y1="8.00229" x2="55.6654" y2="49.8759" gradientUnits="userSpaceOnUse">
<stop stop-color="white"/>
<stop offset="1" stop-color="#D7D7D7"/>
</linearGradient>
<linearGradient id="paint4_linear_4019_2792" x1="55.6671" y1="7" x2="55.6671" y2="50.8733" gradientUnits="userSpaceOnUse">
<stop stop-color="#45464E"/>
<stop offset="1" stop-color="#353535"/>
</linearGradient>
<linearGradient id="paint5_linear_4019_2792" x1="71.4174" y1="13.0331" x2="71.4174" y2="48.8724" gradientUnits="userSpaceOnUse">
<stop stop-color="#C8C8C8"/>
<stop offset="1" stop-color="#919191"/>
</linearGradient>
<linearGradient id="paint6_linear_4019_2792" x1="55.6647" y1="104.67" x2="55.6647" y2="131.007" gradientUnits="userSpaceOnUse">
<stop stop-color="white"/>
<stop offset="1" stop-color="#D7D7D7"/>
</linearGradient>
<linearGradient id="paint7_linear_4019_2792" x1="55.6688" y1="103.669" x2="55.6688" y2="132" gradientUnits="userSpaceOnUse">
<stop stop-color="#45464E"/>
<stop offset="1" stop-color="#353535"/>
</linearGradient>
<linearGradient id="paint8_linear_4019_2792" x1="70.8227" y1="105.67" x2="70.8227" y2="130.001" gradientUnits="userSpaceOnUse">
<stop stop-color="#C8C8C8"/>
<stop offset="1" stop-color="#919191"/>
</linearGradient>
<linearGradient id="paint9_linear_4019_2792" x1="55.6655" y1="47.8719" x2="55.6655" y2="106.676" gradientUnits="userSpaceOnUse">
<stop stop-color="white"/>
<stop offset="1" stop-color="#D7D7D7"/>
</linearGradient>
<linearGradient id="paint10_linear_4019_2792" x1="55.6694" y1="46.8716" x2="55.6694" y2="107.676" gradientUnits="userSpaceOnUse">
<stop stop-color="#45464E"/>
<stop offset="1" stop-color="#353535"/>
</linearGradient>
<linearGradient id="paint11_linear_4019_2792" x1="63.8664" y1="48.8703" x2="63.8664" y2="105.672" gradientUnits="userSpaceOnUse">
<stop stop-color="#C8C8C8"/>
<stop offset="1" stop-color="#919191"/>
</linearGradient>
<linearGradient id="paint12_linear_4019_2792" x1="55.6654" y1="8.00229" x2="55.6654" y2="49.8759" gradientUnits="userSpaceOnUse">
<stop stop-color="white"/>
<stop offset="1" stop-color="#D7D7D7"/>
</linearGradient>
<linearGradient id="paint13_linear_4019_2792" x1="55.6671" y1="7" x2="55.6671" y2="50.8733" gradientUnits="userSpaceOnUse">
<stop stop-color="#45464E"/>
<stop offset="1" stop-color="#353535"/>
</linearGradient>
<linearGradient id="paint14_linear_4019_2792" x1="71.4174" y1="13.0331" x2="71.4174" y2="48.8724" gradientUnits="userSpaceOnUse">
<stop stop-color="#C8C8C8"/>
<stop offset="1" stop-color="#919191"/>
</linearGradient>
<linearGradient id="paint15_linear_4019_2792" x1="55.6647" y1="104.67" x2="55.6647" y2="131.007" gradientUnits="userSpaceOnUse">
<stop stop-color="white"/>
<stop offset="1" stop-color="#D7D7D7"/>
</linearGradient>
<linearGradient id="paint16_linear_4019_2792" x1="55.6688" y1="103.669" x2="55.6688" y2="132" gradientUnits="userSpaceOnUse">
<stop stop-color="#45464E"/>
<stop offset="1" stop-color="#353535"/>
</linearGradient>
<linearGradient id="paint17_linear_4019_2792" x1="70.8227" y1="105.67" x2="70.8227" y2="130.001" gradientUnits="userSpaceOnUse">
<stop stop-color="#C8C8C8"/>
<stop offset="1" stop-color="#919191"/>
</linearGradient>
</defs>
</svg>
