<svg width="118" height="143" viewBox="0 0 118 143" fill="none" xmlns="http://www.w3.org/2000/svg">
<g filter="url(#filter0_d_4019_2718)">
<path d="M72.0107 64.1079C72.9872 64.1079 73.9195 64.5157 74.582 65.2329C75.2445 65.9501 75.5773 66.9119 75.5 67.8853L75.3838 69.3413C75.3796 69.3937 75.3747 69.4464 75.3682 69.4985C75.4266 69.0311 75.1286 72.2065 76.6689 76.8472L76.9512 77.6528C78.4682 81.7859 81.7407 87.6781 88.8301 93.1558C89.4905 93.5838 91.2938 94.767 93.2188 96.1353C95.1776 97.5276 97.6665 99.3902 98.9834 100.873C99.9058 101.85 105.173 107.696 106.956 115.736L107.124 116.555L107.129 116.581C107.185 116.892 108.29 123.129 108.194 129.379V129.383L108.174 130.711C108.143 132.622 106.585 134.155 104.674 134.155H8.36816C6.4957 134.155 4.96665 132.684 4.87305 130.834L4.86816 130.655L4.84766 129.378V129.375C4.75232 123.124 5.85948 116.881 5.90527 116.616C5.90835 116.598 5.91169 116.58 5.91504 116.562C7.57858 107.739 13.5833 101.362 14.1416 100.778C15.4765 99.314 17.9038 97.4987 19.8232 96.1343C21.7424 94.7701 23.5409 93.5893 24.1992 93.1606C31.776 87.314 34.9943 80.9936 36.373 76.8423C37.6462 73.0066 37.677 70.1397 37.6553 69.3071L37.5459 67.8804C37.4714 66.9103 37.8039 65.9527 38.4639 65.2378C39.124 64.5229 40.0523 64.1147 41.0254 64.1118L42.4775 64.1079H72.0107Z" fill="url(#paint0_linear_4019_2718)" stroke="white" stroke-width="7" stroke-linejoin="round"/>
<path d="M73.4756 62.7371C74.4612 62.7287 75.4047 63.1367 76.0742 63.8602C76.7437 64.5837 77.0779 65.5558 76.9932 66.5379L76.7422 69.4344C76.7347 69.6936 76.6636 72.5721 78.001 76.5418C79.9455 82.3108 83.7847 87.5376 89.6201 92.0535C90.454 92.5957 92.3314 93.8312 94.2891 95.2332C96.2529 96.6396 98.646 98.4561 99.9873 99.9568H99.9863C100.953 100.989 106.72 107.391 108.427 116.129C108.452 116.23 108.47 116.333 108.486 116.436C108.49 116.455 108.494 116.478 108.499 116.505C108.51 116.57 108.525 116.657 108.543 116.765C108.579 116.982 108.626 117.281 108.682 117.648C108.793 118.383 108.935 119.399 109.072 120.601C109.345 122.991 109.607 126.183 109.557 129.403V129.405L109.514 132.056C109.483 133.967 107.925 135.5 106.015 135.5H7.04883C5.13787 135.5 3.57969 133.967 3.54883 132.056L3.50586 129.405V129.403C3.41468 123.572 4.35177 117.761 4.55762 116.561C4.56725 116.476 4.57883 116.391 4.59473 116.306C6.0896 108.366 10.9646 102.323 12.6387 100.431L13.1406 99.8817C14.4936 98.3978 16.8378 96.6172 18.7705 95.2322C20.7202 93.8351 22.5904 92.6036 23.4346 92.0565C29.2725 87.5396 33.1137 82.3115 35.0586 76.5408C35.7761 74.4108 36.0885 72.5896 36.2217 71.3094C36.2882 70.6701 36.3091 70.1681 36.3145 69.8338C36.3171 69.6673 36.3162 69.5424 36.3145 69.4627C36.3137 69.4272 36.3113 69.3997 36.3105 69.3797L36.0586 66.576C35.9707 65.5973 36.298 64.6265 36.9609 63.9012C37.624 63.1758 38.5621 62.7625 39.5449 62.7625H70.5234L73.4756 62.7371ZM45.8418 72.4578C45.6452 74.2622 45.2237 76.6222 44.3408 79.3221C42.3629 85.3702 38.1078 93.0215 29.1455 99.8875C29.071 99.9445 28.9938 99.9978 28.915 100.049V100.05C28.9145 100.05 28.9135 100.051 28.9121 100.052C28.9093 100.053 28.9047 100.057 28.8984 100.061C28.8858 100.069 28.8664 100.082 28.8408 100.098C28.7892 100.132 28.712 100.183 28.6123 100.248C28.4129 100.378 28.1239 100.568 27.7705 100.804C27.0618 101.276 26.0995 101.926 25.082 102.641C22.8913 104.181 20.9329 105.688 20.2861 106.424C20.2476 106.467 20.2076 106.511 20.167 106.553C20.1625 106.557 20.1552 106.565 20.1455 106.575C20.119 106.603 20.0736 106.652 20.0117 106.721C19.8879 106.858 19.6987 107.073 19.4619 107.358C18.9868 107.931 18.3291 108.779 17.6289 109.844C16.2127 111.996 14.7239 114.882 14.1172 118.074C14.1158 118.082 14.1136 118.096 14.1104 118.115C14.1037 118.154 14.0934 118.214 14.0801 118.295C14.0534 118.456 14.0138 118.697 13.9668 119.007C13.8726 119.628 13.7473 120.521 13.624 121.59C13.4812 122.828 13.3461 124.28 13.2637 125.805H99.7754C99.6934 124.28 99.5582 122.828 99.415 121.59C99.2916 120.521 99.1658 119.629 99.0713 119.009C99.0241 118.699 98.9848 118.457 98.958 118.297C98.9446 118.217 98.9344 118.156 98.9277 118.118C98.9266 118.111 98.9257 118.105 98.9248 118.099L98.8018 117.503C98.1352 114.539 96.7403 111.867 95.4092 109.844C94.7089 108.779 94.0503 107.931 93.5752 107.358C93.3384 107.073 93.1492 106.857 93.0254 106.721C92.9636 106.652 92.9181 106.603 92.8916 106.575L92.8691 106.552L92.8701 106.553C92.8295 106.511 92.7904 106.467 92.752 106.424C92.1055 105.688 90.1462 104.181 87.9551 102.641C86.9376 101.926 85.9763 101.276 85.2676 100.804C84.9139 100.568 84.6243 100.378 84.4248 100.248C84.3251 100.183 84.2479 100.132 84.1963 100.098C84.1707 100.082 84.1512 100.069 84.1387 100.061C84.1324 100.057 84.1278 100.053 84.125 100.052C84.1237 100.051 84.1226 100.05 84.1221 100.05C84.043 99.9986 83.9653 99.9448 83.8906 99.8875C74.9309 93.0217 70.6767 85.3707 68.6982 79.3231C67.8149 76.6229 67.3922 74.2623 67.1953 72.4578H45.8418Z" fill="url(#paint1_linear_4019_2718)" stroke="white" stroke-width="7" stroke-linejoin="round"/>
<path d="M70.5537 65.4626C71.5306 65.4626 72.4634 65.8708 73.126 66.5886C73.7885 67.3066 74.1212 68.2691 74.043 69.2429C74.0424 69.2539 74.0418 69.2689 74.041 69.2878C74.038 69.3582 74.0336 69.4826 74.0332 69.656C74.0323 70.0032 74.0459 70.5468 74.1084 71.2527C74.2336 72.6659 74.5552 74.7195 75.3506 77.1511C76.9239 81.9604 80.3813 88.3525 88.0557 94.2634C88.109 94.2982 88.1774 94.342 88.2588 94.3953C88.472 94.5349 88.7771 94.7358 89.1484 94.9832C89.8897 95.477 90.9019 96.1616 91.9805 96.9197C93.9236 98.2854 96.5446 100.208 97.8916 101.68L97.9053 101.694C97.9113 101.7 97.9182 101.709 97.9268 101.718C97.9443 101.736 97.9674 101.76 97.9951 101.79C98.0506 101.849 98.1262 101.93 98.2188 102.032C98.4037 102.237 98.6585 102.527 98.9639 102.895C99.5732 103.63 100.391 104.685 101.257 106.001C102.956 108.583 104.935 112.317 105.782 116.706C105.788 116.731 105.796 116.768 105.798 116.78C105.801 116.797 105.804 116.811 105.805 116.813C105.806 116.822 105.808 116.829 105.809 116.833C105.81 116.841 105.811 116.85 105.812 116.858C105.815 116.875 105.82 116.897 105.824 116.924C105.833 116.977 105.846 117.052 105.862 117.147C105.894 117.338 105.939 117.612 105.991 117.957C106.096 118.646 106.234 119.622 106.369 120.787C106.637 123.1 106.902 126.23 106.854 129.36C106.824 131.268 105.272 132.801 103.364 132.806C101.456 132.812 99.8953 131.288 99.8545 129.381C99.7489 124.441 99.1395 121.206 96.4375 118.072C93.5263 114.695 87.8646 111.066 76.4424 106.618C63.9361 101.747 56.216 92.4407 51.6641 84.5427C49.3818 80.5829 47.863 76.9236 46.9121 74.2458C46.4359 72.9048 46.1 71.803 45.8799 71.0242C45.7698 70.6345 45.688 70.3251 45.6328 70.1062C45.6053 69.997 45.5843 69.9103 45.5693 69.8474C45.5618 69.8159 45.5563 69.7897 45.5518 69.7703C45.5495 69.7606 45.5474 69.7524 45.5459 69.7458C45.5452 69.7426 45.5445 69.7395 45.5439 69.7371C45.5437 69.736 45.5431 69.7348 45.543 69.7341C45.5426 69.7326 45.5424 69.7309 48.957 68.9626L45.542 69.7312C45.3086 68.694 45.5595 67.6063 46.2236 66.7761C46.8878 65.9459 47.8938 65.4626 48.957 65.4626H70.5537Z" fill="url(#paint2_linear_4019_2718)" stroke="white" stroke-width="7" stroke-linejoin="round"/>
<path d="M56.5225 4.84125C66.4096 4.84125 75.5494 10.2004 80.3838 18.8315H80.3848C82.6624 22.8949 83.8643 27.5074 83.8643 32.183C83.8642 38.2135 81.9102 43.9481 78.3643 48.6371L87.7061 54.5844C88.6286 55.1717 89.2236 56.1567 89.3145 57.2465L89.3701 57.9145C89.371 57.9245 89.3723 57.9347 89.373 57.9448C89.3901 58.1734 89.5404 60.1686 89.3018 62.7338C89.0705 65.2194 88.4397 68.6697 86.6172 71.5502L86.6113 71.559L86.2129 72.184C85.5703 73.1929 84.4569 73.8041 83.2607 73.8041H29.7852C28.589 73.8041 27.4756 73.1929 26.833 72.184L26.4346 71.559L26.4297 71.5512C24.6067 68.6728 23.974 65.2237 23.7422 62.7377C23.5079 60.2249 23.6471 58.252 23.6758 57.9145L23.7305 57.2465L23.7539 57.0434C23.8975 56.0351 24.474 55.135 25.3389 54.5844L34.6807 48.6371C31.1349 43.9482 29.1807 38.2134 29.1807 32.183C29.1807 17.1019 41.4413 4.84142 56.5225 4.84125Z" fill="url(#paint3_linear_4019_2718)" stroke="white" stroke-width="7" stroke-linejoin="round"/>
<path d="M56.5225 3.5C61.7073 3.5 66.7985 4.89784 71.2334 7.56152L71.6338 7.80566C75.7567 10.3664 79.1805 13.9441 81.5537 18.1797L81.9883 18.9854C84.0959 23.0466 85.2051 27.5916 85.2051 32.1914C85.2051 36.6393 84.2086 40.9214 82.2432 44.8936L82.2441 44.8945C81.6668 46.0659 81.0057 47.1939 80.2734 48.2725L87.8604 53.1016L88.9912 53.8213L89.1611 53.9365C89.9898 54.5348 90.5183 55.4686 90.6006 56.4941L90.708 57.8311C90.7103 57.8595 90.7123 57.8885 90.7139 57.917C90.7156 57.9365 90.7577 58.5046 90.7705 59.3311C90.7804 59.9671 90.774 60.7813 90.7227 61.7051L90.6553 62.6641C90.3411 66.3242 89.4303 69.6246 87.7471 72.2832V72.2842L86.9541 73.5352C86.3123 74.5481 85.1962 75.1621 83.9971 75.1621H29.0391C27.8401 75.162 26.7247 74.5479 26.083 73.5352L25.29 72.2842V72.2832C23.7121 69.7909 22.8133 66.7347 22.4482 63.3467L22.3818 62.6641C22.2689 61.3449 22.2535 60.1792 22.2666 59.3311C22.2794 58.5042 22.3216 57.936 22.3232 57.917L22.3291 57.8311L22.4355 56.4941L22.458 56.291C22.599 55.2784 23.1776 54.3739 24.0459 53.8213L25.1768 53.1016L32.7627 48.2725C32.0308 47.1941 31.3715 46.0666 30.7949 44.8994C28.8278 40.9257 27.8311 36.6412 27.8311 32.1914C27.8311 28.3268 28.5875 24.5628 30.0879 21.0195C31.5332 17.5979 33.6055 14.5312 36.2344 11.9023C38.8651 9.27169 41.9366 7.20037 45.3525 5.75586C48.8985 4.25639 52.6616 3.50003 56.5225 3.5ZM56.5225 13.1904C46.0315 13.1906 37.5266 21.6955 37.5264 32.1865C37.5264 38.2216 40.3381 43.5985 44.7412 47.085C45.909 48.0096 46.3644 49.5726 45.875 50.9795C45.4203 52.2864 44.2428 53.1912 42.8838 53.3135L31.9629 60.2627C31.9717 60.7239 31.994 61.254 32.043 61.8223C32.1527 63.0944 32.3764 64.3664 32.7402 65.459H80.3066C80.6709 64.3668 80.8945 63.0945 81.0039 61.8223C81.0527 61.2546 81.0743 60.7255 81.083 60.2646L70.1611 53.3135C68.802 53.191 67.6254 52.2857 67.1709 50.9785C66.6817 49.5713 67.1362 48.0083 68.3047 47.084C72.7059 43.6029 75.5195 38.2229 75.5195 32.1865C75.5195 28.8102 74.6404 25.6534 73.1045 22.9141L73.1035 22.9121C69.8509 17.1024 63.6422 13.1904 56.5225 13.1904Z" fill="url(#paint4_linear_4019_2718)" stroke="white" stroke-width="7" stroke-linejoin="round"/>
<path d="M75.1094 17.8624C76.6883 17.369 78.397 18.0486 79.2061 19.4913C81.3113 23.2461 82.5152 27.5773 82.5156 32.1857L82.5049 32.9581C82.3024 40.0209 79.2711 46.3774 74.5225 50.9366C74.1319 52.1058 73.1391 53.0254 71.8574 53.2687C69.8542 53.6489 65.5182 54.0982 61.8838 54.4415C60.0229 54.6173 58.2769 54.7719 56.9971 54.882C56.3569 54.937 55.8325 54.9805 55.4678 55.0109C55.2856 55.026 55.1431 55.038 55.0459 55.046C54.9973 55.05 54.9598 55.0527 54.9346 55.0548C54.9222 55.0558 54.9128 55.0572 54.9062 55.0577C54.9031 55.058 54.9001 55.0576 54.8984 55.0577L54.8965 55.0587C53.0278 55.2104 51.3702 53.8625 51.1387 52.0021C50.9073 50.1416 52.1834 48.429 54.0322 48.1183C64.4695 46.3645 69.0016 39.9489 71.0811 33.757C72.1428 30.5952 72.5444 27.5061 72.6738 25.1847C72.7381 24.0317 72.7348 23.088 72.7158 22.4454C72.7064 22.1249 72.6926 21.8808 72.6826 21.7247C72.6776 21.647 72.6735 21.591 72.6709 21.5587C72.67 21.5481 72.6694 21.5397 72.6689 21.5343L72.668 21.5284V21.5275C72.515 19.8833 73.5326 18.3552 75.1094 17.8624Z" fill="url(#paint5_linear_4019_2718)" stroke="white" stroke-width="7" stroke-linejoin="round"/>
</g>
<path d="M8.36863 130.65L8.34724 129.322C8.25727 123.423 9.31118 117.459 9.35403 117.211C10.8192 109.439 16.2045 103.685 16.6715 103.197C18.6808 100.935 25.2828 96.6293 26.2467 96.0038C34.5153 89.6545 38.1226 82.6798 39.6949 77.9458C41.4043 72.7961 41.1473 69.0945 41.1473 69.0603L41.0359 67.6122L42.4882 67.6079H72.0109L71.8952 69.0646C71.8909 69.0988 71.6381 72.8004 73.3475 77.95C74.9199 82.6841 78.5315 89.6588 86.7957 96.0081C87.7597 96.6293 94.3617 100.935 96.371 103.201C96.838 103.685 102.223 109.439 103.684 117.202C103.731 117.463 104.785 123.427 104.695 129.326L104.674 130.655H8.36863V130.65Z" fill="url(#paint6_linear_4019_2718)"/>
<path d="M70.5538 68.9576C70.5538 68.9576 69.3199 84.3123 86.0198 97.1093C86.0198 97.1093 93.4273 101.89 95.3809 104.114C95.3809 104.114 100.925 109.816 102.364 117.451C102.364 117.451 103.444 123.466 103.35 129.305H9.68778C9.59781 123.466 10.6731 117.451 10.6731 117.451C12.1126 109.816 17.6564 104.114 17.6564 104.114C19.61 101.89 27.0175 97.1093 27.0175 97.1093C43.7217 84.3123 42.4835 68.9576 42.4835 68.9576H70.5538ZM73.5056 66.2371L70.5538 66.2628H42.4921H39.5445L39.8059 69.1675C39.8144 69.3432 39.9987 72.8391 38.375 77.6589C36.1643 84.218 31.8244 90.0189 25.4709 94.9072C23.9971 95.8583 17.7764 99.9497 15.6814 102.289C15.0602 102.944 9.54635 108.921 8.03402 116.954V116.967V116.98C7.9869 117.237 6.9116 123.32 7.00585 129.348L7.04868 132H9.70059H103.362H106.014L106.057 129.348C106.151 123.32 105.072 117.232 105.029 116.98V116.967L105.025 116.954C103.512 108.921 97.9985 102.944 97.3773 102.289C95.2866 99.9497 89.0617 95.8626 87.5879 94.9072C81.2344 90.0189 76.8945 84.218 74.6838 77.6589C73.0601 72.8391 73.24 69.3432 73.2529 69.1675L73.5056 66.2371Z" fill="url(#paint7_linear_4019_2718)"/>
<path d="M103.354 129.306C103.131 118.882 100.749 112.328 77.7128 103.356C54.6765 94.3853 48.957 68.9626 48.957 68.9626H70.5538C70.5538 68.9626 69.32 84.3173 86.0199 97.1143C86.0199 97.1143 93.4273 101.896 95.3809 104.119C95.3809 104.119 100.925 109.821 102.364 117.456C102.364 117.452 103.444 123.467 103.354 129.306Z" fill="url(#paint8_linear_4019_2718)"/>
<path d="M29.7849 70.304L29.3865 69.6785C26.6189 65.3086 27.1372 58.4967 27.163 58.2054L27.2187 57.537L40.0199 49.3884C35.3287 44.9028 32.681 38.7507 32.681 32.183C32.681 19.0347 43.3745 8.34125 56.5228 8.34125C65.1426 8.34125 73.1156 13.0153 77.3313 20.5427C79.3149 24.0815 80.3645 28.1044 80.3645 32.183C80.3645 38.7507 77.7169 44.9028 73.0256 49.3884L85.8269 57.537L85.8826 58.2054C85.904 58.4924 86.4267 65.3043 83.6591 69.6785L83.2607 70.304H29.7849Z" fill="url(#paint9_linear_4019_2718)"/>
<path d="M56.5227 9.69049C64.9584 9.69049 72.3101 14.3303 76.1573 21.2022C77.9781 24.4497 79.0192 28.1941 79.0192 32.187C79.0192 39.3374 75.6818 45.7123 70.4764 49.8294H71.2048L84.5416 58.3165C84.5416 58.3165 85.0814 64.9185 82.5194 68.9585H30.526C27.9683 64.9185 28.5038 58.3165 28.5038 58.3165L41.8406 49.8294H42.569C37.3637 45.708 34.0262 39.3374 34.0262 32.187C34.0262 19.7627 44.0984 9.69049 56.5227 9.69049ZM56.5227 7C53.1253 7 49.8264 7.66405 46.7161 8.97931C43.7171 10.2474 41.0224 12.064 38.7089 14.3774C36.3954 16.6909 34.5789 19.3814 33.3107 22.3847C31.9955 25.4907 31.3314 28.7896 31.3314 32.1913C31.3314 36.107 32.2054 39.86 33.932 43.3474C34.9688 45.4467 36.314 47.4088 37.8992 49.1525L27.0558 56.0544L25.9247 56.7742L25.8176 58.1108C25.8133 58.188 25.6677 60.013 25.869 62.3651C26.1518 65.6597 26.953 68.3673 28.2468 70.4109L29.0394 71.6619H30.5217H82.5151H83.9975L84.79 70.4109C86.0839 68.3673 86.885 65.6597 87.1678 62.3651C87.3692 60.013 87.2235 58.188 87.2192 58.1108L87.1121 56.7742L85.9811 56.0544L75.1377 49.1525C76.7228 47.4088 78.0681 45.4509 79.1049 43.3474C80.8314 39.86 81.7054 36.107 81.7054 32.1913C81.7054 27.8813 80.5958 23.6271 78.5008 19.8912C76.3501 16.0526 73.2141 12.8266 69.4354 10.5645C65.5496 8.22957 61.0811 7 56.5227 7Z" fill="url(#paint10_linear_4019_2718)"/>
<path d="M70.4768 49.8305H71.2051C67.5935 50.5159 54.6123 51.5699 54.6123 51.5699C78.6554 47.5298 76.1534 21.2032 76.1534 21.2032C77.9742 24.4507 79.0152 28.1951 79.0152 32.188C79.0195 39.3384 75.6778 45.7133 70.4768 49.8305Z" fill="url(#paint11_linear_4019_2718)"/>
<defs>
<filter id="filter0_d_4019_2718" x="0" y="0" width="117.063" height="143" filterUnits="userSpaceOnUse" color-interpolation-filters="sRGB">
<feFlood flood-opacity="0" result="BackgroundImageFix"/>
<feColorMatrix in="SourceAlpha" type="matrix" values="0 0 0 0 0 0 0 0 0 0 0 0 0 0 0 0 0 0 127 0" result="hardAlpha"/>
<feOffset dx="2" dy="2"/>
<feGaussianBlur stdDeviation="1"/>
<feComposite in2="hardAlpha" operator="out"/>
<feColorMatrix type="matrix" values="0 0 0 0 0 0 0 0 0 0 0 0 0 0 0 0 0 0 0.25 0"/>
<feBlend mode="normal" in2="BackgroundImageFix" result="effect1_dropShadow_4019_2718"/>
<feBlend mode="normal" in="SourceGraphic" in2="effect1_dropShadow_4019_2718" result="shape"/>
</filter>
<linearGradient id="paint0_linear_4019_2718" x1="56.5212" y1="67.6079" x2="56.5212" y2="130.655" gradientUnits="userSpaceOnUse">
<stop stop-color="white"/>
<stop offset="1" stop-color="#D7D7D7"/>
</linearGradient>
<linearGradient id="paint1_linear_4019_2718" x1="56.5315" y1="66.2371" x2="56.5315" y2="132" gradientUnits="userSpaceOnUse">
<stop stop-color="#45464E"/>
<stop offset="1" stop-color="#353535"/>
</linearGradient>
<linearGradient id="paint2_linear_4019_2718" x1="76.1581" y1="68.9626" x2="76.1581" y2="129.306" gradientUnits="userSpaceOnUse">
<stop stop-color="#C8C8C8"/>
<stop offset="1" stop-color="#919191"/>
</linearGradient>
<linearGradient id="paint3_linear_4019_2718" x1="56.5218" y1="8.34125" x2="56.5218" y2="70.304" gradientUnits="userSpaceOnUse">
<stop stop-color="white"/>
<stop offset="1" stop-color="#D7D7D7"/>
</linearGradient>
<linearGradient id="paint4_linear_4019_2718" x1="56.5184" y1="7" x2="56.5184" y2="71.6618" gradientUnits="userSpaceOnUse">
<stop stop-color="#45464E"/>
<stop offset="1" stop-color="#353535"/>
</linearGradient>
<linearGradient id="paint5_linear_4019_2718" x1="66.8138" y1="21.2032" x2="66.8138" y2="51.5699" gradientUnits="userSpaceOnUse">
<stop stop-color="#C8C8C8"/>
<stop offset="1" stop-color="#919191"/>
</linearGradient>
<linearGradient id="paint6_linear_4019_2718" x1="56.5212" y1="67.6079" x2="56.5212" y2="130.655" gradientUnits="userSpaceOnUse">
<stop stop-color="white"/>
<stop offset="1" stop-color="#D7D7D7"/>
</linearGradient>
<linearGradient id="paint7_linear_4019_2718" x1="56.5315" y1="66.2371" x2="56.5315" y2="132" gradientUnits="userSpaceOnUse">
<stop stop-color="#45464E"/>
<stop offset="1" stop-color="#353535"/>
</linearGradient>
<linearGradient id="paint8_linear_4019_2718" x1="76.1581" y1="68.9626" x2="76.1581" y2="129.306" gradientUnits="userSpaceOnUse">
<stop stop-color="#C8C8C8"/>
<stop offset="1" stop-color="#919191"/>
</linearGradient>
<linearGradient id="paint9_linear_4019_2718" x1="56.5218" y1="8.34125" x2="56.5218" y2="70.304" gradientUnits="userSpaceOnUse">
<stop stop-color="white"/>
<stop offset="1" stop-color="#D7D7D7"/>
</linearGradient>
<linearGradient id="paint10_linear_4019_2718" x1="56.5184" y1="7" x2="56.5184" y2="71.6618" gradientUnits="userSpaceOnUse">
<stop stop-color="#45464E"/>
<stop offset="1" stop-color="#353535"/>
</linearGradient>
<linearGradient id="paint11_linear_4019_2718" x1="66.8138" y1="21.2032" x2="66.8138" y2="51.5699" gradientUnits="userSpaceOnUse">
<stop stop-color="#C8C8C8"/>
<stop offset="1" stop-color="#919191"/>
</linearGradient>
</defs>
</svg>
