<svg width="351" height="105" viewBox="0 0 351 105" fill="none" xmlns="http://www.w3.org/2000/svg">
<path d="M310.15 58.0009C315.813 56.9744 322.396 57.5958 326.326 57.58C327.55 57.5752 328.517 57.6167 329.261 57.6787C329.575 57.705 329.727 57.7959 329.733 57.8945C329.741 58.0172 329.526 58.1532 329.127 58.1962C327.188 58.4055 324.297 58.8036 320.897 59.4873C314.559 60.7646 313.794 59.8907 305.192 60.9453C296.59 62.0108 291.475 63.2539 281.293 63.5634C271.105 63.9056 268.996 66.386 254.595 66.5732C240.18 66.841 238.952 69.4244 224.847 71.6171C217.58 72.7686 209.311 73.7098 201.805 74.6142C194.742 75.4616 188.369 76.2601 184.26 77.0302C175.782 78.6153 164.44 80.9737 152.369 82.9873C140.293 84.9939 125.655 88.7809 112.309 90.9941C98.9701 93.1927 80.1433 96.5236 71.3926 97.9121C70.0678 98.1202 68.811 98.3221 67.7686 98.4873C61.8229 99.4414 59.2373 99.9565 52.2715 101.659C47.4944 102.79 40.9025 104.111 35.1104 104.267C34.9272 104.264 34.7575 104.256 34.6045 104.245C32.6862 104.11 32.8755 103.779 34.5527 103.459C34.8791 103.398 35.2353 103.327 35.6602 103.238C39.7068 102.328 43.1639 101.786 45.1631 100.845C49.1892 98.9226 50.9123 98.1384 56.3799 97.6415C61.719 97.1468 63.9321 95.3072 66.9629 94.7285C67.0561 94.7107 67.1507 94.6938 67.2461 94.6787C70.398 94.1735 70.5009 95.0193 86.2559 90.9609C101.987 86.9136 110.659 84.9355 116.657 83.5292C122.662 82.119 135.372 80.2734 145.171 78.0839C154.955 75.8632 175.05 72.3689 183.087 70.5595C191.121 68.7296 191.304 69.6701 197.947 69.122C198.96 69.04 199.927 68.8996 200.866 68.7167C206.128 67.6959 210.642 65.3379 217.493 64.6455C225.569 63.8499 226.946 64.9164 236.109 63.4814C245.292 62.0564 254.614 61.9191 258.669 60.9902C262.725 60.0624 263.315 61.5553 269.114 60.6572C274.919 59.7669 278.474 59.6591 283.624 59.7294C288.775 59.7837 304.488 59.0137 310.15 58.0009Z" fill="#FFB700"/>
<path d="M3.93548 74.2346C13.8418 56.2342 29.8765 33.021 32.6973 32.7921C34.5113 32.6448 34.8784 35.3139 34.3003 35.3608C32.7654 35.4854 28.7274 40.2476 26.3059 43.6647C24.1884 46.6257 16.9326 57.4783 12.464 64.7235C18.2451 58.8165 24.4072 53.4002 27.5668 53.1438C29.0021 53.0273 29.8597 54.6934 29.9446 55.74C30.0805 57.4144 28.9504 60.0545 27.2012 62.8552C27.7181 62.6728 28.1844 62.4844 28.7054 62.3519C30.7697 61.7028 33.39 61.9717 32.0851 62.4588C29.8428 63.2628 27.6951 64.1194 25.7432 65.0403C21.8949 70.4092 16.3069 75.7287 13.0077 75.9964C11.7618 76.0976 10.6844 74.6901 10.6068 73.7333C10.4046 71.2414 16.7197 67.2174 23.4768 64.3113C25.9872 60.8769 27.8252 57.3166 26.9262 56.3762C25.4986 54.8567 16.9166 62.9675 13.7397 66.5964C10.4274 70.2865 8.69973 72.7342 6.50215 77.0562C5.92333 78.2068 3.12502 75.7451 3.96538 74.2321L3.93548 74.2346ZM20.913 67.459C16.1621 70.112 13.227 72.5173 13.6659 73.1037C14.2678 73.9679 17.7003 71.1409 20.913 67.459Z" fill="#FFB700"/>
<path d="M18.5458 93.4256C18.2974 90.3656 24.2078 80.7359 30.6988 75.293C33.5342 72.8958 36.4264 71.0759 39.4933 70.2952C39.5849 70.1874 39.6633 70.0406 39.7549 69.9329C42.3229 65.9721 44.2846 62.8231 45.9462 60.1801C41.2293 64.3653 33.9338 71.2681 31.452 71.4696C30.0665 71.582 29.5573 70.1284 29.499 69.4108C29.2466 66.301 35.5504 57.9337 39.7347 53.1194C40.6139 52.0849 43.1005 54.291 41.8799 54.5806C40.9344 54.7978 38.0283 58.796 36.3464 61.1899C34.6613 63.544 31.2966 68.4422 31.9666 68.9095C32.7311 69.4294 46.141 57.2647 48.561 54.9414C50.7868 53.316 51.4986 51.3319 53.1233 51.2C54.2695 51.107 55.4202 52.7995 54.9227 53.2211C54.6032 53.4878 53.8805 53.9779 53.3991 54.5989C50.1175 58.6677 44.6434 66.6266 42.5037 69.9305C44.8236 70.0833 46.0497 71.4687 46.3329 72.6095C46.6886 74.0254 46.1754 73.6356 45.704 73.1421C44.4493 71.8995 42.8982 71.8248 41.5128 71.9372L41.2237 71.9607C36.6482 79.1243 25.1312 96.1919 21.0645 96.5219C19.2007 96.6732 18.6065 94.1731 18.5442 93.4056L18.5458 93.4256ZM37.7352 72.9862C35.549 73.9864 33.3232 75.6118 31.1779 77.6119C24.5836 83.635 20.5822 91.8155 21.6598 92.7314C23.0567 93.8721 32.4923 80.8261 37.7344 72.9763L37.7352 72.9862Z" fill="#FFB700"/>
<path d="M64.1019 78.5516C63.6085 72.4716 70.7197 65.1524 83.4255 57.9108C81.4814 58.3094 79.8721 58.6306 78.7757 58.7196C71.8884 59.2786 67.6357 57.3162 67.2822 52.9605C66.2378 40.0928 105.883 19.3879 128.13 17.5823C134.25 17.0856 138.54 18.2824 138.711 20.3855C138.882 22.4886 136.371 22.4516 136.544 21.6248C136.826 20.398 133.571 19.3579 128.308 19.7851C107.925 21.4394 69.2289 41.3449 70.1527 52.7275C70.4011 55.7875 73.1449 56.9593 78.5969 56.5168C82.9028 56.1674 86.9193 55.2194 90.4452 54.1607C92.7596 53.0097 97.9279 50.1823 99.6921 50.0391C100.649 49.9615 101.39 50.8143 101.457 51.6316C101.584 53.2064 97.7959 53.9955 93.7997 55.1927C76.3371 63.1614 66.4066 71.9636 66.9227 78.3227C67.1014 80.5254 68.5686 81.4197 72.107 81.1325C77.6587 80.6819 93.494 74.0492 110.065 58.0663C110.783 57.386 110.286 60.1653 109.619 60.8515C94.0004 76.0849 78.3159 82.8459 72.2857 83.3353C67.4018 83.7317 64.38 82.1008 64.0928 78.5624L64.1019 78.5516Z" fill="#FFB700"/>
<path d="M106.323 66.5971C106.11 63.9657 115.081 49.8939 117.332 46.7314C118.196 45.5075 121.098 48.011 119.69 48.4663C119.32 48.5967 116.117 53.1407 112.273 59.1815C117.439 53.3645 123.899 46.9208 124.543 45.9555C125.314 44.8294 127.796 46.8453 126.943 47.5867C126.09 48.3282 124.44 51.1108 124.556 52.5461C124.626 53.4032 125.267 53.6421 125.895 53.5912C126.952 53.5054 128.647 53.1271 129.968 52.1068C131.148 51.1884 130.679 53.2029 129.789 54.0979C128.898 54.9928 127.672 55.9552 125.619 56.1218C122.988 56.3354 122.18 54.6652 122.037 52.901C121.99 52.3229 121.963 51.994 122.031 51.5972C119.736 53.6094 113.455 59.8982 108.332 68.6012C107.696 69.6661 106.451 67.9311 106.343 66.5955L106.323 66.5971Z" fill="#FFB700"/>
<path d="M121.865 65.2451C125.758 57.4646 132.189 47.6924 134.776 43.9709C136.807 41.0571 148.117 25.0196 150.708 24.8093C152.144 24.6928 152.361 25.6383 152.411 26.2563C152.562 28.1202 144.103 37.8664 137.288 44.6299C135.245 47.3942 133.185 50.4508 131.223 53.5999C135.912 48.4537 141.654 43.7939 145.382 43.4914C147.156 43.3474 147.814 45.0296 147.888 45.9367C147.989 47.1826 144.723 49.7051 141.247 51.8734C138.674 53.4266 136.217 54.549 134.488 55.2612C133.926 55.4975 133.616 55.7634 133.409 56.1715C132.966 57.2709 133.584 58.9464 133.885 59.6945C134.183 60.3927 134.834 61.2528 135.791 61.1752C139.001 60.9147 145.149 55.4594 147.12 53.0321C148.127 51.8467 148.348 54.5678 147.329 55.6136C144.529 58.4394 139.185 63.3076 135.597 63.5989C134.062 63.7234 132.47 62.4079 131.629 60.4495C131.092 59.1487 130.759 58.0119 130.728 57.0111C128.186 60.0567 125.859 63.5264 124.278 67.1662C123.839 68.3054 121.198 66.5533 121.855 65.2459L121.865 65.2451ZM134.231 53.2052C135.813 52.5451 138.14 51.5436 140.153 50.2666C142.714 48.5638 144.785 46.7604 144.202 46.1355C143.566 45.4648 138.987 48.3847 134.231 53.2052Z" fill="#FFB700"/>
<path d="M145.267 60.4966C145.05 57.8154 147.12 53.6543 149.059 50.8482C152.298 46.2512 153.756 44.0661 154.623 43.9957C156.009 43.8833 156.591 46.2438 155.874 46.3021C154.678 46.3992 146.065 58.947 147.825 60.4897C148.918 61.4645 154.521 55.7124 159.388 49.9197C160.661 48.4218 159.941 52.0418 159.108 53.0225C155.094 57.5822 150.63 63.1515 147.809 63.3805C146.663 63.4735 145.377 61.8422 145.268 60.5066L145.267 60.4966ZM157.908 39.3448C158.485 37.5622 161.813 33.4395 163.051 33.2387C163.904 33.1193 164.722 33.685 164.895 34.5839C165.004 35.2975 158.983 40.6019 158.694 40.6254C158.12 40.7221 157.725 39.9315 157.918 39.3439L157.908 39.3448Z" fill="#FFB700"/>
<path d="M168.499 58.9522C169.742 60.0552 178.611 50.0449 180.15 48.2346C180.937 47.3078 181.296 49.8772 180.048 51.1825C179.211 52.1132 171.553 61.6038 168.533 61.8489C166.998 61.9735 165.72 60.4419 165.63 59.3355C165.347 55.847 171.609 47.5833 170.903 47.1591C170.196 46.7349 159.626 57.1741 157.293 60.4436C155.295 63.1541 154.437 65.0598 153.769 65.114C152.712 65.1997 151.776 63.0584 152.262 62.0056C154.733 56.8488 159.548 48.5522 163.616 42.9246C164.572 41.593 167.012 44.9566 165.766 45.0577C165.148 45.1079 162.969 47.9334 160.9 50.9908C159.57 53.0251 156.971 57.229 157.823 56.3473C165.188 48.576 172.461 42.0061 174.085 41.8743C174.514 41.8395 174.872 42.0512 175.092 42.4146C175.491 42.6231 175.757 42.9425 175.78 43.2216C175.881 44.4675 166.717 57.3912 168.487 58.9331L168.499 58.9522Z" fill="#FFB700"/>
<path d="M181.162 66.0212C181.34 57.5792 200.505 44.9976 212.316 44.039C214.279 43.8797 217.15 44.2687 217.876 46.0458C218.035 46.2737 218.011 46.4663 217.714 46.4C216.684 46.1927 215.751 45.9374 213.729 46.0011C204.148 46.0062 183.856 58.298 183.675 65.5865C183.667 67.2225 184.53 68.4568 188.746 68.1146C201.614 67.0702 225.505 54.0047 225.28 44.6824C225.166 39.6853 217.087 39.9095 211.464 39.9746C201.317 40.1761 196.724 38.7129 196.837 33.5568C197.052 22.7339 229.755 9.57533 242.623 8.53098C247.786 8.11194 248.586 11.4181 248.521 13.5904C248.358 19.8641 237.253 26.0628 234.919 26.3526C232.249 26.7097 232.357 25.0656 232.55 25.1001C233.777 25.3818 245.993 18.0395 246.057 13.5095C246.137 11.5265 245.068 10.8408 242.386 11.0584C231.193 11.9668 199.608 24.5532 199.369 33.4817C199.301 37.3399 206.386 37.4872 212.27 37.5414C218.194 37.5924 227.422 37.325 228.001 44.4516C228.831 54.6879 204.169 69.5015 188.62 70.7635C183.118 71.21 181.103 68.3838 181.152 66.0221L181.162 66.0212Z" fill="#FFB700"/>
<path d="M238.238 55.5093C238.072 53.4561 238.974 50.975 240.742 47.7915C237.38 51.4856 233.335 55.6665 231.76 55.7943C230.664 55.8833 229.263 54.6927 229.124 52.9784C228.782 48.7722 238.866 36.5364 242.504 36.2411C244.417 36.0858 246.289 37.1379 246.946 38.1882C247.685 37.165 248.593 35.9877 249.372 35.4429C250.328 34.7433 252.529 37.0127 251.395 37.2552C249.74 37.6303 238.998 53.6217 240.759 55.1643C242.002 56.2674 252.807 44.0232 254.346 42.2128C255.133 41.286 255.393 43.8635 254.154 45.1679C253.317 46.0987 243.673 57.8173 240.753 58.0543C239.606 58.1473 238.328 56.6157 238.238 55.5093ZM245.044 40.2187C244.816 39.7556 243.77 38.7369 242.663 38.8267C239.215 39.1066 230.311 51.5376 231.527 52.9238C232.478 54.0004 243.179 42.8281 245.044 40.2187Z" fill="#FFB700"/>
<path d="M248.467 53.9568C248.319 52.1427 252.158 45.4202 257.131 37.843C256.522 37.9928 256.086 38.0683 255.662 38.1529C254.288 38.4049 252.736 36.4641 254.187 36.0553C255.499 35.6579 257.027 35.4436 258.883 35.1926C259.053 34.9381 259.187 34.7365 259.357 34.482C262.618 29.542 267.974 21.3619 270.767 20.7941C271.616 20.6248 271.976 21.4685 272.006 21.8473C272.111 23.143 265.919 30.5282 262.171 34.7853C262.46 34.7619 262.695 34.6926 262.984 34.6692C264.036 34.5336 266.603 34.1347 266.776 35.0336C266.953 35.9824 266.503 36.9821 266.016 36.9213C265.143 36.8015 262.533 36.7726 260.309 37.1938C255.267 44.5358 250.598 52.7705 251.524 53.5581C252.3 54.2175 260.082 46.2619 261.664 44.9798C262.293 44.4471 261.85 45.5465 260.203 47.747C259.023 49.2875 253.47 56.1492 250.789 56.3668C249.782 56.4485 248.578 55.2019 248.477 53.9559L248.467 53.9568Z" fill="#FFB700"/>
<path d="M261.334 52.9124C261.187 51.0984 265.026 44.3758 269.999 36.7987C269.389 36.9485 268.954 37.0239 268.529 37.1086C267.155 37.3606 265.603 35.4197 267.055 35.011C268.367 34.6135 269.895 34.3992 271.751 34.1483C271.92 33.8937 272.055 33.6922 272.225 33.4376C275.486 28.4976 280.841 20.3176 283.635 19.7497C284.484 19.5805 284.843 20.4242 284.874 20.8029C284.979 22.0987 278.786 29.4839 275.038 33.741C275.327 33.7175 275.563 33.6483 275.852 33.6248C276.904 33.4892 279.47 33.0903 279.643 33.9893C279.821 34.938 279.37 35.9378 278.884 35.8769C278.011 35.7571 275.4 35.7282 273.177 36.1495C268.134 43.4914 263.465 51.7261 264.392 52.5137C265.168 53.1731 272.95 45.2176 274.531 43.9354C275.16 43.4028 274.718 44.5022 273.07 46.7027C271.891 48.2431 266.338 55.1048 263.657 55.3224C262.65 55.4041 261.445 54.1575 261.344 52.9116L261.334 52.9124Z" fill="#FFB700"/>
<path d="M284.078 51.789C283.911 49.7357 284.814 47.2546 286.582 44.0711C283.22 47.7652 279.175 51.9461 277.6 52.0739C276.503 52.1629 275.102 50.9724 274.963 49.258C274.622 45.0518 284.705 32.816 288.343 32.5208C290.257 32.3655 292.128 33.4175 292.785 34.4678C293.525 33.4446 294.433 32.2673 295.211 31.7226C296.168 31.0229 298.369 33.2923 297.234 33.5348C295.579 33.91 284.838 49.9013 286.598 51.4439C287.842 52.547 298.647 40.3028 300.185 38.4924C300.973 37.5656 301.232 40.1431 299.994 41.4476C299.156 42.3784 289.512 54.0969 286.592 54.3339C285.446 54.427 284.168 52.8953 284.078 51.789ZM290.873 36.4991C290.645 36.0361 289.599 35.0173 288.493 35.1071C285.044 35.387 276.141 47.818 277.357 49.2042C278.307 50.2809 289.008 39.1086 290.873 36.4991Z" fill="#FFB700"/>
<path d="M293.767 51.384C293.553 48.7527 302.524 34.6808 304.776 31.5183C305.64 30.2944 308.542 32.7979 307.134 33.2533C306.763 33.3837 303.56 37.9277 299.716 43.9684C304.883 38.1514 311.343 31.7077 311.987 30.7425C312.758 29.6164 315.239 31.6323 314.387 32.3737C313.534 33.1151 311.883 35.8977 312 37.333C312.07 38.1902 312.711 38.4291 313.339 38.3781C314.395 38.2924 316.09 37.914 317.412 36.8937C318.592 35.9753 318.123 37.9898 317.233 38.8848C316.342 39.7798 315.116 40.7421 313.063 40.9087C310.431 41.1223 309.624 39.4522 309.48 37.688C309.433 37.1099 309.407 36.781 309.475 36.3841C307.18 38.3964 300.898 44.6852 295.776 53.3881C295.14 54.453 293.895 52.718 293.787 51.3824L293.767 51.384Z" fill="#FFB700"/>
<path d="M325.244 35.7363C323.493 39.6307 315.178 51.7731 311.999 51.7903C311.278 51.7987 309.827 51.1038 309.744 49.4651C309.619 47.3082 321.335 28.4887 324.345 28.2444C325.731 28.132 326.785 29.8724 325.878 29.946C325.399 29.9849 324.94 30.2629 324.393 30.6886C325.297 31.1971 325.69 32.4594 325.656 33.7665C326.093 33.8314 326.578 33.8822 327.107 33.8394C329.124 33.7258 333.075 32.5825 334.456 31.7982C335.378 31.2919 335.356 32.2569 333.4 33.6196C331.439 34.9325 328.855 35.7241 326.738 35.8458C326.21 35.8887 325.723 35.8278 325.233 35.7271L325.244 35.7363ZM322.908 34.7621L322.884 34.473C322.564 34.1177 322.244 33.7525 322.024 33.3891C319.811 36.408 312.346 47.0367 313.219 47.7785C314.307 48.7035 323.028 36.8692 322.908 34.7621Z" fill="#FFB700"/>
<path d="M325.195 48.1106C324.978 45.4294 328.494 38.9337 330.433 36.1276C333.672 31.5306 335.13 29.3455 335.997 29.2751C337.382 29.1626 337.965 31.5232 337.248 31.5815C336.051 31.6786 325.992 46.5611 327.753 48.1037C328.845 49.0785 340.758 36.2629 345.286 27.8991C345.872 26.8382 347.637 28.4307 346.965 29.5487C343.118 36.1716 330.578 50.7739 327.757 51.0028C326.611 51.0958 325.325 49.4645 325.217 48.1289L325.195 48.1106Z" fill="#FFB700"/>
</svg>
