<svg width="130" height="21" viewBox="0 0 130 21" fill="none" xmlns="http://www.w3.org/2000/svg">
<path d="M3.35164 3.46004H13.0219V0.220703H0V20.1783H3.35164V11.778H10.4121V8.56612H3.35164V3.46004Z" fill="white"/>
<path d="M21.8946 0C16.2628 0 11.8672 4.52958 11.8672 10.2122C11.8672 15.8947 16.1804 20.4243 21.8946 20.4243C27.6089 20.4243 31.9221 16.0869 31.9221 10.2122C31.9221 4.33742 27.5265 0 21.8946 0ZM21.8946 17.0752C18.0485 17.0752 15.3012 14.0005 15.3012 10.1847C15.3012 6.36887 17.9386 3.29424 21.8946 3.29424C25.8507 3.29424 28.488 6.42377 28.488 10.1847C28.488 13.9456 25.7408 17.0752 21.8946 17.0752Z" fill="white"/>
<path d="M36.7579 0.220703H33.4062V20.1783H42.5271V16.8841H36.7579V0.220703Z" fill="white"/>
<path d="M47.0313 0.220703H43.6797V20.1783H52.8005V16.8841H47.0313V0.220703Z" fill="white"/>
<path d="M61.6759 0C56.044 0 51.6484 4.52958 51.6484 10.2122C51.6484 15.8947 55.9616 20.4243 61.6759 20.4243C67.3902 20.4243 71.7033 16.0869 71.7033 10.2122C71.7033 4.33742 67.3078 0 61.6759 0ZM61.6759 17.0752C57.8297 17.0752 55.0825 14.0005 55.0825 10.1847C55.0825 6.36887 57.7199 3.29424 61.6759 3.29424C65.6319 3.29424 68.2693 6.42377 68.2693 10.1847C68.2693 13.9456 65.522 17.0752 61.6759 17.0752Z" fill="white"/>
<path d="M130.001 0.220703H125.825L119.314 8.53867L114.973 0.220703H111.319L117.116 11.3388L110.688 19.5469L107.336 11.6407C110.523 11.0368 112.336 8.51121 112.336 6.01308C112.336 2.82865 110.001 0.220703 106.1 0.220703H94.8085L88.4898 15.0997L86.1272 0.220703H83.0503L77.7481 15.237L74.8085 0.220703H71.4844L75.3855 20.1783H79.2041L83.8745 7.00135L85.9898 20.1783H89.5887L97.7206 1.45604V20.1783H101.072V11.778H103.682L107.281 20.1783H114.314L118.764 14.5507L121.732 20.1783H125.413L120.962 11.7231L130.001 0.220703ZM105.797 8.56612H101.045V3.46004H106.017C107.885 3.46004 108.929 4.66793 108.929 6.04053C108.929 7.41313 107.913 8.56612 105.797 8.56612Z" fill="white"/>
</svg>
