<svg width="274" height="50" viewBox="0 0 274 50" fill="none" xmlns="http://www.w3.org/2000/svg">
<path d="M82.0104 32.3044L75.9142 23.6033C75.6585 23.6316 75.2748 23.6457 74.7632 23.6457H68.0277V32.3044H62.4858V2.59326H74.7632C77.3495 2.59326 79.5946 3.01771 81.4988 3.8666C83.4314 4.71549 84.9092 5.93223 85.9323 7.51682C86.9554 9.10142 87.467 10.9831 87.467 13.1619C87.467 15.3974 86.9128 17.3215 85.8044 18.9344C84.7245 20.5473 83.1614 21.7499 81.1151 22.5422L87.9786 32.3044H82.0104ZM81.8825 13.1619C81.8825 11.2661 81.2572 9.80883 80.0067 8.79016C78.7563 7.77149 76.9232 7.26216 74.5075 7.26216H68.0277V19.1042H74.5075C76.9232 19.1042 78.7563 18.5948 80.0067 17.5762C81.2572 16.5292 81.8825 15.0578 81.8825 13.1619Z" fill="#000080"/>
<path d="M107.65 32.3044L101.81 24.4522L95.9268 32.3044H90.0438L98.9109 20.802L90.4275 9.63905H96.3531L101.938 17.0668L107.522 9.63905H113.277L104.751 20.7171L113.661 32.3044H107.65Z" fill="#000080"/>
<path d="M141.679 25.5557H136.521V32.3044H131.235V25.5557H116.016V21.7357L129.146 2.59326H135.157L122.624 20.8868H131.491V15.1568H136.521V20.8868H141.679V25.5557Z" fill="#000080"/>
<path d="M167.479 32.3044L161.383 23.6033C161.127 23.6316 160.743 23.6457 160.232 23.6457H153.496V32.3044H147.954V2.59326H160.232C162.818 2.59326 165.063 3.01771 166.967 3.8666C168.9 4.71549 170.378 5.93223 171.401 7.51682C172.424 9.10142 172.935 10.9831 172.935 13.1619C172.935 15.3974 172.381 17.3215 171.273 18.9344C170.193 20.5473 168.63 21.7499 166.583 22.5422L173.447 32.3044H167.479ZM167.351 13.1619C167.351 11.2661 166.726 9.80883 165.475 8.79016C164.225 7.77149 162.392 7.26216 159.976 7.26216H153.496V19.1042H159.976C162.392 19.1042 164.225 18.5948 165.475 17.5762C166.726 16.5292 167.351 15.0578 167.351 13.1619Z" fill="#E80045"/>
<path d="M188.855 32.6015C186.553 32.6015 184.479 32.1063 182.631 31.116C180.784 30.1256 179.335 28.7532 178.283 26.9989C177.26 25.2162 176.748 23.2071 176.748 20.9717C176.748 18.7363 177.26 16.7414 178.283 14.9871C179.335 13.2327 180.784 11.8603 182.631 10.8699C184.479 9.87957 186.553 9.38438 188.855 9.38438C191.186 9.38438 193.275 9.87957 195.122 10.8699C196.969 11.8603 198.405 13.2327 199.428 14.9871C200.479 16.7414 201.005 18.7363 201.005 20.9717C201.005 23.2071 200.479 25.2162 199.428 26.9989C198.405 28.7532 196.969 30.1256 195.122 31.116C193.275 32.1063 191.186 32.6015 188.855 32.6015ZM188.855 28.06C190.816 28.06 192.436 27.4092 193.715 26.1075C194.994 24.8059 195.634 23.094 195.634 20.9717C195.634 18.8495 194.994 17.1376 193.715 15.8359C192.436 14.5343 190.816 13.8835 188.855 13.8835C186.894 13.8835 185.274 14.5343 183.996 15.8359C182.745 17.1376 182.12 18.8495 182.12 20.9717C182.12 23.094 182.745 24.8059 183.996 26.1075C185.274 27.4092 186.894 28.06 188.855 28.06Z" fill="#E80045"/>
<path d="M228.14 9.63905V32.3044H223.067V29.4182C222.215 30.4369 221.149 31.2292 219.87 31.7951C218.591 32.3327 217.213 32.6015 215.735 32.6015C212.694 32.6015 210.293 31.7668 208.531 30.0973C206.797 28.3995 205.93 25.8953 205.93 22.5846V9.63905H211.259V21.8631C211.259 23.9004 211.714 25.4284 212.623 26.4471C213.561 27.4374 214.882 27.9326 216.588 27.9326C218.492 27.9326 219.998 27.3526 221.106 26.1924C222.243 25.004 222.812 23.3062 222.812 21.0991V9.63905H228.14Z" fill="#E80045"/>
<path d="M248.802 31.0735C248.176 31.5829 247.409 31.9649 246.5 32.2195C245.619 32.4742 244.681 32.6015 243.686 32.6015C241.185 32.6015 239.253 31.9507 237.888 30.6491C236.524 29.3475 235.842 27.4516 235.842 24.9615V14.0533H232.091V9.80883H235.842V4.6306H241.171V9.80883H247.267V14.0533H241.171V24.8342C241.171 25.9377 241.441 26.7866 241.981 27.3809C242.521 27.9468 243.302 28.2297 244.325 28.2297C245.519 28.2297 246.514 27.9185 247.31 27.296L248.802 31.0735Z" fill="#E80045"/>
<path d="M273.836 21.0991C273.836 21.4669 273.808 21.9904 273.751 22.6695H255.889C256.202 24.339 257.011 25.6689 258.319 26.6593C259.655 27.6214 261.303 28.1024 263.264 28.1024C265.765 28.1024 267.825 27.2818 269.445 25.6406L272.302 28.9089C271.278 30.1256 269.985 31.0452 268.422 31.6677C266.859 32.2903 265.097 32.6015 263.136 32.6015C260.635 32.6015 258.433 32.1063 256.528 31.116C254.624 30.1256 253.146 28.7532 252.095 26.9989C251.072 25.2162 250.56 23.2071 250.56 20.9717C250.56 18.7646 251.057 16.7839 252.052 15.0295C253.075 13.2468 254.482 11.8603 256.273 10.8699C258.063 9.87957 260.081 9.38438 262.326 9.38438C264.543 9.38438 266.518 9.87957 268.252 10.8699C270.014 11.832 271.378 13.2044 272.344 14.9871C273.339 16.7414 273.836 18.7788 273.836 21.0991ZM262.326 13.6288C260.621 13.6288 259.171 14.1382 257.978 15.1568C256.813 16.1472 256.102 17.4771 255.846 19.1466H268.763C268.536 17.5054 267.84 16.1755 266.674 15.1568C265.509 14.1382 264.06 13.6288 262.326 13.6288Z" fill="#E80045"/>
<path d="M68.2626 47.2005L68.2528 42.6708L65.9976 46.4195H65.4289L63.1738 42.7294V47.2005H61.958V40.3669H63.0071L65.7329 44.8966L68.4096 40.3669H69.4588L69.4686 47.2005H68.2626Z" fill="#000080"/>
<path d="M78.431 46.1364V47.2005H73.2835V40.3669H78.2938V41.431H74.5581V43.2077H77.8722V44.2523H74.5581V46.1364H78.431Z" fill="#000080"/>
<path d="M81.813 40.3669H84.8133C85.5454 40.3669 86.1958 40.5101 86.7645 40.7965C87.3331 41.0763 87.7744 41.4766 88.0881 41.9972C88.4019 42.5114 88.5588 43.1069 88.5588 43.7837C88.5588 44.4606 88.4019 45.0593 88.0881 45.58C87.7744 46.0941 87.3331 46.4944 86.7645 46.7807C86.1958 47.0606 85.5454 47.2005 84.8133 47.2005H81.813V40.3669ZM84.7545 46.1267C85.2578 46.1267 85.699 46.0323 86.0781 45.8436C86.4638 45.6483 86.7579 45.375 86.9606 45.0235C87.1697 44.6656 87.2743 44.2523 87.2743 43.7837C87.2743 43.3151 87.1697 42.9051 86.9606 42.5537C86.7579 42.1957 86.4638 41.9224 86.0781 41.7337C85.699 41.5384 85.2578 41.4408 84.7545 41.4408H83.0876V46.1267H84.7545Z" fill="#000080"/>
<path d="M91.8745 40.3669H93.1491V47.2005H91.8745V40.3669Z" fill="#000080"/>
<path d="M100.143 47.2981C99.4505 47.2981 98.823 47.1484 98.2608 46.8491C97.7052 46.5432 97.2672 46.1234 96.9469 45.5897C96.6332 45.0561 96.4763 44.4541 96.4763 43.7837C96.4763 43.1134 96.6365 42.5114 96.9568 41.9777C97.2771 41.444 97.715 41.0275 98.2706 40.7281C98.8328 40.4223 99.4603 40.2693 100.153 40.2693C100.715 40.2693 101.228 40.3669 101.693 40.5622C102.157 40.7574 102.549 41.0405 102.869 41.4115L102.046 42.1827C101.549 41.649 100.938 41.3822 100.212 41.3822C99.7413 41.3822 99.3198 41.4863 98.9472 41.6946C98.5746 41.8964 98.2837 42.1795 98.0745 42.5439C97.8653 42.9084 97.7608 43.3216 97.7608 43.7837C97.7608 44.2458 97.8653 44.6591 98.0745 45.0235C98.2837 45.388 98.5746 45.6743 98.9472 45.8826C99.3198 46.0844 99.7413 46.1852 100.212 46.1852C100.938 46.1852 101.549 45.9151 102.046 45.375L102.869 46.1559C102.549 46.5269 102.153 46.81 101.683 47.0053C101.219 47.2005 100.706 47.2981 100.143 47.2981Z" fill="#000080"/>
<path d="M110.359 45.619H106.928L106.251 47.2005H104.937L108.026 40.3669H109.281L112.379 47.2005H111.046L110.359 45.619ZM109.938 44.6233L108.643 41.636L107.359 44.6233H109.938Z" fill="#000080"/>
<path d="M116.261 41.4408H113.986V40.3669H119.81V41.4408H117.535V47.2005H116.261V41.4408Z" fill="#000080"/>
<path d="M122.727 40.3669H124.002V47.2005H122.727V40.3669Z" fill="#000080"/>
<path d="M131.026 47.2981C130.326 47.2981 129.696 47.1484 129.133 46.8491C128.571 46.5432 128.13 46.1234 127.81 45.5897C127.489 45.0496 127.329 44.4476 127.329 43.7837C127.329 43.1199 127.489 42.5211 127.81 41.9875C128.13 41.4473 128.571 41.0275 129.133 40.7281C129.696 40.4223 130.326 40.2693 131.026 40.2693C131.725 40.2693 132.356 40.4223 132.918 40.7281C133.48 41.0275 133.921 41.444 134.242 41.9777C134.562 42.5114 134.722 43.1134 134.722 43.7837C134.722 44.4541 134.562 45.0561 134.242 45.5897C133.921 46.1234 133.48 46.5432 132.918 46.8491C132.356 47.1484 131.725 47.2981 131.026 47.2981ZM131.026 46.1852C131.483 46.1852 131.895 46.0844 132.261 45.8826C132.627 45.6743 132.915 45.388 133.124 45.0235C133.333 44.6526 133.438 44.2393 133.438 43.7837C133.438 43.3282 133.333 42.9181 133.124 42.5537C132.915 42.1827 132.627 41.8964 132.261 41.6946C131.895 41.4863 131.483 41.3822 131.026 41.3822C130.568 41.3822 130.156 41.4863 129.79 41.6946C129.424 41.8964 129.137 42.1827 128.927 42.5537C128.718 42.9181 128.614 43.3282 128.614 43.7837C128.614 44.2393 128.718 44.6526 128.927 45.0235C129.137 45.388 129.424 45.6743 129.79 45.8826C130.156 46.0844 130.568 46.1852 131.026 46.1852Z" fill="#000080"/>
<path d="M144.133 40.3669V47.2005H143.084L139.299 42.5732V47.2005H138.034V40.3669H139.083L142.868 44.9942V40.3669H144.133Z" fill="#000080"/>
<path d="M152.604 40.3669H155.604C156.336 40.3669 156.987 40.5101 157.555 40.7965C158.124 41.0763 158.565 41.4766 158.879 41.9972C159.193 42.5114 159.35 43.1069 159.35 43.7837C159.35 44.4606 159.193 45.0593 158.879 45.58C158.565 46.0941 158.124 46.4944 157.555 46.7807C156.987 47.0606 156.336 47.2005 155.604 47.2005H152.604V40.3669ZM155.545 46.1267C156.049 46.1267 156.49 46.0323 156.869 45.8436C157.255 45.6483 157.549 45.375 157.751 45.0235C157.961 44.6656 158.065 44.2523 158.065 43.7837C158.065 43.3151 157.961 42.9051 157.751 42.5537C157.549 42.1957 157.255 41.9224 156.869 41.7337C156.49 41.5384 156.049 41.4408 155.545 41.4408H153.878V46.1267H155.545Z" fill="#000080"/>
<path d="M167.813 46.1364V47.2005H162.665V40.3669H167.676V41.431H163.94V43.2077H167.254V44.2523H163.94V46.1364H167.813Z" fill="#000080"/>
<path d="M171.195 40.3669H172.469V46.1267H176.058V47.2005H171.195V40.3669Z" fill="#000080"/>
<path d="M179.025 40.3669H180.3V47.2005H179.025V40.3669Z" fill="#000080"/>
<path d="M190.345 40.3669L187.354 47.2005H186.099L183.099 40.3669H184.481L186.766 45.6385L189.07 40.3669H190.345Z" fill="#000080"/>
<path d="M198.178 46.1364V47.2005H193.03V40.3669H198.04V41.431H194.305V43.2077H197.619V44.2523H194.305V46.1364H198.178Z" fill="#000080"/>
<path d="M206.05 47.2005L204.648 45.1993C204.589 45.2058 204.501 45.209 204.383 45.209H202.834V47.2005H201.559V40.3669H204.383C204.978 40.3669 205.494 40.4646 205.932 40.6598C206.377 40.855 206.717 41.1349 206.952 41.4994C207.187 41.8638 207.305 42.2966 207.305 42.7977C207.305 43.3119 207.178 43.7544 206.923 44.1254C206.674 44.4964 206.315 44.773 205.844 44.9552L207.423 47.2005H206.05ZM206.021 42.7977C206.021 42.3617 205.877 42.0265 205.589 41.7922C205.302 41.5579 204.88 41.4408 204.324 41.4408H202.834V44.1645H204.324C204.88 44.1645 205.302 44.0473 205.589 43.813C205.877 43.5722 206.021 43.2338 206.021 42.7977Z" fill="#000080"/>
<path d="M213.558 44.7892V47.2005H212.283V44.8088L209.587 40.3669H210.949L212.959 43.6959L214.989 40.3669H216.244L213.558 44.7892Z" fill="#000080"/>
<path d="M225.838 47.2981C225.309 47.2981 224.796 47.2233 224.299 47.0736C223.809 46.9239 223.42 46.7254 223.132 46.4781L223.573 45.4921C223.854 45.7134 224.198 45.8956 224.603 46.0388C225.015 46.1755 225.426 46.2438 225.838 46.2438C226.348 46.2438 226.727 46.1625 226.976 45.9998C227.23 45.837 227.358 45.6223 227.358 45.3554C227.358 45.1602 227.286 45.0007 227.142 44.8771C227.005 44.7469 226.828 44.6461 226.613 44.5745C226.397 44.5029 226.103 44.4215 225.73 44.3304C225.207 44.2068 224.783 44.0831 224.456 43.9594C224.135 43.8358 223.858 43.6438 223.622 43.3835C223.393 43.1166 223.279 42.7587 223.279 42.3096C223.279 41.9322 223.38 41.5905 223.583 41.2846C223.792 40.9722 224.103 40.7249 224.515 40.5427C224.933 40.3604 225.443 40.2693 226.044 40.2693C226.462 40.2693 226.874 40.3214 227.28 40.4255C227.685 40.5296 228.035 40.6793 228.329 40.8746L227.927 41.8606C227.626 41.6848 227.312 41.5514 226.985 41.4603C226.659 41.3692 226.342 41.3236 226.034 41.3236C225.531 41.3236 225.155 41.4082 224.907 41.5775C224.665 41.7467 224.544 41.9712 224.544 42.2511C224.544 42.4463 224.613 42.6057 224.75 42.7294C224.894 42.8531 225.073 42.9507 225.289 43.0223C225.505 43.0939 225.799 43.1752 226.172 43.2663C226.681 43.3835 227.1 43.5071 227.427 43.6373C227.753 43.7609 228.031 43.9529 228.26 44.2133C228.495 44.4736 228.613 44.825 228.613 45.2676C228.613 45.6451 228.508 45.9867 228.299 46.2926C228.097 46.5985 227.786 46.8426 227.368 47.0248C226.949 47.207 226.44 47.2981 225.838 47.2981Z" fill="#000080"/>
<path d="M234.655 44.7892V47.2005H233.381V44.8088L230.684 40.3669H232.047L234.057 43.6959L236.087 40.3669H237.342L234.655 44.7892Z" fill="#000080"/>
<path d="M242.122 47.2981C241.592 47.2981 241.079 47.2233 240.582 47.0736C240.092 46.9239 239.703 46.7254 239.416 46.4781L239.857 45.4921C240.138 45.7134 240.481 45.8956 240.886 46.0388C241.298 46.1755 241.71 46.2438 242.122 46.2438C242.632 46.2438 243.011 46.1625 243.259 45.9998C243.514 45.837 243.641 45.6223 243.641 45.3554C243.641 45.1602 243.57 45.0007 243.426 44.8771C243.288 44.7469 243.112 44.6461 242.896 44.5745C242.681 44.5029 242.386 44.4215 242.014 44.3304C241.491 44.2068 241.066 44.0831 240.739 43.9594C240.419 43.8358 240.141 43.6438 239.906 43.3835C239.677 43.1166 239.563 42.7587 239.563 42.3096C239.563 41.9322 239.664 41.5905 239.867 41.2846C240.076 40.9722 240.386 40.7249 240.798 40.5427C241.216 40.3604 241.726 40.2693 242.328 40.2693C242.746 40.2693 243.158 40.3214 243.563 40.4255C243.968 40.5296 244.318 40.6793 244.612 40.8746L244.21 41.8606C243.909 41.6848 243.596 41.5514 243.269 41.4603C242.942 41.3692 242.625 41.3236 242.318 41.3236C241.814 41.3236 241.439 41.4082 241.19 41.5775C240.948 41.7467 240.827 41.9712 240.827 42.2511C240.827 42.4463 240.896 42.6057 241.033 42.7294C241.177 42.8531 241.357 42.9507 241.573 43.0223C241.788 43.0939 242.082 43.1752 242.455 43.2663C242.965 43.3835 243.383 43.5071 243.71 43.6373C244.037 43.7609 244.315 43.9529 244.543 44.2133C244.779 44.4736 244.896 44.825 244.896 45.2676C244.896 45.6451 244.792 45.9867 244.583 46.2926C244.38 46.5985 244.07 46.8426 243.651 47.0248C243.233 47.207 242.723 47.2981 242.122 47.2981Z" fill="#000080"/>
<path d="M249.418 41.4408H247.143V40.3669H252.967V41.4408H250.693V47.2005H249.418V41.4408Z" fill="#000080"/>
<path d="M261.032 46.1364V47.2005H255.885V40.3669H260.895V41.431H257.16V43.2077H260.474V44.2523H257.16V46.1364H261.032Z" fill="#000080"/>
<path d="M270.719 47.2005L270.709 42.6708L268.454 46.4195H267.885L265.63 42.7294V47.2005H264.414V40.3669H265.464L268.189 44.8966L270.866 40.3669H271.915L271.925 47.2005H270.719Z" fill="#000080"/>
<g clip-path="url(#clip0_2116_2789)">
<path d="M11.3527 21.6464C11.3527 25.4779 13.3048 29.6486 15.4958 33.1201H3.67934C1.64764 33.1201 0.00012207 31.4726 0.00012207 29.4374V20.563C0.00012207 18.5313 1.64764 16.8838 3.67934 16.8838H12.2111C11.6573 18.3652 11.3527 19.9712 11.3527 21.6464Z" fill="#E80045"/>
<path d="M33.1161 3.68268V10.6777C30.8456 8.99557 28.0386 7.99876 24.9997 7.99876C21.9608 7.99876 19.1503 8.99557 16.8798 10.6812V3.68268C16.8798 1.64752 18.5273 0 20.5625 0H29.4369C31.4686 0 33.1161 1.64752 33.1161 3.68268Z" fill="#E80045"/>
<path d="M29.1981 40.1289C30.0219 39.2117 31.5344 37.4431 33.1161 35.2072V46.321C33.1161 48.3527 31.4686 50.0002 29.4369 50.0002H20.5625C18.5273 50.0002 16.8798 48.3527 16.8798 46.321V35.1968C18.465 37.4396 19.981 39.2117 20.8082 40.1289C21.8743 41.3196 23.4041 42.0014 24.9997 42.0014C26.5953 42.0014 28.1286 41.3196 29.1981 40.1289Z" fill="#E80045"/>
<path d="M49.9983 20.563V29.4374C49.9983 31.4726 48.3507 33.1201 46.3156 33.1201H34.5061C36.697 29.6486 38.6491 25.4779 38.6491 21.6464C38.6491 19.9712 38.3445 18.3652 37.7907 16.8838H46.3156C48.3507 16.8838 49.9983 18.5313 49.9983 20.563Z" fill="#E80045"/>
<path d="M24.9956 12.2769C20.1396 12.2769 16.1904 16.226 16.1904 21.0821C16.1904 27.108 24.0715 35.9512 24.4038 36.325C24.7187 36.6746 25.2691 36.6746 25.584 36.325C25.9198 35.9512 33.7974 27.1045 33.7974 21.0821C33.7974 16.226 29.8482 12.2769 24.9922 12.2769H24.9956ZM24.9956 25.5124C22.5521 25.5124 20.5653 23.5256 20.5653 21.0821C20.5653 18.6385 22.5521 16.6518 24.9956 16.6518C27.4392 16.6518 29.4259 18.6385 29.4259 21.0821C29.4259 23.5256 27.4392 25.5124 24.9956 25.5124Z" fill="#000080"/>
</g>
<defs>
<clipPath id="clip0_2116_2789">
<rect width="50" height="50" fill="white"/>
</clipPath>
</defs>
</svg>
